# Blender v2.79 (sub 0) OBJ File: 'Fence.blend'
# www.blender.org
mtllib Fence.mtl
o Cube
v 2.822238 0.222853 0.047248
v -2.822301 0.222853 0.041319
v -2.822237 0.222853 -0.018681
v 2.822302 0.222853 -0.012752
v 2.822237 0.462853 0.047248
v -2.822303 0.462853 0.041319
v -2.822237 0.462853 -0.018681
v 2.822301 0.462853 -0.012752
v 2.504714 0.222853 0.046914
v 2.170748 0.222853 0.046564
v -2.170811 0.222853 0.042003
v -2.504777 0.222853 0.041653
v -2.504713 0.222853 -0.018348
v -2.170745 0.222853 -0.017997
v 2.170814 0.222853 -0.013437
v 2.504778 0.222853 -0.013086
v 2.504712 0.462853 0.046915
v 2.170742 0.462853 0.046564
v -2.170817 0.462853 0.042003
v -2.504779 0.462853 0.041653
v -2.504713 0.462853 -0.018348
v -2.170745 0.462853 -0.017997
v 2.170814 0.462853 -0.013437
v 2.504778 0.462853 -0.013086
v 2.504714 0.025159 0.046914
v 2.170748 0.025159 0.046564
v -2.170811 0.025159 0.042003
v -2.504777 0.025159 0.041653
v -2.504713 0.025159 -0.018348
v -2.170745 0.025159 -0.017997
v 2.170814 0.025159 -0.013437
v 2.504778 0.025159 -0.013086
v 2.504712 0.462853 0.046915
v 2.170742 0.462853 0.046564
v -2.170817 0.462853 0.042003
v -2.504779 0.462853 0.041653
v -2.504713 0.462853 -0.018348
v -2.170745 0.462853 -0.017997
v 2.170814 0.462853 -0.013437
v 2.504778 0.462853 -0.013086
v 2.504712 0.490456 0.046915
v 2.170742 0.490456 0.046564
v -2.170817 0.490456 0.042003
v -2.504779 0.490456 0.041653
v -2.504713 0.490456 -0.018348
v -2.170745 0.490456 -0.017997
v 2.170814 0.490456 -0.013437
v 2.504778 0.490456 -0.013086
v 2.822238 0.540164 0.047248
v -2.822301 0.540164 0.041319
v -2.822237 0.540164 -0.018681
v 2.822302 0.540164 -0.012752
v 2.822237 0.780164 0.047248
v -2.822303 0.780164 0.041319
v -2.822237 0.780164 -0.018681
v 2.822301 0.780164 -0.012752
v 2.504714 0.540164 0.046914
v 2.170748 0.540164 0.046564
v -2.170811 0.540164 0.042003
v -2.504777 0.540164 0.041653
v -2.504713 0.540164 -0.018348
v -2.170745 0.540164 -0.017997
v 2.170814 0.540164 -0.013437
v 2.504778 0.540164 -0.013086
v 2.504712 0.780164 0.046915
v 2.170742 0.780164 0.046564
v -2.170817 0.780164 0.042003
v -2.504779 0.780164 0.041653
v -2.504713 0.780164 -0.018348
v -2.170745 0.780164 -0.017997
v 2.170814 0.780164 -0.013437
v 2.504778 0.780164 -0.013086
v 2.504714 0.342470 0.046914
v 2.170748 0.342470 0.046564
v -2.170811 0.342470 0.042003
v -2.504777 0.342470 0.041653
v -2.504713 0.342470 -0.018348
v -2.170745 0.342470 -0.017997
v 2.170814 0.342470 -0.013437
v 2.504778 0.342470 -0.013086
v 2.504712 0.780164 0.046915
v 2.170742 0.780164 0.046564
v -2.170817 0.780164 0.042003
v -2.504779 0.780164 0.041653
v -2.504713 0.780164 -0.018348
v -2.170745 0.780164 -0.017997
v 2.170814 0.780164 -0.013437
v 2.504778 0.780164 -0.013086
v 2.504712 0.807768 0.046915
v 2.170742 0.807768 0.046564
v -2.170817 0.807768 0.042003
v -2.504779 0.807768 0.041653
v -2.504713 0.807768 -0.018348
v -2.170745 0.807768 -0.017997
v 2.170814 0.807768 -0.013437
v 2.504778 0.807768 -0.013086
v -2.170811 0.222853 0.042003
v -2.504777 0.222853 0.041653
v -2.170817 0.462853 0.042003
v -2.504779 0.462853 0.041653
v -2.170811 0.025159 0.042003
v -2.504777 0.025159 0.041653
v -2.170811 0.540164 0.042003
v -2.504777 0.540164 0.041653
v -2.170817 0.780164 0.042003
v -2.504779 0.780164 0.041653
v -2.170811 0.342470 0.042003
v -2.504777 0.342470 0.041653
v -2.170817 0.780164 0.042003
v -2.504779 0.780164 0.041653
v -2.170817 0.807768 0.042003
v -2.504779 0.807768 0.041653
v 2.504683 0.222853 0.076496
v 2.170717 0.222853 0.076145
v 2.504681 0.462853 0.076496
v 2.170711 0.462853 0.076145
v 2.504683 0.025159 0.076496
v 2.170717 0.025159 0.076145
v 2.504683 0.540164 0.076496
v 2.170717 0.540164 0.076145
v 2.504681 0.780164 0.076496
v 2.170711 0.780164 0.076145
v 2.504683 0.342470 0.076496
v 2.170717 0.342470 0.076145
v 2.504681 0.780164 0.076496
v 2.170711 0.780164 0.076145
v 2.504681 0.807768 0.076496
v 2.170711 0.807768 0.076145
v -2.170842 0.222853 0.071585
v -2.504808 0.222853 0.071234
v -2.170848 0.462853 0.071585
v -2.504810 0.462853 0.071234
v -2.170842 0.025159 0.071585
v -2.504808 0.025159 0.071234
v -2.170842 0.540164 0.071585
v -2.504808 0.540164 0.071234
v -2.170848 0.780164 0.071585
v -2.504810 0.780164 0.071234
v -2.170842 0.342470 0.071585
v -2.504808 0.342470 0.071234
v -2.170848 0.780164 0.071585
v -2.504810 0.780164 0.071234
v -2.170848 0.807768 0.071585
v -2.504810 0.807768 0.071234
v -2.504680 0.222853 -0.049676
v -2.170712 0.222853 -0.049325
v 2.170847 0.222853 -0.044765
v 2.504811 0.222853 -0.044414
v -2.504680 0.462853 -0.049676
v -2.170712 0.462853 -0.049325
v 2.170846 0.462853 -0.044765
v 2.504811 0.462853 -0.044414
v -2.504680 0.025159 -0.049676
v -2.170712 0.025159 -0.049325
v 2.170847 0.025159 -0.044765
v 2.504811 0.025159 -0.044414
v -2.504680 0.540164 -0.049676
v -2.170712 0.540164 -0.049325
v 2.170847 0.540164 -0.044765
v 2.504811 0.540164 -0.044414
v -2.504680 0.780164 -0.049676
v -2.170712 0.780164 -0.049325
v 2.170846 0.780164 -0.044765
v 2.504811 0.780164 -0.044414
v -2.504680 0.342470 -0.049676
v -2.170712 0.342470 -0.049325
v 2.170847 0.342470 -0.044765
v 2.504811 0.342470 -0.044414
v -2.504680 0.780164 -0.049676
v -2.170712 0.780164 -0.049325
v 2.170846 0.780164 -0.044765
v 2.504811 0.780164 -0.044414
v -2.504680 0.807768 -0.049676
v -2.170712 0.807768 -0.049325
v 2.170846 0.807768 -0.044765
v 2.504811 0.807768 -0.044414
vn 0.0000 -1.0000 0.0000
vn 0.0000 1.0000 -0.0000
vn -0.0011 0.0000 1.0000
vn -1.0000 -0.0000 -0.0011
vn 0.0011 -0.0000 -1.0000
vn 1.0000 0.0000 0.0011
vn -1.0000 -0.0000 -0.0010
vn 0.0000 0.0000 1.0000
vn 1.0000 0.0000 0.0012
vn -1.0000 0.0000 -0.0012
vn 1.0000 0.0000 0.0010
usemtl Material
s off
f 12//1 2//1 3//1 13//1
f 20//2 21//2 7//2 6//2
f 12//3 20//3 6//3 2//3
f 2//4 6//4 7//4 3//4
f 16//5 24//5 8//5 4//5
f 5//6 1//6 4//6 8//6
f 3//5 7//5 21//5 13//5
f 31//4 15//4 147//4 155//4
f 14//5 22//5 23//5 15//5
f 80//1 79//1 167//1 168//1
f 1//3 5//3 17//3 9//3
f 18//7 10//7 114//7 116//7
f 10//3 18//3 19//3 11//3
f 27//8 11//8 97//8 101//8
f 5//2 8//2 24//2 17//2
f 19//8 22//8 38//8 35//8
f 18//2 23//2 22//2 19//2
f 23//8 18//8 34//8 39//8
f 1//1 9//1 16//1 4//1
f 65//2 66//2 122//2 121//2
f 10//1 11//1 14//1 15//1
f 19//8 20//8 100//8 99//8
f 25//1 26//1 31//1 32//1
f 27//1 28//1 29//1 30//1
f 14//6 11//6 27//6 30//6
f 16//6 9//6 25//6 32//6
f 12//4 13//4 29//4 28//4
f 10//4 15//4 31//4 26//4
f 29//4 13//4 145//4 153//4
f 24//6 16//6 148//6 152//6
f 33//6 40//6 48//6 41//6
f 35//9 38//9 46//9 43//9
f 24//8 23//8 39//8 40//8
f 17//8 24//8 40//8 33//8
f 22//8 21//8 37//8 38//8
f 20//8 19//8 35//8 36//8
f 18//8 17//8 33//8 34//8
f 21//8 20//8 36//8 37//8
f 41//2 48//2 47//2 42//2
f 43//2 46//2 45//2 44//2
f 38//5 37//5 45//5 46//5
f 34//3 33//3 41//3 42//3
f 37//4 36//4 44//4 45//4
f 39//10 34//10 42//10 47//10
f 40//5 39//5 47//5 48//5
f 36//3 35//3 43//3 44//3
f 60//1 50//1 51//1 61//1
f 68//2 69//2 55//2 54//2
f 60//3 68//3 54//3 50//3
f 50//4 54//4 55//4 51//4
f 64//5 72//5 56//5 52//5
f 53//6 49//6 52//6 56//6
f 51//5 55//5 69//5 61//5
f 78//1 77//1 165//1 166//1
f 62//5 70//5 71//5 63//5
f 96//6 88//6 172//6 176//6
f 49//3 53//3 65//3 57//3
f 103//11 105//11 137//11 135//11
f 58//3 66//3 67//3 59//3
f 28//8 27//8 101//8 102//8
f 53//2 56//2 72//2 65//2
f 67//8 70//8 86//8 83//8
f 66//2 71//2 70//2 67//2
f 71//8 66//8 82//8 87//8
f 49//1 57//1 64//1 52//1
f 9//11 17//11 115//11 113//11
f 58//1 59//1 62//1 63//1
f 59//8 67//8 105//8 103//8
f 73//1 74//1 79//1 80//1
f 75//1 76//1 77//1 78//1
f 62//6 59//6 75//6 78//6
f 64//6 57//6 73//6 80//6
f 60//4 61//4 77//4 76//4
f 58//4 63//4 79//4 74//4
f 79//4 63//4 159//4 167//4
f 16//6 32//6 156//6 148//6
f 81//6 88//6 96//6 89//6
f 83//9 86//9 94//9 91//9
f 72//8 71//8 87//8 88//8
f 65//8 72//8 88//8 81//8
f 70//8 69//8 85//8 86//8
f 68//8 67//8 83//8 84//8
f 66//8 65//8 81//8 82//8
f 69//8 68//8 84//8 85//8
f 89//2 96//2 95//2 90//2
f 91//2 94//2 93//2 92//2
f 15//4 23//4 151//4 147//4
f 81//11 89//11 127//11 125//11
f 85//4 84//4 92//4 93//4
f 87//10 82//10 90//10 95//10
f 77//4 61//4 157//4 165//4
f 12//8 28//8 102//8 98//8
f 82//1 81//1 125//1 126//1
f 66//7 58//7 120//7 122//7
f 105//2 106//2 138//2 137//2
f 26//1 25//1 117//1 118//1
f 57//11 65//11 121//11 119//11
f 68//8 60//8 104//8 106//8
f 60//8 76//8 108//8 104//8
f 76//8 75//8 107//8 108//8
f 67//8 68//8 106//8 105//8
f 92//8 84//8 110//8 112//8
f 75//8 59//8 103//8 107//8
f 11//8 19//8 99//8 97//8
f 84//8 83//8 109//8 110//8
f 20//8 12//8 98//8 100//8
f 91//8 92//8 112//8 111//8
f 83//8 91//8 111//8 109//8
f 113//3 115//3 116//3 114//3
f 113//3 114//3 118//3 117//3
f 119//3 121//3 122//3 120//3
f 119//3 120//3 124//3 123//3
f 126//3 125//3 127//3 128//3
f 129//3 131//3 132//3 130//3
f 129//3 130//3 134//3 133//3
f 135//3 137//3 138//3 136//3
f 135//3 136//3 140//3 139//3
f 142//3 141//3 143//3 144//3
f 106//7 104//7 136//7 138//7
f 90//7 82//7 126//7 128//7
f 89//2 90//2 128//2 127//2
f 108//1 107//1 139//1 140//1
f 17//2 18//2 116//2 115//2
f 104//7 108//7 140//7 136//7
f 107//11 103//11 135//11 139//11
f 110//1 109//1 141//1 142//1
f 99//2 100//2 132//2 131//2
f 111//2 112//2 144//2 143//2
f 97//11 99//11 131//11 129//11
f 58//7 74//7 124//7 120//7
f 109//11 111//11 143//11 141//11
f 100//7 98//7 130//7 132//7
f 73//11 57//11 119//11 123//11
f 112//7 110//7 142//7 144//7
f 102//1 101//1 133//1 134//1
f 10//7 26//7 118//7 114//7
f 98//7 102//7 134//7 130//7
f 25//11 9//11 113//11 117//11
f 74//1 73//1 123//1 124//1
f 101//11 97//11 129//11 133//11
f 145//5 149//5 150//5 146//5
f 147//5 151//5 152//5 148//5
f 147//5 148//5 156//5 155//5
f 145//5 146//5 154//5 153//5
f 157//5 161//5 162//5 158//5
f 159//5 163//5 164//5 160//5
f 159//5 160//5 168//5 167//5
f 157//5 158//5 166//5 165//5
f 170//5 169//5 173//5 174//5
f 172//5 171//5 175//5 176//5
f 85//4 93//4 173//4 169//4
f 30//1 29//1 153//1 154//1
f 86//1 85//1 169//1 170//1
f 32//1 31//1 155//1 156//1
f 88//1 87//1 171//1 172//1
f 87//4 95//4 175//4 171//4
f 93//2 94//2 174//2 173//2
f 69//2 70//2 162//2 161//2
f 95//2 96//2 176//2 175//2
f 21//2 22//2 150//2 149//2
f 71//2 72//2 164//2 163//2
f 61//4 69//4 161//4 157//4
f 23//2 24//2 152//2 151//2
f 70//6 62//6 158//6 162//6
f 62//6 78//6 166//6 158//6
f 13//4 21//4 149//4 145//4
f 63//4 71//4 163//4 159//4
f 64//6 80//6 168//6 160//6
f 94//6 86//6 170//6 174//6
f 22//6 14//6 146//6 150//6
f 72//6 64//6 160//6 164//6
f 14//6 30//6 154//6 146//6
