# MagicaVoxel @ Ephtracy

# group
o 

# material
mtllib Robe.mtl
usemtl palette

# normals
vn -1 0 0
vn 1 0 0
vn 0 0 1
vn 0 0 -1
vn 0 -1 0
vn 0 1 0

# texcoords
vt 0.00195313 0.5
vt 0.0722656 0.5

# verts
v 2.1 1.6 -3.1
v 2.1 1.6 -6.4
v 2.1 2.8 -3.1
v 2.1 2.8 -6.4
v 2.7 2.8 -3.1
v 2.7 2.8 -6.4
v 2.7 3.7 -3.1
v 2.7 3.7 -6.4
v 3 1.6 -1.8
v 3 1.6 -3.1
v 3 1.6 -6.4
v 3 1.6 -7.7
v 3 3.7 -1.8
v 3 3.7 -3.1
v 3 3.7 -6.4
v 3 3.7 -7.7
v 3.9 1.6 -0.9
v 3.9 1.6 -1.8
v 3.9 1.6 -7.7
v 3.9 1.6 -8.5
v 3.9 3.7 -0.9
v 3.9 3.7 -1.8
v 3.9 3.7 -7.7
v 3.9 3.7 -8.5
v 7.6 1.6 -1.8
v 7.6 1.6 -2.7
v 7.6 1.9 -2.7
v 7.6 1.9 -3.1
v 7.6 2.5 -1.8
v 7.6 2.5 -3.1
v 8 1.6 -2.7
v 8 1.6 -3.1
v 8 1.6 -6.8
v 8 1.6 -7.7
v 8 1.9 -2.7
v 8 1.9 -3.1
v 8 2.5 -1.8
v 8 2.5 -2.7
v 8 2.8 -1.8
v 8 2.8 -2.7
v 8 2.8 -3.6
v 8 2.8 -6
v 8 2.8 -6.8
v 8 2.8 -7.7
v 8 3.7 -3.6
v 8 3.7 -6
v 8.5 2.5 -2.7
v 8.5 2.5 -3.1
v 8.5 2.8 -2.7
v 8.5 2.8 -3.1
v 8.9 1.6 -3.1
v 8.9 1.6 -6.8
v 8.9 2.8 -3.1
v 8.9 2.8 -6.8
v 3.9 1.6 -1.8
v 3.9 1.6 -7.7
v 3.9 2.8 -1.8
v 3.9 2.8 -7.7
v 4.8 2.8 -3.6
v 4.8 2.8 -6
v 4.8 3.7 -3.6
v 4.8 3.7 -6
v 8 1.6 -0.9
v 8 1.6 -1.8
v 8 1.6 -7.7
v 8 1.6 -8.5
v 8 3.7 -0.9
v 8 3.7 -1.8
v 8 3.7 -7.7
v 8 3.7 -8.5
v 8.9 1.6 -1.8
v 8.9 1.6 -3.1
v 8.9 1.6 -6.8
v 8.9 1.6 -7.7
v 8.9 3.7 -1.8
v 8.9 3.7 -3.1
v 8.9 3.7 -6.8
v 8.9 3.7 -7.7
v 9.7 2.8 -3.1
v 9.7 2.8 -6.8
v 9.7 3.7 -3.1
v 9.7 3.7 -6.8
v 10.1 1.6 -3.1
v 10.1 1.6 -6.8
v 10.1 2.8 -3.1
v 10.1 2.8 -6.8
v 3.9 1.6 -0.9
v 3.9 3.7 -0.9
v 8 1.6 -0.9
v 8 3.7 -0.9
v 3 1.6 -1.8
v 3 3.7 -1.8
v 3.9 1.6 -1.8
v 3.9 3.7 -1.8
v 8 1.6 -1.8
v 8 3.7 -1.8
v 8.9 1.6 -1.8
v 8.9 3.7 -1.8
v 2.1 1.6 -3.1
v 2.1 2.8 -3.1
v 2.7 2.8 -3.1
v 2.7 3.7 -3.1
v 3 1.6 -3.1
v 3 3.7 -3.1
v 8.9 1.6 -3.1
v 8.9 3.7 -3.1
v 9.7 2.8 -3.1
v 9.7 3.7 -3.1
v 10.1 1.6 -3.1
v 10.1 2.8 -3.1
v 4.8 2.8 -6
v 4.8 3.7 -6
v 5.6 2.8 -6
v 5.6 3.7 -6
v 6.4 2.8 -6
v 6.4 3.7 -6
v 7.2 2.8 -6
v 7.2 3.7 -6
v 8 2.8 -6
v 8 3.7 -6
v 8 1.6 -6.8
v 8 2.8 -6.8
v 8.9 1.6 -6.8
v 8.9 2.8 -6.8
v 3.9 1.6 -7.7
v 3.9 2.8 -7.7
v 4.8 2.8 -7.7
v 5.6 2.8 -7.7
v 6.4 2.8 -7.7
v 7.2 2.8 -7.7
v 8 1.6 -7.7
v 8 2.8 -7.7
v 3.9 1.6 -1.8
v 3.9 2.8 -1.8
v 4.8 2.8 -1.8
v 5.6 2.8 -1.8
v 6.4 2.8 -1.8
v 7.2 2.8 -1.8
v 7.6 1.6 -1.8
v 7.6 2.5 -1.8
v 8 2.5 -1.8
v 8 2.8 -1.8
v 7.6 1.6 -2.7
v 7.6 1.9 -2.7
v 8 1.6 -2.7
v 8 1.9 -2.7
v 8 2.5 -2.7
v 8 2.8 -2.7
v 8.5 2.5 -2.7
v 8.5 2.8 -2.7
v 7.6 1.9 -3.1
v 7.6 2.5 -3.1
v 8 1.6 -3.1
v 8 1.9 -3.1
v 8.5 2.5 -3.1
v 8.5 2.8 -3.1
v 8.9 1.6 -3.1
v 8.9 2.8 -3.1
v 4.8 2.8 -3.6
v 4.8 3.7 -3.6
v 5.6 2.8 -3.6
v 5.6 3.7 -3.6
v 6.4 2.8 -3.6
v 6.4 3.7 -3.6
v 7.2 2.8 -3.6
v 7.2 3.7 -3.6
v 8 2.8 -3.6
v 8 3.7 -3.6
v 2.1 1.6 -6.4
v 2.1 2.8 -6.4
v 2.7 2.8 -6.4
v 2.7 3.7 -6.4
v 3 1.6 -6.4
v 3 3.7 -6.4
v 8.9 1.6 -6.8
v 8.9 3.7 -6.8
v 9.7 2.8 -6.8
v 9.7 3.7 -6.8
v 10.1 1.6 -6.8
v 10.1 2.8 -6.8
v 3 1.6 -7.7
v 3 3.7 -7.7
v 3.9 1.6 -7.7
v 3.9 3.7 -7.7
v 8 1.6 -7.7
v 8 3.7 -7.7
v 8.9 1.6 -7.7
v 8.9 3.7 -7.7
v 3.9 1.6 -8.5
v 3.9 3.7 -8.5
v 8 1.6 -8.5
v 8 3.7 -8.5
v 3.9 1.6 -0.9
v 8 1.6 -0.9
v 3 1.6 -1.8
v 3.9 1.6 -1.8
v 7.6 1.6 -1.8
v 8 1.6 -1.8
v 8.9 1.6 -1.8
v 7.6 1.6 -2.7
v 8 1.6 -2.7
v 2.1 1.6 -3.1
v 3 1.6 -3.1
v 8 1.6 -3.1
v 8.9 1.6 -3.1
v 10.1 1.6 -3.1
v 2.1 1.6 -6.4
v 3 1.6 -6.4
v 8 1.6 -6.8
v 8.9 1.6 -6.8
v 10.1 1.6 -6.8
v 3 1.6 -7.7
v 3.9 1.6 -7.7
v 8 1.6 -7.7
v 8.9 1.6 -7.7
v 3.9 1.6 -8.5
v 8 1.6 -8.5
v 7.6 1.9 -2.7
v 8 1.9 -2.7
v 7.6 1.9 -3.1
v 8 1.9 -3.1
v 3.9 2.8 -1.8
v 4.8 2.8 -1.8
v 5.6 2.8 -1.8
v 6.4 2.8 -1.8
v 7.2 2.8 -1.8
v 8 2.8 -1.8
v 4.8 2.8 -2.7
v 5.6 2.8 -2.7
v 6.4 2.8 -2.7
v 7.2 2.8 -2.7
v 8 2.8 -2.7
v 8.5 2.8 -2.7
v 8.5 2.8 -3.1
v 8.9 2.8 -3.1
v 4.8 2.8 -3.6
v 5.6 2.8 -3.6
v 6.4 2.8 -3.6
v 7.2 2.8 -3.6
v 8 2.8 -3.6
v 4.8 2.8 -6
v 5.6 2.8 -6
v 6.4 2.8 -6
v 7.2 2.8 -6
v 8 2.8 -6
v 4.8 2.8 -6.8
v 5.6 2.8 -6.8
v 6.4 2.8 -6.8
v 7.2 2.8 -6.8
v 8 2.8 -6.8
v 8.9 2.8 -6.8
v 3.9 2.8 -7.7
v 4.8 2.8 -7.7
v 5.6 2.8 -7.7
v 6.4 2.8 -7.7
v 7.2 2.8 -7.7
v 8 2.8 -7.7
v 7.6 2.5 -1.8
v 8 2.5 -1.8
v 8 2.5 -2.7
v 8.5 2.5 -2.7
v 7.6 2.5 -3.1
v 8.5 2.5 -3.1
v 2.1 2.8 -3.1
v 2.7 2.8 -3.1
v 9.7 2.8 -3.1
v 10.1 2.8 -3.1
v 2.1 2.8 -6.4
v 2.7 2.8 -6.4
v 9.7 2.8 -6.8
v 10.1 2.8 -6.8
v 3.9 3.7 -0.9
v 8 3.7 -0.9
v 3 3.7 -1.8
v 3.9 3.7 -1.8
v 4.8 3.7 -1.8
v 5.6 3.7 -1.8
v 6.4 3.7 -1.8
v 7.2 3.7 -1.8
v 8 3.7 -1.8
v 8.9 3.7 -1.8
v 4.8 3.7 -2.7
v 5.6 3.7 -2.7
v 6.4 3.7 -2.7
v 7.2 3.7 -2.7
v 8 3.7 -2.7
v 2.7 3.7 -3.1
v 3 3.7 -3.1
v 8.9 3.7 -3.1
v 9.7 3.7 -3.1
v 4.8 3.7 -3.6
v 5.6 3.7 -3.6
v 6.4 3.7 -3.6
v 7.2 3.7 -3.6
v 8 3.7 -3.6
v 4.8 3.7 -6
v 5.6 3.7 -6
v 6.4 3.7 -6
v 7.2 3.7 -6
v 8 3.7 -6
v 2.7 3.7 -6.4
v 3 3.7 -6.4
v 4.8 3.7 -6.8
v 5.6 3.7 -6.8
v 6.4 3.7 -6.8
v 7.2 3.7 -6.8
v 8 3.7 -6.8
v 8.9 3.7 -6.8
v 9.7 3.7 -6.8
v 3 3.7 -7.7
v 3.9 3.7 -7.7
v 4.8 3.7 -7.7
v 5.6 3.7 -7.7
v 6.4 3.7 -7.7
v 7.2 3.7 -7.7
v 8 3.7 -7.7
v 8.9 3.7 -7.7
v 3.9 3.7 -8.5
v 8 3.7 -8.5

# faces
f 3/2/1 2/2/1 1/2/1
f 4/2/1 2/2/1 3/2/1
f 7/2/1 6/2/1 5/2/1
f 8/2/1 6/2/1 7/2/1
f 13/2/1 10/2/1 9/2/1
f 14/2/1 10/2/1 13/2/1
f 15/2/1 12/2/1 11/2/1
f 16/2/1 12/2/1 15/2/1
f 21/2/1 18/2/1 17/2/1
f 22/2/1 18/2/1 21/2/1
f 23/2/1 20/2/1 19/2/1
f 24/2/1 20/2/1 23/2/1
f 27/2/1 26/2/1 25/2/1
f 29/2/1 27/2/1 25/2/1
f 29/2/1 28/2/1 27/2/1
f 30/2/1 28/2/1 29/2/1
f 35/2/1 32/2/1 31/2/1
f 36/2/1 32/2/1 35/2/1
f 39/2/1 38/2/1 37/2/1
f 40/2/1 38/2/1 39/2/1
f 43/2/1 34/2/1 33/2/1
f 44/2/1 34/2/1 43/2/1
f 45/2/1 42/2/1 41/2/1
f 46/2/1 42/2/1 45/2/1
f 49/2/1 48/2/1 47/2/1
f 50/2/1 48/2/1 49/2/1
f 53/2/1 52/2/1 51/2/1
f 54/2/1 52/2/1 53/2/1
f 55/2/2 56/2/2 57/2/2
f 57/2/2 56/2/2 58/2/2
f 59/2/2 60/2/2 61/2/2
f 61/2/2 60/2/2 62/2/2
f 63/2/2 64/2/2 67/2/2
f 67/2/2 64/2/2 68/2/2
f 65/2/2 66/2/2 69/2/2
f 69/2/2 66/2/2 70/2/2
f 71/2/2 72/2/2 75/2/2
f 75/2/2 72/2/2 76/2/2
f 73/2/2 74/2/2 77/2/2
f 77/2/2 74/2/2 78/2/2
f 79/2/2 80/2/2 81/2/2
f 81/2/2 80/2/2 82/2/2
f 83/2/2 84/2/2 85/2/2
f 85/2/2 84/2/2 86/2/2
f 89/2/3 88/2/3 87/2/3
f 90/2/3 88/2/3 89/2/3
f 93/2/3 92/2/3 91/2/3
f 94/2/3 92/2/3 93/2/3
f 97/2/3 96/2/3 95/2/3
f 98/2/3 96/2/3 97/2/3
f 101/2/3 100/2/3 99/2/3
f 103/2/3 101/2/3 99/2/3
f 103/2/3 102/2/3 101/2/3
f 104/2/3 102/2/3 103/2/3
f 107/2/3 106/2/3 105/2/3
f 108/2/3 106/2/3 107/2/3
f 109/2/3 107/2/3 105/2/3
f 110/2/3 107/2/3 109/2/3
f 113/2/3 112/2/3 111/2/3
f 114/2/3 112/2/3 113/2/3
f 115/1/3 114/1/3 113/1/3
f 116/1/3 114/1/3 115/1/3
f 117/2/3 116/2/3 115/2/3
f 118/2/3 116/2/3 117/2/3
f 119/1/3 118/1/3 117/1/3
f 120/1/3 118/1/3 119/1/3
f 123/2/3 122/2/3 121/2/3
f 124/2/3 122/2/3 123/2/3
f 127/2/3 126/2/3 125/2/3
f 128/2/3 127/2/3 125/2/3
f 129/2/3 128/2/3 125/2/3
f 130/2/3 129/2/3 125/2/3
f 131/2/3 130/2/3 125/2/3
f 132/2/3 130/2/3 131/2/3
f 133/2/4 134/2/4 135/2/4
f 133/2/4 135/2/4 136/2/4
f 133/2/4 136/2/4 137/2/4
f 133/2/4 137/2/4 138/2/4
f 133/2/4 138/2/4 139/2/4
f 139/2/4 138/2/4 140/2/4
f 140/2/4 138/2/4 141/2/4
f 141/2/4 138/2/4 142/2/4
f 143/2/4 144/2/4 145/2/4
f 145/2/4 144/2/4 146/2/4
f 147/2/4 148/2/4 149/2/4
f 149/2/4 148/2/4 150/2/4
f 151/2/4 152/2/4 154/2/4
f 154/2/4 152/2/4 155/2/4
f 153/2/4 154/2/4 155/2/4
f 153/2/4 155/2/4 157/2/4
f 155/2/4 156/2/4 157/2/4
f 157/2/4 156/2/4 158/2/4
f 159/2/4 160/2/4 161/2/4
f 161/2/4 160/2/4 162/2/4
f 161/1/4 162/1/4 163/1/4
f 163/1/4 162/1/4 164/1/4
f 163/2/4 164/2/4 165/2/4
f 165/2/4 164/2/4 166/2/4
f 165/1/4 166/1/4 167/1/4
f 167/1/4 166/1/4 168/1/4
f 169/2/4 170/2/4 171/2/4
f 169/2/4 171/2/4 173/2/4
f 171/2/4 172/2/4 173/2/4
f 173/2/4 172/2/4 174/2/4
f 175/2/4 176/2/4 177/2/4
f 177/2/4 176/2/4 178/2/4
f 175/2/4 177/2/4 179/2/4
f 179/2/4 177/2/4 180/2/4
f 181/2/4 182/2/4 183/2/4
f 183/2/4 182/2/4 184/2/4
f 185/2/4 186/2/4 187/2/4
f 187/2/4 186/2/4 188/2/4
f 189/2/4 190/2/4 191/2/4
f 191/2/4 190/2/4 192/2/4
f 196/2/5 194/2/5 193/2/5
f 197/2/5 194/2/5 196/2/5
f 198/2/5 194/2/5 197/2/5
f 200/2/5 199/2/5 198/2/5
f 200/2/5 198/2/5 197/2/5
f 201/2/5 199/2/5 200/2/5
f 203/2/5 196/2/5 195/2/5
f 204/2/5 199/2/5 201/2/5
f 205/2/5 199/2/5 204/2/5
f 207/2/5 203/2/5 202/2/5
f 208/2/5 196/2/5 203/2/5
f 208/2/5 203/2/5 207/2/5
f 210/2/5 206/2/5 205/2/5
f 211/2/5 206/2/5 210/2/5
f 212/2/5 196/2/5 208/2/5
f 213/2/5 196/2/5 212/2/5
f 214/2/5 210/2/5 209/2/5
f 215/2/5 210/2/5 214/2/5
f 216/2/5 214/2/5 213/2/5
f 217/2/5 214/2/5 216/2/5
f 220/2/5 219/2/5 218/2/5
f 221/2/5 219/2/5 220/2/5
f 228/2/5 223/2/5 222/2/5
f 228/1/5 224/1/5 223/1/5
f 229/2/5 225/2/5 224/2/5
f 229/1/5 224/1/5 228/1/5
f 230/1/5 226/1/5 225/1/5
f 230/2/5 225/2/5 229/2/5
f 231/2/5 227/2/5 226/2/5
f 231/1/5 226/1/5 230/1/5
f 232/2/5 227/2/5 231/2/5
f 234/2/5 233/2/5 232/2/5
f 236/2/5 229/2/5 228/2/5
f 236/2/5 228/2/5 222/2/5
f 237/1/5 230/1/5 229/1/5
f 237/2/5 229/2/5 236/2/5
f 238/2/5 231/2/5 230/2/5
f 238/1/5 230/1/5 237/1/5
f 239/1/5 232/1/5 231/1/5
f 239/2/5 231/2/5 238/2/5
f 240/2/5 235/2/5 234/2/5
f 240/1/5 232/1/5 239/1/5
f 240/2/5 234/2/5 232/2/5
f 241/2/5 236/2/5 222/2/5
f 245/2/5 235/2/5 240/2/5
f 246/2/5 241/2/5 222/2/5
f 246/2/5 242/2/5 241/2/5
f 247/1/5 243/1/5 242/1/5
f 247/2/5 242/2/5 246/2/5
f 248/2/5 244/2/5 243/2/5
f 248/1/5 243/1/5 247/1/5
f 249/1/5 245/1/5 244/1/5
f 249/2/5 244/2/5 248/2/5
f 250/2/5 235/2/5 245/2/5
f 250/1/5 245/1/5 249/1/5
f 251/2/5 235/2/5 250/2/5
f 252/2/5 246/2/5 222/2/5
f 253/1/5 247/1/5 246/1/5
f 253/2/5 246/2/5 252/2/5
f 254/2/5 248/2/5 247/2/5
f 254/1/5 247/1/5 253/1/5
f 255/1/5 249/1/5 248/1/5
f 255/2/5 248/2/5 254/2/5
f 256/2/5 250/2/5 249/2/5
f 256/1/5 249/1/5 255/1/5
f 257/2/5 250/2/5 256/2/5
f 258/2/6 259/2/6 260/2/6
f 258/2/6 260/2/6 262/2/6
f 260/2/6 261/2/6 262/2/6
f 262/2/6 261/2/6 263/2/6
f 264/2/6 265/2/6 268/2/6
f 268/2/6 265/2/6 269/2/6
f 266/2/6 267/2/6 270/2/6
f 270/2/6 267/2/6 271/2/6
f 272/2/6 273/2/6 275/2/6
f 275/2/6 273/2/6 276/2/6
f 276/2/6 273/2/6 277/2/6
f 277/2/6 273/2/6 278/2/6
f 278/2/6 273/2/6 279/2/6
f 279/2/6 273/2/6 280/2/6
f 274/2/6 275/2/6 282/2/6
f 275/2/6 276/2/6 282/2/6
f 276/1/6 277/1/6 282/1/6
f 277/2/6 278/2/6 283/2/6
f 282/1/6 277/1/6 283/1/6
f 278/1/6 279/1/6 284/1/6
f 283/2/6 278/2/6 284/2/6
f 280/2/6 281/2/6 285/2/6
f 284/1/6 279/1/6 285/1/6
f 279/2/6 280/2/6 285/2/6
f 285/2/6 281/2/6 286/2/6
f 274/2/6 282/2/6 288/2/6
f 282/2/6 283/2/6 288/2/6
f 286/2/6 281/2/6 289/2/6
f 287/2/6 288/2/6 291/2/6
f 288/2/6 283/2/6 291/2/6
f 283/1/6 284/1/6 292/1/6
f 291/2/6 283/2/6 292/2/6
f 284/2/6 285/2/6 293/2/6
f 292/1/6 284/1/6 293/1/6
f 285/1/6 286/1/6 294/1/6
f 293/2/6 285/2/6 294/2/6
f 289/2/6 290/2/6 295/2/6
f 294/1/6 286/1/6 295/1/6
f 286/2/6 289/2/6 295/2/6
f 287/2/6 291/2/6 296/2/6
f 295/2/6 290/2/6 300/2/6
f 287/2/6 296/2/6 301/2/6
f 296/2/6 297/2/6 301/2/6
f 301/2/6 297/2/6 302/2/6
f 302/2/6 297/2/6 303/2/6
f 297/1/6 298/1/6 304/1/6
f 303/2/6 297/2/6 304/2/6
f 298/2/6 299/2/6 305/2/6
f 304/1/6 298/1/6 305/1/6
f 299/1/6 300/1/6 306/1/6
f 305/2/6 299/2/6 306/2/6
f 300/2/6 290/2/6 307/2/6
f 306/1/6 300/1/6 307/1/6
f 307/2/6 290/2/6 308/2/6
f 308/2/6 290/2/6 309/2/6
f 302/2/6 303/2/6 310/2/6
f 310/2/6 303/2/6 311/2/6
f 303/1/6 304/1/6 312/1/6
f 311/2/6 303/2/6 312/2/6
f 304/2/6 305/2/6 313/2/6
f 312/1/6 304/1/6 313/1/6
f 305/1/6 306/1/6 314/1/6
f 313/2/6 305/2/6 314/2/6
f 306/2/6 307/2/6 315/2/6
f 314/1/6 306/1/6 315/1/6
f 307/2/6 308/2/6 315/2/6
f 315/2/6 308/2/6 316/2/6
f 316/2/6 308/2/6 317/2/6
f 311/2/6 312/2/6 318/2/6
f 315/2/6 316/2/6 318/2/6
f 314/2/6 315/2/6 318/2/6
f 312/2/6 313/2/6 318/2/6
f 313/2/6 314/2/6 318/2/6
f 318/2/6 316/2/6 319/2/6
