# 3ds Max Wavefront OBJ Exporter v0.97b - (c)2007 guruware
# File Created: 29.10.2017 16:07:50

mtllib Bow.mtl

#
# object bow001
#

v  0.6112 -0.0032 -0.0677
v  0.6361 -0.0075 -0.0870
v  0.6361 0.0075 -0.0870
v  0.6112 0.0049 -0.0677
v  0.2945 -0.0153 0.0047
v  0.2945 0.0153 0.0047
v  0.3591 -0.0110 0.0298
v  0.1481 -0.0125 0.0575
v  0.0855 -0.0168 0.0145
v  0.1481 0.0142 0.0575
v  0.3591 0.0127 0.0298
v  0.0855 0.0168 0.0145
v  -0.0000 -0.0152 -0.0000
v  0.0000 0.0152 -0.0000
v  -0.0000 -0.0109 0.0344
v  0.0000 0.0126 0.0344
v  0.6092 -0.0037 -0.0695
v  0.6203 0.0007 -0.0829
v  0.6092 0.0059 -0.0737
v  0.0000 0.0007 -0.0829
v  0.0000 0.0041 -0.0737
v  -0.0000 -0.0055 -0.0695
v  -0.6112 -0.0032 -0.0677
v  -0.6112 0.0049 -0.0677
v  -0.6361 0.0075 -0.0870
v  -0.6361 -0.0075 -0.0870
v  -0.2945 -0.0153 0.0047
v  -0.2945 0.0153 0.0047
v  -0.0855 -0.0168 0.0145
v  -0.1481 -0.0125 0.0575
v  -0.3591 -0.0110 0.0298
v  -0.1481 0.0142 0.0575
v  -0.0855 0.0168 0.0145
v  -0.3591 0.0127 0.0298
v  -0.6092 -0.0037 -0.0695
v  -0.6092 0.0059 -0.0737
v  -0.6203 0.0007 -0.0829
# 37 vertices

vn 0.6124 0.0000 0.7906
vn -0.2594 -0.0000 -0.9658
vn 0.0156 -0.9953 0.0958
vn 0.0118 0.9985 0.0534
vn 0.1299 0.0000 0.9915
vn 0.1677 -0.0000 -0.9858
vn -0.0360 -0.9897 0.1383
vn -0.0281 0.9956 0.0889
vn -0.1539 0.0000 0.9881
vn -0.0469 -0.0000 -0.9989
vn 0.0675 -0.9892 0.1299
vn 0.0491 0.9962 0.0715
vn 0.3609 0.0000 0.9326
vn 0.6868 0.2891 0.6669
vn -0.0013 0.9055 -0.4243
vn 0.0013 -0.9289 -0.3703
vn -0.0012 0.3977 0.9175
vn -0.6124 0.0000 0.7906
vn 0.2594 -0.0000 -0.9658
vn -0.0156 -0.9953 0.0958
vn -0.0118 0.9985 0.0534
vn -0.1299 0.0000 0.9915
vn -0.1677 -0.0000 -0.9858
vn 0.0360 -0.9897 0.1383
vn 0.0281 0.9956 0.0889
vn 0.1539 0.0000 0.9881
vn 0.0469 -0.0000 -0.9989
vn -0.0675 -0.9892 0.1299
vn -0.0491 0.9962 0.0715
vn -0.3609 0.0000 0.9326
vn -0.6868 0.2891 0.6669
vn 0.0013 0.9055 -0.4243
vn -0.0013 -0.9289 -0.3703
vn 0.0012 0.3977 0.9175
# 34 vertex normals

vt 0.7575 0.2478 0.0000
vt 0.7751 0.2459 0.0000
vt 0.7749 0.2542 0.0000
vt 0.7574 0.2523 0.0000
vt 0.8204 0.2430 0.0000
vt 0.8204 0.2601 0.0000
vt 0.6231 0.2558 0.0000
vt 0.6231 0.2474 0.0000
vt 0.7157 0.2468 0.0000
vt 0.7518 0.2466 0.0000
vt 0.6764 0.3313 0.0000
vt 0.6344 0.3376 0.0000
vt 0.8364 0.3315 0.0000
vt 0.7612 0.2466 0.0000
vt 0.7972 0.2469 0.0000
vt 0.8782 0.3380 0.0000
vt 0.7712 0.2402 0.0000
vt 0.7712 0.2535 0.0000
vt 0.6524 0.2543 0.0000
vt 0.6524 0.2393 0.0000
vt 0.8164 0.7596 0.0000
vt 0.8164 0.7932 0.0000
vt 0.7205 0.7950 0.0000
vt 0.7205 0.7578 0.0000
vt 0.7695 0.8165 0.0000
vt 0.6914 0.7855 0.0000
vt 0.8566 0.7733 0.0000
vt 0.8652 0.8107 0.0000
vt 0.8748 0.7632 0.0000
vt 0.7967 0.7939 0.0000
vt 0.7010 0.7880 0.0000
vt 0.7096 0.7508 0.0000
vt 0.8738 0.7643 0.0000
vt 0.8738 0.7938 0.0000
vt 0.7082 0.7920 0.0000
vt 0.7082 0.7660 0.0000
vt 0.9371 0.2422 0.0000
vt 0.9371 0.2610 0.0000
vt 0.9061 0.1879 0.0000
vt 0.8924 0.1990 0.0000
vt 0.6205 0.1993 0.0000
vt 0.6067 0.1884 0.0000
vt 0.9220 0.2446 0.0000
vt 0.9220 0.2491 0.0000
vt 0.3126 0.7792 0.0000
vt 0.3212 0.7753 0.0000
vt 0.3171 0.7822 0.0000
vt 0.4056 0.7782 0.0000
vt 0.4056 0.7834 0.0000
vt 0.0859 0.7836 0.0000
vt 0.0801 0.7780 0.0000
vt 0.0808 0.7831 0.0000
vt 0.0867 0.7757 0.0000
vt 0.4064 0.7755 0.0000
vt 0.4064 0.7833 0.0000
vt 0.4024 0.7741 0.0000
vt 0.4024 0.7796 0.0000
vt 0.0827 0.7796 0.0000
vt 0.0827 0.7741 0.0000
vt 0.7526 0.2545 0.0000
vt 0.7525 0.2500 0.0000
vt 0.7701 0.2482 0.0000
vt 0.7702 0.2565 0.0000
vt 0.8292 0.2576 0.0000
vt 0.6318 0.2532 0.0000
vt 0.6318 0.2449 0.0000
vt 0.8292 0.2405 0.0000
vt 0.7993 0.2512 0.0000
vt 0.8806 0.3420 0.0000
vt 0.8386 0.3356 0.0000
vt 0.7632 0.2510 0.0000
vt 0.6842 0.3360 0.0000
vt 0.6423 0.3425 0.0000
vt 0.7234 0.2514 0.0000
vt 0.7593 0.2511 0.0000
vt 0.7623 0.2610 0.0000
vt 0.6435 0.2619 0.0000
vt 0.6435 0.2469 0.0000
vt 0.7623 0.2478 0.0000
vt 0.7379 0.7546 0.0000
vt 0.8337 0.7528 0.0000
vt 0.8337 0.7899 0.0000
vt 0.7379 0.7882 0.0000
vt 0.8113 0.8146 0.0000
vt 0.7159 0.8047 0.0000
vt 0.7261 0.7678 0.0000
vt 0.8906 0.7870 0.0000
vt 0.6870 0.7724 0.0000
vt 0.8515 0.7529 0.0000
vt 0.8618 0.7897 0.0000
vt 0.7664 0.7997 0.0000
vt 0.7140 0.7558 0.0000
vt 0.8797 0.7576 0.0000
vt 0.8797 0.7836 0.0000
vt 0.7140 0.7853 0.0000
vt 0.9459 0.2584 0.0000
vt 0.9459 0.2397 0.0000
vt 0.6089 0.1923 0.0000
vt 0.6226 0.2034 0.0000
vt 0.9139 0.1929 0.0000
vt 0.9001 0.2038 0.0000
vt 0.9131 0.2567 0.0000
vt 0.9131 0.2521 0.0000
vt 0.3698 0.7790 0.0000
vt 0.3744 0.7759 0.0000
vt 0.3783 0.7829 0.0000
vt 0.4050 0.7841 0.0000
vt 0.0794 0.7843 0.0000
vt 0.0852 0.7788 0.0000
vt 0.4050 0.7790 0.0000
vt 0.0811 0.7746 0.0000
vt 0.4067 0.7744 0.0000
vt 0.4067 0.7821 0.0000
vt 0.0869 0.7819 0.0000
vt 0.3988 0.7812 0.0000
vt 0.0791 0.7812 0.0000
vt 0.0791 0.7757 0.0000
vt 0.3988 0.7757 0.0000
# 118 texture coords

g bow001
usemtl wire_115115115
s off
f 1/1/1 2/2/1 3/3/1 4/4/1 
f 5/5/2 6/6/2 3/7/2 2/8/2 
f 5/9/3 7/10/3 8/11/3 9/12/3 
f 10/13/4 11/14/4 6/15/4 12/16/4 
f 7/17/5 11/18/5 10/19/5 8/20/5 
f 13/21/6 14/22/6 12/23/6 9/24/6 
f 9/25/7 8/26/7 15/27/7 13/28/7 
f 10/29/8 12/30/8 14/31/8 16/32/8 
f 8/33/9 10/34/9 16/35/9 15/36/9 
f 9/37/10 12/38/10 6/6/10 5/5/10 
f 2/39/11 1/40/11 7/10/11 5/9/11 
f 11/14/12 4/41/12 3/42/12 6/15/12 
f 1/43/13 4/44/13 11/18/13 7/17/13 
f 17/45/14 18/46/14 19/47/14 
f 20/48/15 21/49/15 19/50/15 18/51/15 
f 18/52/16 17/53/16 22/54/16 20/55/16 
f 17/56/17 19/57/17 21/58/17 22/59/17 
f 23/60/18 24/61/18 25/62/18 26/63/18 
f 27/64/19 26/65/19 25/66/19 28/67/19 
f 27/68/20 29/69/20 30/70/20 31/71/20 
f 32/72/21 33/73/21 28/74/21 34/75/21 
f 31/76/22 30/77/22 32/78/22 34/79/22 
f 13/80/23 29/81/23 33/82/23 14/83/23 
f 29/84/24 13/85/24 15/86/24 30/87/24 
f 32/88/25 16/89/25 14/90/25 33/91/25 
f 30/92/26 15/93/26 16/94/26 32/95/26 
f 29/96/27 27/64/27 28/67/27 33/97/27 
f 26/98/28 27/68/28 31/71/28 23/99/28 
f 34/75/29 28/74/29 25/100/29 24/101/29 
f 23/102/30 31/76/30 34/79/30 24/103/30 
f 35/104/31 36/105/31 37/106/31 
f 20/107/32 37/108/32 36/109/32 21/110/32 
f 37/111/33 20/112/33 22/113/33 35/114/33 
f 35/115/34 22/116/34 21/117/34 36/118/34 
# 32 polygons - 2 triangles

