mtllib ./Palette.mtl
g Palette
v -0.25 1E-06 -2.25
v -0.5 1.500001 -2
v -2.25 1E-06 -0.25
v -0.25 1E-06 -0.25
v -2 1.500001 -0.5
v -0.5 1.500001 -0.5
v -0.625 1.65 -0.625
v -1.875 1.65 -0.625
v -0.625 1.65 -1.875
v -1.027821 4.065525 -1.027821
v -1.875 4.065525 -1.027821
v -1.027821 4.065525 -1.875
v -0.701411 4.334475 -0.701411
v -2.201411 4.334475 -0.701411
v -0.701411 4.334475 -2.201411
v -0.633911 4.496159 -0.633911
v -2.26891 4.496159 -0.633911
v -0.633911 4.496159 -2.26891
v -2.26891 4.496159 -2.26891
v -0.633911 5.5 -0.633911
v -2.26891 5.5 -0.633911
v -0.633911 5.5 -2.26891
v -2.26891 5.5 -2.26891
v -0.701411 5.656 -0.701411
v -2.201411 5.656 -0.701411
v -0.701411 5.656 -2.201411
v -2.201411 5.656 -2.201411
v -1.451411 6 -1.451411
v -1.2 4.334475 -2.201411
v -1.2 4.496159 -2.26891
v -1.2 4.065525 -1.875
v -1.2 1.65 -1.875
v -1.2 1E-06 -2.25
v -1.2 1.500001 -2
v -2 1.500001 -1.2
v -1.875 1.65 -1.2
v -2.25 1E-06 -1.2
v -1.875 4.065525 -1.2
v -2.201411 4.334475 -1.2
v -2.26891 4.496159 -1.2
v -1 0 -1
v -1.25 5 -1.25
v -3 5 -1.25
v -3 0 -1
v -1 0 -3
v -1.25 5 -3
v -3 0.5 -0.875
v -3 0.3 -0.5
v -2.064983 0.3 -0.5
v -2.064983 0.5 -0.875
v -3 0 -0.5
v -2.064983 0 -0.5
v -2.064983 0.75 -0.875
v -3 0.75 -0.875
v -2.064983 0.875 -0.75
v -3 0.875 -0.75
v -2.064983 1 -0.75
v -3 1 -0.75
v -3 1 -1.061011
v -2.064983 1 -1.061011
v -0.875 0.5 -3
v -0.5 0.3 -3
v -0.5 0.3 -2.064983
v -0.875 0.5 -2.064983
v -0.5 0 -3
v -0.5 0 -2.064983
v -0.875 0.75 -2.064983
v -0.875 0.75 -3
v -0.75 0.875 -2.064983
v -0.75 0.875 -3
v -0.75 1 -2.064983
v -0.75 1 -3
v -1.061011 1 -3
v -1.061011 1 -2.064983
v -3 6 -3
v -2.692 6.8 -2.692
v -2.692 6.709237 -2.308
v -3 6 -2.15
v -2.15 6 -3
v -2.308 6.709237 -2.692
v -2.768 5 -2
v -2.768 6 -2
v -3 5 -2.15
v -2 5 -2
v -2 6 -2
v -2.308 6.632115 -2.308
v -2 5 -2.768
v -2 6 -2.768
v -2.15 5 -3
v -1.875 5.25 -2.2
v -1.875 5.25 -1.030902
v -3 5.25 -1.030902
v -3 5.25 -2.2
v -1.875 4.740915 -1.030902
v -3 4.740915 -1.030902
v -1.875 4.471957 -1.23545
v -3 4.471957 -1.23545
v -2.2 5.25 -1.875
v -1.030902 5.25 -1.875
v -1.030902 5.25 -3
v -2.2 5.25 -3
v -1.030902 4.740915 -1.875
v -1.030902 4.740915 -3
v -1.23545 4.471957 -1.875
v -1.23545 4.471957 -3
v -3 0 3
v 3 0 3
v 3 0 -3
v -3 0 -3
v -0.5 1.500001 -0.5
v -0.25 1E-06 -0.25
v -2 1.500001 -0.5
v -0.5 1.500001 -0.5
v -0.5 1.500001 -0.5
v -0.625 1.65 -0.625
v -0.5 1.500001 -2
v -1.875 1.65 -0.625
v -0.625 1.65 -0.625
v -0.625 1.65 -0.625
v -1.027821 4.065525 -1.027821
v -0.625 1.65 -1.875
v -1.875 4.065525 -1.027821
v -1.027821 4.065525 -1.027821
v -1.027821 4.065525 -1.027821
v -0.701411 4.334475 -0.701411
v -1.027821 4.065525 -1.875
v -2.201411 4.334475 -0.701411
v -0.701411 4.334475 -0.701411
v -0.701411 4.334475 -0.701411
v -0.633911 4.496159 -0.633911
v -0.701411 4.334475 -2.201411
v -2.26891 4.496159 -0.633911
v -0.633911 4.496159 -0.633911
v -0.633911 4.496159 -0.633911
v -0.633911 5.5 -0.633911
v -0.633911 4.496159 -2.26891
v -0.633911 4.496159 -2.26891
v -0.633911 5.5 -2.26891
v -2.26891 4.496159 -2.26891
v -2.26891 5.5 -2.26891
v -2.26891 5.5 -0.633911
v -2.26891 4.496159 -0.633911
v -2.26891 5.5 -0.633911
v -0.633911 5.5 -0.633911
v -0.633911 5.5 -0.633911
v -0.701411 5.656 -0.701411
v -0.633911 5.5 -2.26891
v -0.633911 5.5 -2.26891
v -0.701411 5.656 -2.201411
v -2.26891 5.5 -2.26891
v -2.26891 5.5 -2.26891
v -2.201411 5.656 -2.201411
v -2.201411 5.656 -0.701411
v -2.26891 5.5 -0.633911
v -2.201411 5.656 -0.701411
v -0.701411 5.656 -0.701411
v -0.701411 5.656 -0.701411
v -1.451411 6 -1.451411
v -0.701411 5.656 -2.201411
v -0.701411 5.656 -2.201411
v -1.451411 6 -1.451411
v -2.201411 5.656 -2.201411
v -2.201411 5.656 -2.201411
v -1.451411 6 -1.451411
v -2.201411 5.656 -0.701411
v -0.701411 4.334475 -2.201411
v -0.633911 4.496159 -2.26891
v -1.027821 4.065525 -1.875
v -0.701411 4.334475 -2.201411
v -1.2 4.334475 -2.201411
v -0.625 1.65 -1.875
v -1.027821 4.065525 -1.875
v -1.2 4.065525 -1.875
v -0.5 1.500001 -2
v -0.25 1E-06 -2.25
v -0.5 1.500001 -2
v -0.625 1.65 -1.875
v -1.2 1.65 -1.875
v -1.2 1.500001 -2
v -1.875 1.65 -0.625
v -2 1.500001 -0.5
v -2.25 1E-06 -0.25
v -2 1.500001 -1.2
v -2 1.500001 -0.5
v -1.875 1.65 -1.2
v -1.875 4.065525 -1.027821
v -1.875 1.65 -0.625
v -1.875 4.065525 -1.2
v -2.201411 4.334475 -0.701411
v -1.875 4.065525 -1.027821
v -2.201411 4.334475 -1.2
v -2.26891 4.496159 -0.633911
v -2.201411 4.334475 -0.701411
v -1.25 5 -1.25
v -1 0 -1
v -3 0.3 -0.5
v -2.064983 0.3 -0.5
v -3 0.5 -0.875
v -2.064983 0.5 -0.875
v -2.064983 0.75 -0.875
v -3 0.75 -0.875
v -2.064983 0.875 -0.75
v -3 0.875 -0.75
v -2.064983 1 -0.75
v -3 1 -0.75
v -0.5 0.3 -2.064983
v -0.5 0.3 -3
v -0.875 0.5 -3
v -0.875 0.5 -2.064983
v -0.875 0.75 -3
v -0.875 0.75 -2.064983
v -0.75 0.875 -3
v -0.75 0.875 -2.064983
v -0.75 1 -3
v -0.75 1 -2.064983
v -2.692 6.8 -2.692
v -3 6 -3
v -3 6 -2.15
v -2.768 5 -2
v -2.768 6 -2
v -3 6 -2.15
v -2.692 6.709237 -2.308
v -2.768 6 -2
v -2.768 6 -2
v -2.692 6.709237 -2.308
v -2 6 -2
v -2 5 -2
v -2 6 -2
v -2 5 -2.768
v -2 6 -2.768
v -2.15 6 -3
v -2.308 6.709237 -2.692
v -2.15 6 -3
v -2 6 -2.768
v -2.308 6.709237 -2.692
v -2 6 -2.768
v -2 6 -2
v -2.308 6.632115 -2.308
v -2.308 6.632115 -2.308
v -2.692 6.8 -2.692
v -2.308 6.709237 -2.692
v -2.692 6.709237 -2.308
v -3 5.25 -1.030902
v -1.875 5.25 -1.030902
v -3 4.740915 -1.030902
v -1.875 4.740915 -1.030902
v -1.030902 5.25 -1.875
v -1.030902 5.25 -3
v -1.030902 4.740915 -1.875
v -1.030902 4.740915 -3

vn 0.986394 0.164399 0
vn 0.986394 0.164399 0
vn 0 0.164399 0.986394
vn 0 0.164399 0.986394
vn 0 0.164399 0.986394
vn 0 0.164399 0.986394
vn 0 0.6401869 0.7682192
vn 0 0.6401869 0.7682192
vn 0.7682192 0.6401869 0
vn 0 0.1644917 0.9863784
vn 0 0.1644917 0.9863784
vn 0.9863784 0.1644917 0
vn 0 -0.7717657 0.635907
vn 0 -0.7717656 0.635907
vn 0.635907 -0.7717656 0
vn 0 -0.3852555 0.9228099
vn 0 -0.3852555 0.92281
vn 0.92281 -0.3852555 0
vn 0 0 -1
vn 0 0 1
vn 0 0 1
vn 1 0 0
vn 0 0 -1
vn 0 0.3971118 0.9177703
vn 0 0.3971118 0.9177703
vn 0.9177703 0.3971118 0
vn 0 0.3971064 -0.9177725
vn 0 0.9089502 0.416905
vn 0 -0.3852503 -0.9228122
vn 0 -0.3852503 -0.9228122
vn 0 -0.7717667 -0.6359057
vn 0 0 -1
vn 0 0.164399 -0.986394
vn 0 0.164399 -0.986394
vn -0.7682192 0.6401869 0
vn -0.7682192 0.6401869 0
vn -0.986394 0.164399 0
vn -1 0 0
vn -0.6359057 -0.7717667 0
vn -0.9228122 -0.3852503 0
vn 0 0.04993762 0.9987524
vn 0 0.04993762 0.9987524
vn 0 0.04993761 0.9987524
vn 0 0.04993761 0.9987524
vn 0.9987524 0.04993761 0
vn 0.9987524 0.04993761 0
vn 0 0.8823529 0.4705883
vn 0 0.8823529 0.4705883
vn 0 0.8823529 0.4705883
vn 0 0.8823529 0.4705883
vn 0 0 1
vn 0 0 1
vn 0 0 1
vn 0 0 1
vn 0 -0.7071068 0.7071068
vn 0 -0.7071068 0.7071068
vn 0 0 1
vn 0 0 1
vn 0 1 0
vn 0 1 0
vn 0.4705883 0.8823529 0
vn 0.4705883 0.8823529 0
vn 0.4705883 0.8823529 0
vn 0.4705883 0.8823529 0
vn 1 0 0
vn 1 0 0
vn 1 0 0
vn 1 0 0
vn 0.7071068 -0.7071068 0
vn 0.7071068 -0.7071068 0
vn 1 0 0
vn 1 0 0
vn 0 1 0
vn 0 1 0
vn -0.926455 0.3753915 0.02761077
vn -0.926455 0.3753915 0.02761076
vn -0.926455 0.3753915 0.02761077
vn -0.926455 0.3753914 0.02761076
vn 0.02761079 0.3753915 -0.926455
vn 0.02761079 0.3753915 -0.926455
vn -0.5429511 0 0.8397644
vn -0.5429511 0 0.8397644
vn -0.5429511 0 0.8397644
vn 0 0 1
vn 0 0 1
vn 0.02819728 0.4211917 0.9065332
vn 1 0 0
vn 1 0 0
vn 0.8397644 0 -0.5429511
vn 0 1 0
vn 0 1 0
vn 0 1 0
vn 0 1 0
vn 0 0 1
vn 0 0 1
vn 0 -0.6053463 0.7959623
vn 0 -0.6053463 0.7959623
vn 0 1 0
vn 0 1 0
vn 0 1 0
vn 0 1 0
vn 1 0 0
vn 1 0 0
vn 0.7959623 -0.6053463 0
vn 0.7959623 -0.6053463 0
vn 0 1 0
vn 0 1 0
vn 0 1 0
vn 0 1 0
vn 0.986394 0.164399 0
vn 0.986394 0.164399 0
vn 0 0.6401869 0.7682192
vn 0 0.6401869 0.7682192
vn 0.7682192 0.6401869 0
vn 0.7682192 0.6401869 0
vn 0.7682192 0.6401869 0
vn 0 0.1644917 0.9863784
vn 0 0.1644917 0.9863784
vn 0.9863784 0.1644917 0
vn 0.9863784 0.1644917 0
vn 0.9863784 0.1644917 0
vn 0 -0.7717657 0.635907
vn 0 -0.7717657 0.635907
vn 0.6359071 -0.7717656 0
vn 0.635907 -0.7717656 0
vn 0.635907 -0.7717656 0
vn 0 -0.3852555 0.9228099
vn 0 -0.3852555 0.9228099
vn 0.9228099 -0.3852555 0
vn 0.9228099 -0.3852555 0
vn 0.9228099 -0.3852555 0
vn 0 0 1
vn 0 0 1
vn 1 0 0
vn 1 0 0
vn 1 0 0
vn 0 0 -1
vn 0 0 -1
vn -1 0 0
vn -1 0 0
vn -1 0 0
vn -1 0 0
vn 0 0.3971118 0.9177703
vn 0 0.3971118 0.9177703
vn 0.9177703 0.3971118 0
vn 0.9177703 0.3971118 0
vn 0.9177703 0.3971118 0
vn 0 0.3971064 -0.9177725
vn 0 0.3971064 -0.9177725
vn 0 0.3971064 -0.9177725
vn -0.9177725 0.3971064 0
vn -0.9177725 0.3971064 0
vn -0.9177725 0.3971064 0
vn -0.9177725 0.3971064 0
vn 0 0.9089502 0.416905
vn 0 0.9089502 0.416905
vn 0.416905 0.9089502 0
vn 0.416905 0.9089502 0
vn 0.416905 0.9089502 0
vn 0 0.9089502 -0.416905
vn 0 0.9089502 -0.416905
vn 0 0.9089502 -0.416905
vn -0.416905 0.9089502 0
vn -0.416905 0.9089502 0
vn -0.416905 0.9089502 0
vn 0 -0.3852502 -0.9228122
vn 0 -0.3852503 -0.9228122
vn 0 -0.7717667 -0.6359057
vn 0 -0.7717667 -0.6359057
vn 0 -0.7717667 -0.6359057
vn 0 0 -1
vn 0 0 -1
vn 0 0 -1
vn 0 0.164399 -0.986394
vn 0 0.164399 -0.986394
vn 0 0.640187 -0.7682192
vn 0 0.640187 -0.7682192
vn 0 0.6401869 -0.7682192
vn 0 0.6401869 -0.7682192
vn -0.7682192 0.640187 0
vn -0.7682192 0.640187 0
vn -0.986394 0.164399 0
vn -0.986394 0.164399 0
vn -0.986394 0.164399 0
vn -1 0 0
vn -1 0 0
vn -1 0 0
vn -0.6359057 -0.7717667 0
vn -0.6359057 -0.7717668 0
vn -0.6359057 -0.7717667 0
vn -0.9228122 -0.3852503 0
vn -0.9228122 -0.3852503 0
vn -0.9228122 -0.3852502 0
vn 0.9987524 0.04993762 0
vn 0.9987524 0.04993762 0
vn 0 0 1
vn 0 0 1
vn 0 0 1
vn 0 0 1
vn 0 -0.7071068 0.7071068
vn 0 -0.7071068 0.7071068
vn 0 0 1
vn 0 0 1
vn 0 1 0
vn 0 1 0
vn 1 0 0
vn 1 0 0
vn 1 0 0
vn 1 0 0
vn 0.7071068 -0.7071068 0
vn 0.7071068 -0.7071068 0
vn 1 0 0
vn 1 0 0
vn 0 1 0
vn 0 1 0
vn 0.02761079 0.3753915 -0.926455
vn 0.02761079 0.3753915 -0.926455
vn -0.5429511 0 0.8397644
vn 0 0 1
vn 0 0 1
vn -0.5000782 0.3894747 0.7734541
vn -0.5000782 0.3894747 0.7734541
vn -0.5000782 0.3894747 0.7734542
vn 0.02819728 0.4211916 0.9065332
vn 0.02819728 0.4211917 0.9065332
vn 0.02819728 0.4211917 0.9065332
vn 1 0 0
vn 1 0 0
vn 0.8397644 0 -0.5429511
vn 0.8397644 0 -0.5429511
vn 0.8397644 0 -0.5429511
vn 0.7734541 0.3894747 -0.5000782
vn 0.7734542 0.3894747 -0.5000782
vn 0.7734542 0.3894747 -0.5000781
vn 0.9065331 0.4211918 0.02819728
vn 0.9065331 0.4211917 0.02819728
vn 0.9065331 0.4211918 0.02819728
vn 0.9065331 0.4211918 0.02819728
vn 0.2257526 0.9551122 0.191824
vn 0.2257525 0.9551122 0.191824
vn 0.2257526 0.9551122 0.191824
vn 0.191824 0.9551122 0.2257526
vn 0 0 1
vn 0 0 1
vn 0 -0.6053463 0.7959623
vn 0 -0.6053463 0.7959623
vn 1 0 0
vn 1 0 0
vn 0.7959623 -0.6053463 0
vn 0.7959623 -0.6053463 0

vt 0.86182 0.960695
vt 0.859063 0.957938
vt 0.839765 0.938639
vt 0.86182 0.938639
vt 0.842522 0.941396
vt 0.859063 0.941396
vt 0.857685 0.942775
vt 0.8439 0.942775
vt 0.857685 0.95656
vt 0.553552 0.945814
vt 0.538462 0.945814
vt 0.553552 0.960904
vt 0.856842 0.943618
vt 0.8403 0.943618
vt 0.856842 0.960159
vt 0.857587 0.942873
vt 0.839556 0.942873
vt 0.857587 0.960904
vt 0.839556 0.960904
vt 0.857587 0.942873
vt 0.839556 0.942873
vt 0.857587 0.960904
vt 0.839556 0.960904
vt 0.856842 0.943618
vt 0.8403 0.943618
vt 0.856842 0.960159
vt 0.8403 0.960159
vt 0.848571 0.951888
vt 0.851344 0.960159
vt 0.851344 0.960904
vt 0.851344 0.95656
vt 0.550485 0.960904
vt 0.851344 0.960695
vt 0.851344 0.957938
vt 0.842522 0.949116
vt 0.8439 0.949116
vt 0.839765 0.949116
vt 0.538462 0.948881
vt 0.8403 0.949116
vt 0.839556 0.949116
vt 0.76027 0.937444
vt 0.756675 0.941039
vt 0.731507 0.941039
vt 0.731507 0.937444
vt 0.76027 0.966207
vt 0.756675 0.966207
vt 0.834367 0.949331
vt 0.834367 0.937685
vt 0.863405 0.937685
vt 0.863405 0.949331
vt 0.834367 0.937685
vt 0.863405 0.937685
vt 0.863405 0.949331
vt 0.834367 0.949331
vt 0.863405 0.945449
vt 0.834367 0.945449
vt 0.863405 0.945449
vt 0.834367 0.945449
vt 0.834367 0.955108
vt 0.863405 0.955108
vt 0.863405 0.955108
vt 0.863405 0.955108
vt 0.863405 0.955108
vt 0.863405 0.955108
vt 0.863405 0.955108
vt 0.863405 0.955108
vt 0.863405 0.955108
vt 0.863405 0.955108
vt 0.863405 0.955108
vt 0.863405 0.955108
vt 0.863405 0.955108
vt 0.863405 0.955108
vt 0.863405 0.955108
vt 0.863405 0.955108
vt 0.042165 0.959803
vt 0.048427 0.95354
vt 0.048427 0.945732
vt 0.042165 0.942519
vt 0.059449 0.959803
vt 0.056236 0.95354
vt 0.046882 0.939469
vt 0.046882 0.939469
vt 0.042165 0.942519
vt 0.062499 0.939469
vt 0.062499 0.939469
vt 0.056236 0.945732
vt 0.062499 0.955086
vt 0.062499 0.955086
vt 0.059449 0.959803
vt 0.957643 0.95935
vt 0.957643 0.935747
vt 0.937454 0.935747
vt 0.937454 0.95935
vt 0.957643 0.935747
vt 0.937454 0.935747
vt 0.957643 0.939877
vt 0.937454 0.939877
vt 0.957643 0.95935
vt 0.957643 0.935747
vt 0.937454 0.935747
vt 0.937454 0.95935
vt 0.957643 0.935747
vt 0.937454 0.935747
vt 0.957643 0.939877
vt 0.937454 0.939877
vt 0.01 0.01
vt 0.89 0.01
vt 0.89 0.89
vt 0.01 0.89
vt 0.859063 0.941396
vt 0.86182 0.938639
vt 0.842522 0.941396
vt 0.859063 0.941396
vt 0.859063 0.941396
vt 0.857685 0.942775
vt 0.859063 0.957938
vt 0.538462 0.938639
vt 0.560727 0.938639
vt 0.560727 0.938639
vt 0.553552 0.945814
vt 0.560727 0.960904
vt 0.8439 0.947217
vt 0.853243 0.947217
vt 0.853243 0.947217
vt 0.856842 0.943618
vt 0.853243 0.95656
vt 0.8403 0.943618
vt 0.856842 0.943618
vt 0.856842 0.943618
vt 0.857587 0.942873
vt 0.856842 0.960159
vt 0.839556 0.942873
vt 0.857587 0.942873
vt 0.857587 0.942873
vt 0.857587 0.942873
vt 0.857587 0.960904
vt 0.857587 0.960904
vt 0.857587 0.960904
vt 0.839556 0.960904
vt 0.839556 0.960904
vt 0.839556 0.942873
vt 0.839556 0.942873
vt 0.839556 0.942873
vt 0.857587 0.942873
vt 0.857587 0.942873
vt 0.856842 0.943618
vt 0.857587 0.960904
vt 0.857587 0.960904
vt 0.856842 0.960159
vt 0.839556 0.960904
vt 0.839556 0.960904
vt 0.8403 0.960159
vt 0.8403 0.943618
vt 0.839556 0.942873
vt 0.8403 0.943618
vt 0.856842 0.943618
vt 0.856842 0.943618
vt 0.848571 0.951888
vt 0.856842 0.960159
vt 0.856842 0.960159
vt 0.848571 0.951888
vt 0.8403 0.960159
vt 0.8403 0.960159
vt 0.848571 0.951888
vt 0.8403 0.943618
vt 0.856842 0.960159
vt 0.857587 0.960904
vt 0.853243 0.95656
vt 0.856842 0.960159
vt 0.851344 0.960159
vt 0.560727 0.960904
vt 0.553552 0.960904
vt 0.550485 0.960904
vt 0.859063 0.957938
vt 0.86182 0.960695
vt 0.859063 0.957938
vt 0.857685 0.95656
vt 0.851344 0.95656
vt 0.851344 0.957938
vt 0.8439 0.942775
vt 0.842522 0.941396
vt 0.839765 0.938639
vt 0.842522 0.949116
vt 0.842522 0.941396
vt 0.538462 0.948881
vt 0.538462 0.945814
vt 0.538462 0.938639
vt 0.8439 0.949116
vt 0.8403 0.943618
vt 0.8439 0.947217
vt 0.8403 0.949116
vt 0.839556 0.942873
vt 0.8403 0.943618
vt 0.756675 0.941039
vt 0.76027 0.937444
vt 0.834367 0.937685
vt 0.863405 0.937685
vt 0.834367 0.949331
vt 0.863405 0.949331
vt 0.863405 0.949331
vt 0.834367 0.949331
vt 0.863405 0.945449
vt 0.834367 0.945449
vt 0.863405 0.945449
vt 0.834367 0.945449
vt 0.863405 0.955108
vt 0.863405 0.955108
vt 0.863405 0.955108
vt 0.863405 0.955108
vt 0.863405 0.955108
vt 0.863405 0.955108
vt 0.863405 0.955108
vt 0.863405 0.955108
vt 0.863405 0.955108
vt 0.863405 0.955108
vt 0.048427 0.95354
vt 0.042165 0.959803
vt 0.042165 0.942519
vt 0.046882 0.939469
vt 0.046882 0.939469
vt 0.042165 0.942519
vt 0.048427 0.945732
vt 0.046882 0.939469
vt 0.046882 0.939469
vt 0.048427 0.945732
vt 0.062499 0.939469
vt 0.062499 0.939469
vt 0.062499 0.939469
vt 0.062499 0.955086
vt 0.062499 0.955086
vt 0.059449 0.959803
vt 0.056236 0.95354
vt 0.059449 0.959803
vt 0.062499 0.955086
vt 0.056236 0.95354
vt 0.062499 0.955086
vt 0.062499 0.939469
vt 0.056236 0.945732
vt 0.056236 0.945732
vt 0.048427 0.95354
vt 0.056236 0.95354
vt 0.048427 0.945732
vt 0.937454 0.935747
vt 0.957643 0.935747
vt 0.937454 0.935747
vt 0.957643 0.935747
vt 0.957643 0.935747
vt 0.937454 0.935747
vt 0.957643 0.935747
vt 0.937454 0.935747

usemtl Palette
usemap Palette
f 3/3/3 4/4/4 5/5/5
f 5/5/5 4/4/4 6/6/6
f 2/2/2 110/110/110 1/1/1
f 1/1/1 110/110/110 111/111/111
f 8/8/8 112/112/112 7/7/7
f 7/7/7 112/112/112 113/113/113
f 115/115/115 114/114/114 9/9/9
f 9/9/9 114/114/114 116/116/116
f 11/11/11 117/117/117 10/10/10
f 10/10/10 117/117/117 118/118/118
f 120/120/120 119/119/119 12/12/12
f 12/12/12 119/119/119 121/121/121
f 14/14/14 122/122/122 13/13/13
f 13/13/13 122/122/122 123/123/123
f 125/125/125 124/124/124 15/15/15
f 15/15/15 124/124/124 126/126/126
f 17/17/17 127/127/127 16/16/16
f 16/16/16 127/127/127 128/128/128
f 130/130/130 129/129/129 18/18/18
f 18/18/18 129/129/129 131/131/131
f 21/21/21 132/132/132 20/20/20
f 20/20/20 132/132/132 133/133/133
f 135/135/135 134/134/134 22/22/22
f 22/22/22 134/134/134 136/136/136
f 138/138/138 137/137/137 23/23/23
f 23/23/23 137/137/137 19/19/19
f 140/140/140 139/139/139 141/141/141
f 141/141/141 139/139/139 142/142/142
f 25/25/25 143/143/143 24/24/24
f 24/24/24 143/143/143 144/144/144
f 146/146/146 145/145/145 26/26/26
f 26/26/26 145/145/145 147/147/147
f 149/149/149 148/148/148 27/27/27
f 27/27/27 148/148/148 150/150/150
f 152/152/152 151/151/151 153/153/153
f 153/153/153 151/151/151 154/154/154
f 28/28/28 155/155/155 156/156/156
f 158/158/158 157/157/157 159/159/159
f 161/161/161 160/160/160 162/162/162
f 164/164/164 163/163/163 165/165/165
f 167/167/167 166/166/166 30/30/30
f 30/30/30 166/166/166 29/29/29
f 169/169/169 168/168/168 170/170/170
f 170/170/170 168/168/168 31/31/31
f 172/172/172 171/171/171 173/173/173
f 173/173/173 171/171/171 32/32/32
f 34/34/34 174/174/174 33/33/33
f 33/33/33 174/174/174 175/175/175
f 177/177/177 176/176/176 178/178/178
f 178/178/178 176/176/176 179/179/179
f 36/36/36 35/35/35 180/180/180
f 180/180/180 35/35/35 181/181/181
f 37/37/37 182/182/182 183/183/183
f 183/183/183 182/182/182 184/184/184
f 38/38/38 185/185/185 186/186/186
f 186/186/186 185/185/185 187/187/187
f 39/39/39 188/188/188 189/189/189
f 189/189/189 188/188/188 190/190/190
f 40/40/40 191/191/191 192/192/192
f 192/192/192 191/191/191 193/193/193
f 44/44/44 41/41/41 43/43/43
f 43/43/43 41/41/41 42/42/42
f 46/46/46 194/194/194 45/45/45
f 45/45/45 194/194/194 195/195/195
f 50/50/50 47/47/47 49/49/49
f 49/49/49 47/47/47 48/48/48
f 197/197/197 196/196/196 52/52/52
f 52/52/52 196/196/196 51/51/51
f 54/54/54 198/198/198 53/53/53
f 53/53/53 198/198/198 199/199/199
f 201/201/201 200/200/200 56/56/56
f 56/56/56 200/200/200 55/55/55
f 203/203/203 202/202/202 58/58/58
f 58/58/58 202/202/202 57/57/57
f 60/60/60 59/59/59 204/204/204
f 204/204/204 59/59/59 205/205/205
f 61/61/61 64/64/64 62/62/62
f 62/62/62 64/64/64 63/63/63
f 207/207/207 206/206/206 65/65/65
f 65/65/65 206/206/206 66/66/66
f 208/208/208 68/68/68 209/209/209
f 209/209/209 68/68/68 67/67/67
f 211/211/211 210/210/210 69/69/69
f 69/69/69 210/210/210 70/70/70
f 213/213/213 212/212/212 71/71/71
f 71/71/71 212/212/212 72/72/72
f 73/73/73 74/74/74 214/214/214
f 214/214/214 74/74/74 215/215/215
f 78/78/78 77/77/77 75/75/75
f 75/75/75 77/77/77 76/76/76
f 80/80/80 79/79/79 216/216/216
f 216/216/216 79/79/79 217/217/217
f 83/83/83 81/81/81 218/218/218
f 218/218/218 81/81/81 82/82/82
f 219/219/219 84/84/84 220/220/220
f 220/220/220 84/84/84 85/85/85
f 222/222/222 221/221/221 223/223/223
f 225/225/225 224/224/224 86/86/86
f 86/86/86 224/224/224 226/226/226
f 227/227/227 87/87/87 228/228/228
f 228/228/228 87/87/87 88/88/88
f 229/229/229 89/89/89 230/230/230
f 230/230/230 89/89/89 231/231/231
f 233/233/233 232/232/232 234/234/234
f 236/236/236 235/235/235 237/237/237
f 237/237/237 235/235/235 238/238/238
f 240/240/240 239/239/239 241/241/241
f 239/239/239 240/240/240 242/242/242
f 90/90/90 93/93/93 91/91/91
f 91/91/91 93/93/93 92/92/92
f 244/244/244 243/243/243 94/94/94
f 94/94/94 243/243/243 95/95/95
f 246/246/246 245/245/245 96/96/96
f 96/96/96 245/245/245 97/97/97
f 101/101/101 98/98/98 100/100/100
f 100/100/100 98/98/98 99/99/99
f 248/248/248 247/247/247 103/103/103
f 103/103/103 247/247/247 102/102/102
f 250/250/250 249/249/249 105/105/105
f 105/105/105 249/249/249 104/104/104
f 108/108/108 106/106/106 107/107/107
f 109/109/109 106/106/106 108/108/108
