mtllib ./Palette.mtl
g Palette
v -0.15 -0.72719 -2.0049
v 0.15 -0.72719 -2.0049
v -0.15 -0.22719 -2.0049
v 0.15 -0.22719 -2.0049
v -0.15 -0.72719 -1.8049
v 0.15 -0.72719 -1.8049
v -0.15 -0.22719 -1.8049
v 0.15 -0.22719 -1.8049
v -0.15 -0.294667 -0.589284
v 0.15 -0.294667 -0.589284
v -0.15 -0.094667 -0.589284
v 0.15 -0.094667 -0.589284
v -0.15 -0.294667 0.110716
v 0.15 -0.294667 0.110716
v -0.15 -0.094667 0.110716
v 0.15 -0.094667 0.110716
v -0.15 -0.744667 -0.589284
v 0.15 -0.744667 -0.589284
v -0.15 -0.544667 -0.589284
v 0.15 -0.544667 -0.589284
v -0.15 -0.744667 0.110716
v 0.15 -0.744667 0.110716
v -0.15 -0.544667 0.110716
v 0.15 -0.544667 0.110716
v -0.025 -1.87719 -1.670106
v 0.025 -1.87719 -1.670106
v -0.025 1.776837 -1.670106
v 0.025 1.776837 -1.670106
v -0.1 -1.87719 -1.765106
v 0.1 -1.87719 -1.765106
v 0.1 1.819917 -1.765106
v -0.1 1.819917 -1.765106
v 0.1 -1.87719 -1.290106
v 0.1 1.610955 -1.290106
v -0.1 1.610955 -1.290106
v -0.1 -1.87719 -1.290106
v 0.025 -1.87719 -1.195106
v 0.025 1.545583 -1.195106
v -0.025 1.545583 -1.195106
v -0.025 -1.87719 -1.195106
v 0.1 -1.87719 -0.815106
v 0.1 1.20975 -0.815106
v -0.1 1.20975 -0.815106
v -0.1 -1.87719 -0.815106
v 0.025 -1.87719 -0.720106
v 0.025 1.077784 -0.720106
v -0.025 1.077784 -0.720106
v -0.025 -1.87719 -0.720106
v 0.1 1.468277 -1.100106
v 0.1 -1.87719 -1.100106
v -0.1 1.468277 -1.100106
v -0.1 -1.87719 -1.100106
v 0.1 1.754882 -1.575106
v 0.1 -1.87719 -1.575106
v -0.1 1.754882 -1.575106
v -0.1 -1.87719 -1.575106
v -0.1 -1.87719 -2.050106
v 0.1 -1.87719 -2.050106
v 0.1 1.87719 -2.050106
v -0.1 1.87719 -2.050106
v 0.1 -1.012046 -0.625106
v 0.1 -0.936643 -0.340106
v -0.1 -0.936643 -0.340106
v -0.1 -1.012046 -0.625106
v -0.1 1.036517 -0.625106
v -0.1 0.695816 -0.340106
v 0.1 0.695816 -0.340106
v 0.1 1.036517 -0.625106
v -0.025 -1.039698 -0.720106
v 0.025 -1.039698 -0.720106
v 0 -1.87719 -2.145106
v 0 1.87719 -2.145106
v 0 0.545249 -0.245106
v 0 -0.918506 -0.245106
v 0.15 -0.72719 -1.8049
v 0.15 -0.72719 -2.0049
v -0.15 -0.72719 -2.0049
v -0.15 -0.72719 -1.8049
v 0.15 -0.22719 -1.8049
v 0.15 -0.22719 -2.0049
v 0.15 -0.72719 -2.0049
v 0.15 -0.72719 -1.8049
v -0.15 -0.22719 -1.8049
v -0.15 -0.22719 -2.0049
v 0.15 -0.22719 -2.0049
v 0.15 -0.22719 -1.8049
v -0.15 -0.72719 -1.8049
v -0.15 -0.72719 -2.0049
v -0.15 -0.22719 -2.0049
v -0.15 -0.22719 -1.8049
v 0.15 -0.294667 0.110716
v 0.15 -0.294667 -0.589284
v -0.15 -0.294667 -0.589284
v -0.15 -0.294667 0.110716
v 0.15 -0.094667 0.110716
v 0.15 -0.094667 -0.589284
v 0.15 -0.294667 -0.589284
v 0.15 -0.294667 0.110716
v -0.15 -0.094667 0.110716
v -0.15 -0.094667 -0.589284
v 0.15 -0.094667 -0.589284
v 0.15 -0.094667 0.110716
v -0.15 -0.294667 0.110716
v -0.15 -0.294667 -0.589284
v -0.15 -0.094667 -0.589284
v -0.15 -0.094667 0.110716
v 0.15 -0.744667 0.110716
v 0.15 -0.744667 -0.589284
v -0.15 -0.744667 -0.589284
v -0.15 -0.744667 0.110716
v 0.15 -0.544667 0.110716
v 0.15 -0.544667 -0.589284
v 0.15 -0.744667 -0.589284
v 0.15 -0.744667 0.110716
v -0.15 -0.544667 0.110716
v -0.15 -0.544667 -0.589284
v 0.15 -0.544667 -0.589284
v 0.15 -0.544667 0.110716
v -0.15 -0.744667 0.110716
v -0.15 -0.744667 -0.589284
v -0.15 -0.544667 -0.589284
v -0.15 -0.544667 0.110716
v 0.1 -1.87719 -1.765106
v 0.025 -1.87719 -1.670106
v 0.1 1.819917 -1.765106
v 0.025 1.776837 -1.670106
v -0.025 -1.87719 -1.670106
v -0.1 -1.87719 -1.765106
v -0.1 1.819917 -1.765106
v -0.025 1.776837 -1.670106
v 0.1 -1.87719 -1.765106
v 0.1 1.819917 -1.765106
v 0.1 -1.87719 -2.050106
v 0.1 1.819917 -1.765106
v -0.1 1.819917 -1.765106
v 0.1 1.87719 -2.050106
v -0.1 1.819917 -1.765106
v -0.1 -1.87719 -1.765106
v -0.1 -1.87719 -2.050106
v -0.1 1.87719 -2.050106
v 0.025 -1.87719 -1.670106
v 0.025 1.776837 -1.670106
v 0.025 1.776837 -1.670106
v 0.1 1.754882 -1.575106
v -0.025 1.776837 -1.670106
v -0.025 1.776837 -1.670106
v -0.1 1.754882 -1.575106
v -0.025 -1.87719 -1.670106
v -0.1 -1.87719 -1.575106
v 0.1 -1.87719 -1.575106
v 0.1 1.610955 -1.290106
v 0.025 1.545583 -1.195106
v -0.1 1.610955 -1.290106
v -0.025 1.545583 -1.195106
v -0.1 -1.87719 -1.290106
v -0.025 -1.87719 -1.195106
v 0.025 -1.87719 -1.195106
v 0.1 -1.87719 -1.290106
v 0.025 -1.87719 -1.195106
v 0.025 1.545583 -1.195106
v 0.025 1.545583 -1.195106
v 0.1 1.468277 -1.100106
v -0.025 1.545583 -1.195106
v -0.025 1.545583 -1.195106
v -0.1 1.468277 -1.100106
v -0.025 -1.87719 -1.195106
v -0.1 -1.87719 -1.100106
v 0.1 -1.87719 -1.100106
v 0.1 1.20975 -0.815106
v 0.025 1.077784 -0.720106
v -0.1 1.20975 -0.815106
v -0.025 1.077784 -0.720106
v -0.1 -1.87719 -0.815106
v -0.025 -1.87719 -0.720106
v 0.025 -1.87719 -0.720106
v 0.1 -1.87719 -0.815106
v 0.1 1.468277 -1.100106
v 0.1 -1.87719 -1.100106
v 0.1 -1.87719 -0.815106
v 0.1 1.20975 -0.815106
v -0.1 1.468277 -1.100106
v 0.1 1.468277 -1.100106
v 0.1 1.20975 -0.815106
v -0.1 1.20975 -0.815106
v -0.1 -1.87719 -1.100106
v -0.1 1.468277 -1.100106
v -0.1 1.20975 -0.815106
v -0.1 -1.87719 -0.815106
v 0.1 1.754882 -1.575106
v 0.1 -1.87719 -1.575106
v 0.1 -1.87719 -1.290106
v 0.1 1.610955 -1.290106
v -0.1 1.754882 -1.575106
v 0.1 1.754882 -1.575106
v 0.1 1.610955 -1.290106
v -0.1 1.610955 -1.290106
v -0.1 -1.87719 -1.575106
v -0.1 1.754882 -1.575106
v -0.1 1.610955 -1.290106
v -0.1 -1.87719 -1.290106
v 0.1 -1.87719 -2.050106
v 0.1 1.87719 -2.050106
v 0 -1.87719 -2.145106
v 0.1 1.87719 -2.050106
v -0.1 1.87719 -2.050106
v 0 1.87719 -2.145106
v -0.1 1.87719 -2.050106
v -0.1 -1.87719 -2.050106
v 0 -1.87719 -2.145106
v 0 1.87719 -2.145106
v 0.025 1.077784 -0.720106
v 0.1 1.036517 -0.625106
v -0.1 1.036517 -0.625106
v -0.025 1.077784 -0.720106
v 0.1 0.695816 -0.340106
v -0.1 0.695816 -0.340106
v -0.1 -0.936643 -0.340106
v 0.1 -0.936643 -0.340106
v 0.1 1.036517 -0.625106
v 0.1 -1.012046 -0.625106
v 0.1 -0.936643 -0.340106
v 0.1 0.695816 -0.340106
v -0.1 -1.012046 -0.625106
v -0.1 1.036517 -0.625106
v -0.1 0.695816 -0.340106
v -0.1 -0.936643 -0.340106
v 0.025 -1.039698 -0.720106
v 0.1 -1.012046 -0.625106
v 0.1 1.036517 -0.625106
v 0.025 1.077784 -0.720106
v 0.1 -0.936643 -0.340106
v 0 -0.918506 -0.245106
v 0 0.545249 -0.245106
v 0.1 0.695816 -0.340106
v -0.025 1.077784 -0.720106
v -0.1 1.036517 -0.625106
v -0.1 -1.012046 -0.625106
v -0.025 -1.039698 -0.720106
v -0.1 0.695816 -0.340106
v 0 0.545249 -0.245106
v 0 -0.918506 -0.245106
v -0.1 -0.936643 -0.340106
v -0.025 -1.87719 -0.720106
v -0.025 -1.039698 -0.720106
v 0.025 -1.039698 -0.720106
v 0.025 -1.87719 -0.720106

vn 0 0 -1
vn 0 0 -1
vn 0 0 -1
vn 0 0 -1
vn 0 0 1
vn 0 0 1
vn 0 0 1
vn 0 0 1
vn 0 0 -1
vn 0 0 -1
vn 0 0 -1
vn 0 0 -1
vn 0 0 1
vn 0 0 1
vn 0 0 1
vn 0 0 1
vn 0 0 -1
vn 0 0 -1
vn 0 0 -1
vn 0 0 -1
vn 0 0 1
vn 0 0 1
vn 0 0 1
vn 0 0 1
vn 0 -1 0
vn 0 -1 0
vn 0 0.9107338 0.4129939
vn 0.7848825 0 0.6196447
vn 0 -1 0
vn 0 -1 0
vn 0.7848825 0 0.6196447
vn 0 0.9107338 0.4129939
vn 0.7848828 0 0.6196442
vn 0.7848828 0 0.6196442
vn 0 0.823801 0.5668789
vn -0.7848828 0 0.6196442
vn 0.7848828 0 0.6196442
vn 0.7848828 0 0.6196442
vn 0 0.823801 0.5668789
vn -0.7848828 0 0.6196442
vn 0.7848827 0 0.6196444
vn 0.7848827 0 0.6196444
vn 0 0.5842414 0.8115799
vn -0.7848827 0 0.6196444
vn 0.7848827 0 0.6196444
vn 0.7848826 0 0.6196445
vn 0 0.5842414 0.8115799
vn -0.7848827 0 0.6196444
vn 0.7848829 0 -0.6196442
vn 0.7848829 0 -0.6196442
vn 0 0.7756402 0.6311752
vn -0.7848829 0 -0.6196442
vn 0.7848829 0 -0.6196442
vn 0.7848828 0 -0.6196442
vn 0 0.9743193 0.2251704
vn -0.7848828 0 -0.6196442
vn 0 -1 0
vn 0 -1 0
vn 1 0 0
vn 0 0.9803996 0.1970191
vn 0 -0.9660438 0.2583781
vn 0 -0.9667372 0.2557715
vn 0 -0.9667372 0.2557715
vn 0 -0.9660438 0.2583781
vn 0 0.6416215 0.7670214
vn 0 0.6416215 0.7670214
vn 0 0.6416215 0.7670214
vn 0 0.6416215 0.7670214
vn 0 -0.9601529 0.2794754
vn 0 -0.9601529 0.2794754
vn 0 -1 0
vn 0.6887496 0 -0.7249993
vn 0 0.5336118 0.8457296
vn 0 -0.9822592 0.1875285
vn 0 -1 0
vn 0 -1 0
vn 0 -1 0
vn 0 -1 0
vn 1 0 0
vn 1 0 0
vn 1 0 0
vn 1 0 0
vn 0 1 0
vn 0 1 0
vn 0 1 0
vn 0 1 0
vn -1 0 0
vn -1 0 0
vn -1 0 0
vn -1 0 0
vn 0 -1 0
vn 0 -1 0
vn 0 -1 0
vn 0 -1 0
vn 1 0 0
vn 1 0 0
vn 1 0 0
vn 1 0 0
vn 0 1 0
vn 0 1 0
vn 0 1 0
vn 0 1 0
vn -1 0 0
vn -1 0 0
vn -1 0 0
vn -1 0 0
vn 0 -1 0
vn 0 -1 0
vn 0 -1 0
vn 0 -1 0
vn 1 0 0
vn 1 0 0
vn 1 0 0
vn 1 0 0
vn 0 1 0
vn 0 1 0
vn 0 1 0
vn 0 1 0
vn -1 0 0
vn -1 0 0
vn -1 0 0
vn -1 0 0
vn 0.7848825 0 0.6196446
vn 0.7848825 0 0.6196446
vn 0 0.9107338 0.4129939
vn 0 0.9107338 0.4129939
vn -0.7848825 0 0.6196446
vn -0.7848825 0 0.6196446
vn -0.7848825 0 0.6196447
vn -0.7848825 0 0.6196447
vn 1 0 0
vn 1 0 0
vn 1 0 0
vn 0 0.9803996 0.1970191
vn 0 0.9803996 0.1970191
vn 0 0.9803996 0.1970191
vn -1 0 0
vn -1 0 0
vn -1 0 0
vn -1 0 0
vn 0.7848828 0 -0.6196442
vn 0.7848828 0 -0.6196442
vn 0 0.9743193 0.2251704
vn 0 0.9743193 0.2251704
vn 0 0.9743193 0.2251704
vn -0.7848828 0 -0.6196442
vn -0.7848829 0 -0.6196442
vn -0.7848828 0 -0.6196442
vn 0 -1 0
vn 0 -1 0
vn 0 0.823801 0.5668789
vn 0 0.823801 0.5668789
vn -0.7848828 0 0.6196442
vn -0.7848828 0 0.6196442
vn 0 -1 0
vn 0 -1 0
vn 0 -1 0
vn 0 -1 0
vn 0.7848829 0 -0.6196442
vn 0.7848829 0 -0.6196442
vn 0 0.7756403 0.6311752
vn 0 0.7756402 0.6311752
vn 0 0.7756403 0.6311752
vn -0.7848829 0 -0.6196442
vn -0.7848829 0 -0.6196442
vn -0.7848829 0 -0.6196442
vn 0 -1 0
vn 0 -1 0
vn 0 0.5842414 0.8115799
vn 0 0.5842414 0.8115799
vn -0.7848827 0 0.6196444
vn -0.7848826 0 0.6196445
vn 0 -1 0
vn 0 -1 0
vn 0 -1 0
vn 0 -1 0
vn 1 0 0
vn 1 0 0
vn 1 0 0
vn 1 0 0
vn 0 0.7406693 0.6718699
vn 0 0.7406693 0.6718699
vn 0 0.7406693 0.6718699
vn 0 0.7406693 0.6718699
vn -1 0 0
vn -1 0 0
vn -1 0 0
vn -1 0 0
vn 1 0 0
vn 1 0 0
vn 1 0 0
vn 1 0 0
vn 0 0.8926322 0.4507855
vn 0 0.8926322 0.4507855
vn 0 0.8926322 0.4507855
vn 0 0.8926322 0.4507855
vn -1 0 0
vn -1 0 0
vn -1 0 0
vn -1 0 0
vn 0.6887496 0 -0.7249993
vn 0.6887496 0 -0.7249993
vn 0.6887496 0 -0.7249993
vn 0 1 0
vn 0 1 0
vn 0 1 0
vn -0.6887496 0 -0.7249993
vn -0.6887496 0 -0.7249993
vn -0.6887496 0 -0.7249993
vn -0.6887496 0 -0.7249993
vn 0 0.9172022 0.398422
vn 0 0.9172022 0.3984221
vn 0 0.9172022 0.3984221
vn 0 0.9172022 0.398422
vn 0 0.5336118 0.8457296
vn 0 0.5336118 0.8457296
vn 0 -0.9822592 0.1875285
vn 0 -0.9822592 0.1875285
vn 1 0 0
vn 1 0 0
vn 1 0 0
vn 1 0 0
vn -1 0 0
vn -1 0 0
vn -1 0 0
vn -1 0 0
vn 0.7848829 0 -0.6196442
vn 0.7848828 0 -0.6196442
vn 0.7848828 0 -0.6196442
vn 0.7848829 0 -0.6196442
vn 0.6887495 0 0.7249994
vn 0.6887495 0 0.7249994
vn 0.6887496 0 0.7249994
vn 0.6887495 0 0.7249994
vn -0.7848829 0 -0.6196442
vn -0.7848828 0 -0.6196442
vn -0.7848828 0 -0.6196442
vn -0.7848829 0 -0.6196442
vn -0.6887495 0 0.7249994
vn -0.6887496 0 0.7249994
vn -0.6887495 0 0.7249994
vn -0.6887495 0 0.7249994
vn 0 0 1
vn 0 0 1
vn 0 0 1
vn 0 0 1

vt 0.947777 0.761633
vt 0.950696 0.761633
vt 0.947777 0.761633
vt 0.950696 0.761633
vt 0.947777 0.759687
vt 0.950696 0.759687
vt 0.947777 0.759687
vt 0.950696 0.759687
vt 0.947777 0.74786
vt 0.950696 0.74786
vt 0.947777 0.74786
vt 0.950696 0.74786
vt 0.947777 0.741049
vt 0.950696 0.741049
vt 0.947777 0.741049
vt 0.950696 0.741049
vt 0.947777 0.74786
vt 0.950696 0.74786
vt 0.947777 0.74786
vt 0.950696 0.74786
vt 0.947777 0.741049
vt 0.950696 0.741049
vt 0.947777 0.741049
vt 0.950696 0.741049
vt 0.943645 0.859851
vt 0.944553 0.859851
vt 0.943645 0.859851
vt 0.944553 0.859851
vt 0.942283 0.861576
vt 0.945915 0.861576
vt 0.945915 0.861576
vt 0.942283 0.861576
vt 0.945915 0.85295
vt 0.945915 0.85295
vt 0.942283 0.85295
vt 0.942283 0.85295
vt 0.944553 0.851225
vt 0.944553 0.851225
vt 0.943645 0.851225
vt 0.943645 0.851225
vt 0.945915 0.844324
vt 0.945915 0.844324
vt 0.942283 0.844324
vt 0.942283 0.844324
vt 0.944553 0.842599
vt 0.944553 0.842599
vt 0.943645 0.842599
vt 0.943645 0.842599
vt 0.945915 0.8495
vt 0.945915 0.8495
vt 0.942283 0.8495
vt 0.942283 0.8495
vt 0.945915 0.858126
vt 0.945915 0.858126
vt 0.942283 0.858126
vt 0.942283 0.858126
vt 0.942283 0.866751
vt 0.945915 0.866751
vt 0.945915 0.866751
vt 0.942283 0.866751
vt 0.945915 0.840874
vt 0.945915 0.835699
vt 0.942283 0.835699
vt 0.942283 0.840874
vt 0.942283 0.840874
vt 0.942283 0.835699
vt 0.945915 0.835699
vt 0.945915 0.840874
vt 0.943645 0.842599
vt 0.944553 0.842599
vt 0.944099 0.868476
vt 0.944099 0.868476
vt 0.944099 0.833974
vt 0.944099 0.833974
vt 0.950696 0.759687
vt 0.950696 0.761633
vt 0.947777 0.761633
vt 0.947777 0.759687
vt 0.950696 0.759687
vt 0.950696 0.761633
vt 0.950696 0.761633
vt 0.950696 0.759687
vt 0.947777 0.759687
vt 0.947777 0.761633
vt 0.950696 0.761633
vt 0.950696 0.759687
vt 0.947777 0.759687
vt 0.947777 0.761633
vt 0.947777 0.761633
vt 0.947777 0.759687
vt 0.950696 0.741049
vt 0.950696 0.74786
vt 0.947777 0.74786
vt 0.947777 0.741049
vt 0.950696 0.741049
vt 0.950696 0.74786
vt 0.950696 0.74786
vt 0.950696 0.741049
vt 0.947777 0.741049
vt 0.947777 0.74786
vt 0.950696 0.74786
vt 0.950696 0.741049
vt 0.947777 0.741049
vt 0.947777 0.74786
vt 0.947777 0.74786
vt 0.947777 0.741049
vt 0.950696 0.741049
vt 0.950696 0.74786
vt 0.947777 0.74786
vt 0.947777 0.741049
vt 0.950696 0.741049
vt 0.950696 0.74786
vt 0.950696 0.74786
vt 0.950696 0.741049
vt 0.947777 0.741049
vt 0.947777 0.74786
vt 0.950696 0.74786
vt 0.950696 0.741049
vt 0.947777 0.741049
vt 0.947777 0.74786
vt 0.947777 0.74786
vt 0.947777 0.741049
vt 0.945915 0.861576
vt 0.944553 0.859851
vt 0.945915 0.861576
vt 0.944553 0.859851
vt 0.943645 0.859851
vt 0.942283 0.861576
vt 0.942283 0.861576
vt 0.943645 0.859851
vt 0.945915 0.861576
vt 0.945915 0.861576
vt 0.945915 0.866751
vt 0.945915 0.861576
vt 0.942283 0.861576
vt 0.945915 0.866751
vt 0.942283 0.861576
vt 0.942283 0.861576
vt 0.942283 0.866751
vt 0.942283 0.866751
vt 0.944553 0.859851
vt 0.944553 0.859851
vt 0.944553 0.859851
vt 0.945915 0.858126
vt 0.943645 0.859851
vt 0.943645 0.859851
vt 0.942283 0.858126
vt 0.943645 0.859851
vt 0.942283 0.858126
vt 0.945915 0.858126
vt 0.945915 0.85295
vt 0.944553 0.851225
vt 0.942283 0.85295
vt 0.943645 0.851225
vt 0.942283 0.85295
vt 0.943645 0.851225
vt 0.944553 0.851225
vt 0.945915 0.85295
vt 0.944553 0.851225
vt 0.944553 0.851225
vt 0.944553 0.851225
vt 0.945915 0.8495
vt 0.943645 0.851225
vt 0.943645 0.851225
vt 0.942283 0.8495
vt 0.943645 0.851225
vt 0.942283 0.8495
vt 0.945915 0.8495
vt 0.945915 0.844324
vt 0.944553 0.842599
vt 0.942283 0.844324
vt 0.943645 0.842599
vt 0.942283 0.844324
vt 0.943645 0.842599
vt 0.944553 0.842599
vt 0.945915 0.844324
vt 0.945915 0.8495
vt 0.945915 0.8495
vt 0.945915 0.844324
vt 0.945915 0.844324
vt 0.942283 0.8495
vt 0.945915 0.8495
vt 0.945915 0.844324
vt 0.942283 0.844324
vt 0.942283 0.8495
vt 0.942283 0.8495
vt 0.942283 0.844324
vt 0.942283 0.844324
vt 0.945915 0.858126
vt 0.945915 0.858126
vt 0.945915 0.85295
vt 0.945915 0.85295
vt 0.942283 0.858126
vt 0.945915 0.858126
vt 0.945915 0.85295
vt 0.942283 0.85295
vt 0.942283 0.858126
vt 0.942283 0.858126
vt 0.942283 0.85295
vt 0.942283 0.85295
vt 0.945915 0.866751
vt 0.945915 0.866751
vt 0.944099 0.868476
vt 0.945915 0.866751
vt 0.942283 0.866751
vt 0.944099 0.868476
vt 0.942283 0.866751
vt 0.942283 0.866751
vt 0.944099 0.868476
vt 0.944099 0.868476
vt 0.944553 0.842599
vt 0.945915 0.840874
vt 0.942283 0.840874
vt 0.943645 0.842599
vt 0.945915 0.835699
vt 0.942283 0.835699
vt 0.942283 0.835699
vt 0.945915 0.835699
vt 0.945915 0.840874
vt 0.945915 0.840874
vt 0.945915 0.835699
vt 0.945915 0.835699
vt 0.942283 0.840874
vt 0.942283 0.840874
vt 0.942283 0.835699
vt 0.942283 0.835699
vt 0.944553 0.842599
vt 0.945915 0.840874
vt 0.945915 0.840874
vt 0.944553 0.842599
vt 0.945915 0.835699
vt 0.944099 0.833974
vt 0.944099 0.833974
vt 0.945915 0.835699
vt 0.943645 0.842599
vt 0.942283 0.840874
vt 0.942283 0.840874
vt 0.943645 0.842599
vt 0.942283 0.835699
vt 0.944099 0.833974
vt 0.944099 0.833974
vt 0.942283 0.835699
vt 0.943645 0.842599
vt 0.943645 0.842599
vt 0.944553 0.842599
vt 0.944553 0.842599

usemtl Palette
usemap Palette
f 3/3/3 4/4/4 1/1/1
f 1/1/1 4/4/4 2/2/2
f 5/5/5 6/6/6 7/7/7
f 7/7/7 6/6/6 8/8/8
f 76/76/76 75/75/75 77/77/77
f 77/77/77 75/75/75 78/78/78
f 80/80/80 79/79/79 81/81/81
f 81/81/81 79/79/79 82/82/82
f 84/84/84 83/83/83 85/85/85
f 85/85/85 83/83/83 86/86/86
f 88/88/88 87/87/87 89/89/89
f 89/89/89 87/87/87 90/90/90
f 11/11/11 12/12/12 9/9/9
f 9/9/9 12/12/12 10/10/10
f 13/13/13 14/14/14 15/15/15
f 15/15/15 14/14/14 16/16/16
f 92/92/92 91/91/91 93/93/93
f 93/93/93 91/91/91 94/94/94
f 96/96/96 95/95/95 97/97/97
f 97/97/97 95/95/95 98/98/98
f 100/100/100 99/99/99 101/101/101
f 101/101/101 99/99/99 102/102/102
f 104/104/104 103/103/103 105/105/105
f 105/105/105 103/103/103 106/106/106
f 19/19/19 20/20/20 17/17/17
f 17/17/17 20/20/20 18/18/18
f 21/21/21 22/22/22 23/23/23
f 23/23/23 22/22/22 24/24/24
f 108/108/108 107/107/107 109/109/109
f 109/109/109 107/107/107 110/110/110
f 112/112/112 111/111/111 113/113/113
f 113/113/113 111/111/111 114/114/114
f 116/116/116 115/115/115 117/117/117
f 117/117/117 115/115/115 118/118/118
f 120/120/120 119/119/119 121/121/121
f 121/121/121 119/119/119 122/122/122
f 30/30/30 26/26/26 29/29/29
f 29/29/29 26/26/26 25/25/25
f 30/30/30 29/29/29 58/58/58
f 58/58/58 29/29/29 57/57/57
f 150/150/150 25/25/25 26/26/26
f 149/149/149 25/25/25 150/150/150
f 149/149/149 150/150/150 155/155/155
f 155/155/155 150/150/150 158/158/158
f 157/157/157 155/155/155 158/158/158
f 156/156/156 155/155/155 157/157/157
f 168/168/168 156/156/156 157/157/157
f 167/167/167 156/156/156 168/168/168
f 167/167/167 168/168/168 173/173/173
f 173/173/173 168/168/168 176/176/176
f 175/175/175 173/173/173 176/176/176
f 174/174/174 173/173/173 175/175/175
f 58/58/58 57/57/57 71/71/71
f 31/31/31 28/28/28 123/123/123
f 123/123/123 28/28/28 124/124/124
f 32/32/32 27/27/27 125/125/125
f 125/125/125 27/27/27 126/126/126
f 128/128/128 127/127/127 129/129/129
f 129/129/129 127/127/127 130/130/130
f 132/132/132 131/131/131 59/59/59
f 59/59/59 131/131/131 133/133/133
f 135/135/135 134/134/134 60/60/60
f 60/60/60 134/134/134 136/136/136
f 138/138/138 137/137/137 139/139/139
f 139/139/139 137/137/137 140/140/140
f 54/54/54 141/141/141 53/53/53
f 53/53/53 141/141/141 142/142/142
f 144/144/144 143/143/143 55/55/55
f 55/55/55 143/143/143 145/145/145
f 147/147/147 146/146/146 56/56/56
f 56/56/56 146/146/146 148/148/148
f 37/37/37 33/33/33 38/38/38
f 38/38/38 33/33/33 34/34/34
f 152/152/152 151/151/151 39/39/39
f 39/39/39 151/151/151 35/35/35
f 154/154/154 153/153/153 40/40/40
f 40/40/40 153/153/153 36/36/36
f 50/50/50 159/159/159 49/49/49
f 49/49/49 159/159/159 160/160/160
f 162/162/162 161/161/161 51/51/51
f 51/51/51 161/161/161 163/163/163
f 165/165/165 164/164/164 52/52/52
f 52/52/52 164/164/164 166/166/166
f 45/45/45 41/41/41 46/46/46
f 46/46/46 41/41/41 42/42/42
f 170/170/170 169/169/169 47/47/47
f 47/47/47 169/169/169 43/43/43
f 172/172/172 171/171/171 48/48/48
f 48/48/48 171/171/171 44/44/44
f 178/178/178 177/177/177 179/179/179
f 179/179/179 177/177/177 180/180/180
f 182/182/182 181/181/181 183/183/183
f 183/183/183 181/181/181 184/184/184
f 186/186/186 185/185/185 187/187/187
f 187/187/187 185/185/185 188/188/188
f 190/190/190 189/189/189 191/191/191
f 191/191/191 189/189/189 192/192/192
f 194/194/194 193/193/193 195/195/195
f 195/195/195 193/193/193 196/196/196
f 198/198/198 197/197/197 199/199/199
f 199/199/199 197/197/197 200/200/200
f 202/202/202 201/201/201 72/72/72
f 72/72/72 201/201/201 203/203/203
f 205/205/205 204/204/204 206/206/206
f 208/208/208 207/207/207 209/209/209
f 209/209/209 207/207/207 210/210/210
f 64/64/64 61/61/61 63/63/63
f 63/63/63 61/61/61 62/62/62
f 64/64/64 69/69/69 61/61/61
f 61/61/61 69/69/69 70/70/70
f 68/68/68 65/65/65 67/67/67
f 67/67/67 65/65/65 66/66/66
f 212/212/212 211/211/211 213/213/213
f 213/213/213 211/211/211 214/214/214
f 73/73/73 215/215/215 216/216/216
f 74/74/74 217/217/217 218/218/218
f 220/220/220 219/219/219 221/221/221
f 221/221/221 219/219/219 222/222/222
f 224/224/224 223/223/223 225/225/225
f 225/225/225 223/223/223 226/226/226
f 228/228/228 227/227/227 229/229/229
f 229/229/229 227/227/227 230/230/230
f 232/232/232 231/231/231 233/233/233
f 233/233/233 231/231/231 234/234/234
f 236/236/236 235/235/235 237/237/237
f 237/237/237 235/235/235 238/238/238
f 240/240/240 239/239/239 241/241/241
f 241/241/241 239/239/239 242/242/242
f 244/244/244 243/243/243 245/245/245
f 245/245/245 243/243/243 246/246/246
