mtllib ./Palette.mtl
g Palette
v -2 -0.2 -1.06101
v -1 -0.2 -0.780505
v -2 5.5 -0.780505
v -2 -0.2 0
v -1 -0.2 -0.280505
v -2 5.5 -0.280505
v -1 1.5 -0.780505
v -2 1.5 -1.06101
v -1 1.5 -0.280505
v -2 1.5 0
v -2 2 -0.780505
v -1.5 2 -0.405505
v -1.5 2 -0.655505
v -2 2 -0.280505
v -1.5 7 -0.405505
v -3 6 -0.280505
v -1.5 7 -0.655505
v -3 6 -0.780505
v -3 -0.2 -1.06101
v -3 5.5 -0.780505
v -3 1.5 -1.06101
v -3 2 -0.780505
v -3 -0.2 -0.280505
v -3 2 -0.280505
v -3 0 -0.280505
v -2 1.25 -0.280505
v -3 0 3
v -2 1.25 3
v -3 6 3
v -2 5.5 3
v -1.5 1 3
v -1.5 1 -0.280505
v -1.5 0.3 3
v -1.5 0.3 -0.280505
v -3 0 -1.06101
v -2 0 -1.06101
v -2 0 -3
v -3 0 -3
v -2 -0.2 -3
v -1.2 0.1 3
v -0.9 0 3
v 3 0 3
v -1.5 0.3 -0.492263
v -1.2 0.000377 -0.492263
v 3 0 0
v -0.79255 -0.13345 -1.125
v -2 -0.2 -1.125
v -2 0 -0.492263
v -0.397612 -0.2 -3
v 1.007747 0 -2.0625
v 1.218889 0 -3
v 0.337203 0 -1.125
v -0.9 0 -0.492263
v -1.5 0.3 0.468994
v -1.2 0.1 0.468994
v -0.9 0 0.468994
v 3 0 -3
v -1.5 7 -0.655505
v -1.5 2 -0.655505
v -1.5 7 -0.655505
v -1.5 7 -0.405505
v -1 1.5 -0.280505
v -2 1.5 0
v -1.5 2 -0.405505
v -1 1.5 -0.280505
v -1 1.5 -0.780505
v -1 -0.2 -0.780505
v -1 -0.2 -0.280505
v -1.5 2 -0.655505
v -2 2 -0.780505
v -2 1.5 -1.06101
v -1 1.5 -0.780505
v -1.5 2 -0.405505
v -1.5 2 -0.655505
v -1 1.5 -0.780505
v -1 1.5 -0.280505
v -1.5 2 -0.405505
v -2 2 -0.280505
v -1.5 7 -0.405505
v -2 5.5 -0.280505
v -3 6 -0.280505
v -1.5 7 -0.405505
v -1.5 7 -0.655505
v -3 6 -0.780505
v -2 5.5 -0.780505
v -2 2 -0.780505
v -2 5.5 -0.780505
v -2 -0.2 -1.06101
v -2 1.5 -1.06101
v -3 1.5 -1.06101
v -2 1.5 -1.06101
v -2 2 -0.780505
v -3 2 -0.780505
v -3 6 -0.780505
v -3 -0.2 -1.06101
v -3 1.5 -1.06101
v -3 2 -0.780505
v -3 6 -0.780505
v -3 6 -0.280505
v -2 5.5 -0.280505
v -3 6 -0.280505
v -2 5.5 -0.280505
v -2 5.5 3
v -3 6 -0.280505
v -3 6 3
v -2 1.25 -0.280505
v -2 1.25 3
v -1.5 1 -0.280505
v -1.5 1 3
v -2 -0.2 -1.06101
v -2 0 -1.06101
v -2 0 -3
v -2 -0.2 -1.125
v -0.79255 -0.13345 -1.125
v -0.397612 -0.2 -3
v -2 -0.2 -1.125
v -2 -0.2 -3
v -0.79255 -0.13345 -1.125
v -0.397612 -0.2 -3
v -0.79255 -0.13345 -1.125
v 0.337203 0 -1.125
v -0.9 0 -0.492263
v -2 0 -0.492263
v -0.79255 -0.13345 -1.125
v -0.9 0 -0.492263
v -1.5 0.3 3
v -1.2 0.1 0.468994
v -0.9 0 0.468994
v -1.2 0.1 3
v -0.9 0 3
v 1.218889 0 -3
v 1.007747 0 -2.0625
v 0.337203 0 -1.125
v -1.5 0.3 0.468994
v -1.2 0.1 0.468994
v -1.2 0.000377 -0.492263
v -1.5 0.3 0.468994
v -1.2 0.000377 -0.492263
v -0.9 0 0.468994
v -1.2 0.1 0.468994
v -1.2 0.000377 -0.492263

vn 0.2700808 0 -0.9628377
vn 0.2700808 0 -0.9628377
vn 0.2425356 0 -0.9701425
vn 0.2700808 0 0.9628377
vn 0.2700808 0 0.9628377
vn 0.2425356 0 0.9701425
vn 0.2700808 0 -0.9628377
vn 0.2700808 0 -0.9628377
vn 0.2700808 0 0.9628377
vn 0.2700808 0 0.9628377
vn 0.2425356 0 -0.9701425
vn 1 0 0
vn 0.2425356 0 -0.9701425
vn 0.2313521 0.4627042 0.8557926
vn 1 0 0
vn -0.5547003 0.8320502 0
vn 0.2425356 0 -0.9701425
vn -0.5547003 0.8320502 0
vn 0 0 -1
vn 0 0 -1
vn 0 0 -1
vn 0 0 -1
vn -1 0 0
vn -1 0 0
vn -1 0 0
vn 1 0 0
vn -1 0 0
vn 1 0 0
vn 0.4472136 0.8944272 0
vn 1 0 0
vn 0.4472136 0.8944272 0
vn 0.4472136 0.8944272 0
vn 1 0 0
vn 1 0 0
vn 0 1 0
vn 0 1 0
vn 0 1 0
vn 0 1 0
vn 1 0 0
vn 0.5547003 0.8320502 0
vn 0.3162277 0.9486833 0
vn 0 1 0
vn 0.7066622 0.7075511 0
vn 0.5526493 0.8289738 -0.0859134
vn 0 1 0
vn -0.0524809 0.9521872 -0.3009741
vn -0.05248091 0.9521872 -0.300974
vn -0.0524809 0.9521872 -0.300974
vn -0.05497187 0.9973821 -0.04697934
vn -0.1109857 0.9925774 -0.04972264
vn -0.1227409 0.9920537 -0.02764347
vn -0.1168968 0.9896184 -0.08361012
vn 7.381463E-05 1 0
vn 0.5547003 0.8320502 0
vn 0.5547003 0.8320502 0
vn 0 1 0
vn 0 1 0
vn 1 0 0
vn 1 0 0
vn -0.5547003 0.8320503 0
vn -0.5547003 0.8320503 0
vn 0.2313521 0.4627042 0.8557926
vn 0.2313521 0.4627042 0.8557926
vn 0.2313521 0.4627043 0.8557926
vn 1 0 0
vn 1 0 0
vn 1 0 0
vn 1 0 0
vn 0.2313521 0.4627043 -0.8557926
vn 0.2313521 0.4627042 -0.8557926
vn 0.2313521 0.4627042 -0.8557926
vn 0.2313521 0.4627042 -0.8557926
vn 0.7071068 0.7071068 0
vn 0.7071068 0.7071068 0
vn 0.7071068 0.7071068 0
vn 0.7071068 0.7071068 0
vn 0.2425356 0 0.9701425
vn 0.2425356 0 0.9701425
vn 0.2425356 0 0.9701425
vn 0.03560095 0.07120188 0.9968264
vn 0.03560095 0.07120189 0.9968264
vn 0.03560095 0.07120189 0.9968264
vn 0.03560095 0.07120189 -0.9968264
vn 0.03560095 0.07120189 -0.9968264
vn 0.03560095 0.07120189 -0.9968264
vn 0 0 -1
vn 0 0 -1
vn 0 0 -1
vn 0 0 -1
vn 0 0.4892737 -0.8721302
vn 0 0.4892737 -0.8721302
vn 0 0.4892737 -0.8721302
vn 0 0.4892737 -0.8721302
vn 0 0 -1
vn -1 0 0
vn -1 0 0
vn -1 0 0
vn -1 0 0
vn -1 0 0
vn 1 0 0
vn 0.4472136 0.8944272 0
vn 0.4472136 0.8944272 0
vn 0.4472136 0.8944272 0
vn -1 0 0
vn -1 0 0
vn 0.4472136 0.8944272 0
vn 0.4472136 0.8944272 0
vn 1 0 0
vn 1 0 0
vn 1 0 0
vn 1 0 0
vn 1 0 0
vn -0.05497187 0.9973821 -0.04697934
vn -0.05497187 0.9973821 -0.04697934
vn 0 1 0
vn 0 1 0
vn 0 1 0
vn -0.1054849 0.9925309 -0.06128098
vn -0.1071675 0.9929231 -0.05117429
vn -0.1143383 0.9679587 -0.223568
vn -0.1143383 0.9679587 -0.223568
vn -0.1143383 0.9679587 -0.223568
vn 0 0.9784742 -0.2063691
vn 0 0.9784742 -0.2063691
vn 0 0.9784742 -0.2063691
vn 0.5547003 0.8320502 0
vn 0.3162277 0.9486833 0
vn 0.3162277 0.9486833 0
vn 0.3162277 0.9486833 0
vn 0 1 0
vn 0 1 0
vn 0 1 0
vn 0 1 0
vn 0.5526493 0.8289738 -0.0859134
vn 0.5526493 0.8289738 -0.0859134
vn 0.7066622 0.7075511 0
vn 0.7066622 0.7075511 0
vn 0.3147103 0.9441309 -0.09784809
vn 0.3147102 0.9441309 -0.09784809
vn 0.3147102 0.9441309 -0.09784809
vn 0.001256665 0.9999993 0

vt 0.151728 0.953547
vt 0.159579 0.951345
vt 0.151728 0.951345
vt 0.151728 0.945218
vt 0.159579 0.94742
vt 0.151728 0.94742
vt 0.159579 0.951345
vt 0.151728 0.953547
vt 0.159579 0.94742
vt 0.151728 0.945218
vt 0.151728 0.951345
vt 0.155654 0.948401
vt 0.155654 0.950364
vt 0.151728 0.94742
vt 0.155654 0.948401
vt 0.143878 0.94742
vt 0.155654 0.950364
vt 0.143878 0.951345
vt 0.143878 0.953547
vt 0.143878 0.951345
vt 0.143878 0.953547
vt 0.143878 0.951345
vt 0.143878 0.94742
vt 0.143878 0.94742
vt 0.9446 0.571792
vt 0.95005 0.571792
vt 0.9446 0.539095
vt 0.95005 0.539095
vt 0.9446 0.539095
vt 0.95005 0.539095
vt 0.05211 0.929601
vt 0.05211 0.963965
vt 0.05211 0.929601
vt 0.05211 0.963965
vt 0.146472 0.938058
vt 0.158088 0.938058
vt 0.158088 0.96058
vt 0.146472 0.96058
vt 0.158088 0.96058
vt 0.940834 0.643009
vt 0.941836 0.643009
vt 0.954863 0.643009
vt 0.939832 0.654674
vt 0.940834 0.654674
vt 0.954863 0.653029
vt 0.945416 0.444128
vt 0.937928 0.444128
vt 0.937928 0.440204
vt 0.947865 0.455754
vt 0.956579 0.449941
vt 0.957888 0.455754
vt 0.952421 0.444128
vt 0.941836 0.654674
vt 0.939832 0.651463
vt 0.940834 0.651463
vt 0.941836 0.651463
vt 0.954863 0.66305
vt 0.155654 0.950364
vt 0.155654 0.950364
vt 0.155654 0.950364
vt 0.155654 0.948401
vt 0.159579 0.94742
vt 0.151728 0.945218
vt 0.155654 0.948401
vt 0.159579 0.94742
vt 0.159579 0.951345
vt 0.159579 0.951345
vt 0.159579 0.94742
vt 0.155654 0.950364
vt 0.151728 0.951345
vt 0.151728 0.953547
vt 0.159579 0.951345
vt 0.155654 0.948401
vt 0.155654 0.950364
vt 0.159579 0.951345
vt 0.159579 0.94742
vt 0.155654 0.948401
vt 0.151728 0.94742
vt 0.155654 0.948401
vt 0.151728 0.94742
vt 0.143878 0.94742
vt 0.155654 0.948401
vt 0.155654 0.950364
vt 0.143878 0.951345
vt 0.151728 0.951345
vt 0.151728 0.951345
vt 0.151728 0.951345
vt 0.151728 0.953547
vt 0.151728 0.953547
vt 0.143878 0.953547
vt 0.151728 0.953547
vt 0.151728 0.951345
vt 0.143878 0.951345
vt 0.143878 0.951345
vt 0.143878 0.953547
vt 0.143878 0.953547
vt 0.143878 0.951345
vt 0.143878 0.951345
vt 0.143878 0.94742
vt 0.95005 0.571792
vt 0.9446 0.571792
vt 0.95005 0.571792
vt 0.95005 0.539095
vt 0.9446 0.571792
vt 0.9446 0.539095
vt 0.049247 0.963965
vt 0.049247 0.929601
vt 0.05211 0.963965
vt 0.05211 0.929601
vt 0.158088 0.938058
vt 0.158088 0.938058
vt 0.158088 0.96058
vt 0.937928 0.444128
vt 0.945416 0.444128
vt 0.947865 0.455754
vt 0.937928 0.444128
vt 0.937928 0.455754
vt 0.945416 0.444128
vt 0.947865 0.455754
vt 0.945416 0.444128
vt 0.952421 0.444128
vt 0.944749 0.440204
vt 0.937928 0.440204
vt 0.945416 0.444128
vt 0.944749 0.440204
vt 0.939832 0.643009
vt 0.940834 0.651463
vt 0.941836 0.651463
vt 0.940834 0.643009
vt 0.941836 0.643009
vt 0.948914 0.66305
vt 0.948208 0.659919
vt 0.945969 0.656787
vt 0.939832 0.651463
vt 0.940834 0.651463
vt 0.940834 0.654674
vt 0.939832 0.651463
vt 0.940834 0.654674
vt 0.941836 0.651463
vt 0.940834 0.651463
vt 0.940834 0.654674

usemtl Palette
usemap Palette
f 3/3/3 17/17/17 11/11/11
f 11/11/11 17/17/17 13/13/13
f 4/4/4 5/5/5 10/10/10
f 10/10/10 5/5/5 9/9/9
f 58/58/58 15/15/15 59/59/59
f 59/59/59 15/15/15 12/12/12
f 18/18/18 16/16/16 60/60/60
f 60/60/60 16/16/16 61/61/61
f 8/8/8 7/7/7 1/1/1
f 1/1/1 7/7/7 2/2/2
f 63/63/63 62/62/62 14/14/14
f 14/14/14 62/62/62 64/64/64
f 66/66/66 65/65/65 67/67/67
f 67/67/67 65/65/65 68/68/68
f 70/70/70 69/69/69 71/71/71
f 71/71/71 69/69/69 72/72/72
f 74/74/74 73/73/73 75/75/75
f 75/75/75 73/73/73 76/76/76
f 78/78/78 77/77/77 6/6/6
f 6/6/6 77/77/77 79/79/79
f 81/81/81 80/80/80 82/82/82
f 84/84/84 83/83/83 85/85/85
f 86/86/86 22/22/22 87/87/87
f 87/87/87 22/22/22 20/20/20
f 94/94/94 87/87/87 20/20/20
f 88/88/88 19/19/19 89/89/89
f 89/89/89 19/19/19 21/21/21
f 91/91/91 90/90/90 92/92/92
f 92/92/92 90/90/90 93/93/93
f 95/95/95 23/23/23 96/96/96
f 96/96/96 23/23/23 24/24/24
f 96/96/96 24/24/24 97/97/97
f 99/99/99 97/97/97 24/24/24
f 98/98/98 97/97/97 99/99/99
f 100/100/100 30/30/30 26/26/26
f 26/26/26 30/30/30 28/28/28
f 101/101/101 29/29/29 102/102/102
f 102/102/102 29/29/29 103/103/103
f 25/25/25 27/27/27 104/104/104
f 104/104/104 27/27/27 105/105/105
f 32/32/32 106/106/106 31/31/31
f 31/31/31 106/106/106 107/107/107
f 34/34/34 108/108/108 33/33/33
f 33/33/33 108/108/108 109/109/109
f 38/38/38 35/35/35 37/37/37
f 37/37/37 35/35/35 36/36/36
f 111/111/111 110/110/110 112/112/112
f 112/112/112 110/110/110 39/39/39
f 45/45/45 53/53/53 56/56/56
f 45/45/45 56/56/56 42/42/42
f 42/42/42 56/56/56 130/130/130
f 45/45/45 133/133/133 53/53/53
f 45/45/45 132/132/132 133/133/133
f 45/45/45 131/131/131 132/132/132
f 57/57/57 131/131/131 45/45/45
f 53/53/53 141/141/141 56/56/56
f 48/48/48 46/46/46 47/47/47
f 49/49/49 113/113/113 114/114/114
f 116/116/116 115/115/115 117/117/117
f 118/118/118 50/50/50 119/119/119
f 51/51/51 119/119/119 50/50/50
f 50/50/50 118/118/118 52/52/52
f 121/121/121 120/120/120 122/122/122
f 124/124/124 123/123/123 125/125/125
f 55/55/55 54/54/54 40/40/40
f 40/40/40 54/54/54 126/126/126
f 128/128/128 127/127/127 41/41/41
f 41/41/41 127/127/127 129/129/129
f 44/44/44 134/134/134 135/135/135
f 137/137/137 136/136/136 43/43/43
f 139/139/139 138/138/138 140/140/140
