mtllib ./Palette.mtl
g Palette
v -1.5 1.75 3
v -3 1.75 3
v -1.5 1.75 1.5
v -3 1.75 1.5
v -1.5 5.5 3
v -3 5.5 3
v -1.5 5.5 1.5
v -3 5.5 1.5
v -1.25 6.423924 3.25
v -3.25 6.423924 3.25
v -1.25 6.423924 1.25
v -3.25 6.423924 1.25
v -1.5 5.25 3
v -1.5 5.25 1.5
v -1.5 5.75 1.5
v -1.5 5.75 3
v -3 5.25 1.5
v -3 5.75 1.5
v -3 5.25 3
v -3 5.75 3
v -1.25 5.5 1.25
v -1.25 5.5 3.25
v -3.25 5.5 1.25
v -3.25 5.5 3
v -3 5.5 3.25
v -1.1 6.423924 1.1
v -1.1 6.423924 3.4
v -3.4 6.423924 1.1
v -3.4 6.423924 3.4
v -1.5 6.723924 1.5
v -3 6.723924 1.5
v -2.25 9 2.25
v -1.5 6.723924 3
v -3 6.723924 3
v -1 1.25 3
v -1 0.3 3
v -1 0.3 1
v -1 1.25 1
v -3 1.25 1
v -3 0.3 1
v -3 0.3 3
v -3 0.3 1.5
v -3 0.1 1.2
v -3 0 0.9
v -0.9 0 3
v -1.2 0.1 3
v -1.5 0.3 3
v -0.728358 0.1 0.728358
v -0.472633 0 3
v -0.472633 0 0.472633
v -3 0 0.472633
v 3 0 3
v 3 0 -3
v -3 0 -3
v -1.5 1.75 3
v -1.5 5.5 3
v -1.5 1.75 1.5
v -1.5 5.5 1.5
v -3 1.75 1.5
v -3 5.5 1.5
v -3 5.5 3
v -3 1.75 3
v -3 5.5 3
v -1.5 5.5 3
v -1.5 5.5 3
v -1.25 6.423924 3.25
v -1.5 5.5 1.5
v -1.5 5.5 1.5
v -1.25 6.423924 1.25
v -3 5.5 1.5
v -3 5.5 1.5
v -3.25 6.423924 1.25
v -3.25 6.423924 3.25
v -3 5.5 3
v -1.25 5.5 1.25
v -1.25 5.5 3.25
v -1.5 5.25 1.5
v -1.25 5.5 1.25
v -3.25 5.5 1.25
v -1.25 5.5 1.25
v -1.5 5.75 1.5
v -3 5.25 1.5
v -3.25 5.5 1.25
v -3.25 5.5 3
v -3.25 5.5 1.25
v -3 5.75 1.5
v -1.5 5.75 3
v -1.25 5.5 3.25
v -3 5.75 3
v -3 5.25 3
v -3 5.5 3.25
v -1.25 5.5 3.25
v -1.5 5.25 3
v -1.25 6.423924 3.25
v -1.25 6.423924 1.25
v -3.25 6.423924 1.25
v -3.25 6.423924 3.25
v -1.1 6.423924 1.1
v -1.5 6.723924 1.5
v -3 6.723924 1.5
v -3.4 6.423924 1.1
v -1.1 6.423924 3.4
v -1.5 6.723924 1.5
v -1.1 6.423924 1.1
v -1.5 6.723924 3
v -2.25 9 2.25
v -1.5 6.723924 1.5
v -3.4 6.423924 3.4
v -1.5 6.723924 3
v -1.1 6.423924 3.4
v -3 6.723924 3
v -2.25 9 2.25
v -1.5 6.723924 3
v -3.4 6.423924 1.1
v -3 6.723924 1.5
v -3 6.723924 3
v -3.4 6.423924 3.4
v -3 6.723924 1.5
v -2.25 9 2.25
v -3 6.723924 3
v -1 1.25 3
v -1.5 1.75 3
v -1.5 1.75 1.5
v -1 1.25 1
v -1 1.25 1
v -1.5 1.75 1.5
v -3 1.75 1.5
v -1 1.25 1
v -3 1.25 1
v -1 0.3 1
v -1 0.3 3
v -3 1.75 3
v -1 1.25 3
v -1.5 1.75 3
v -3 0.3 3
v -3 0.3 1
v -3 1.25 1
v -3 1.75 3
v -3 1.75 1.5
v -3 0.3 1
v -1 0.3 3
v -1 0.3 1
v -0.9 0 3
v -1 0.3 3
v -0.9 0 3
v -1 0.3 1
v -3 0 0.9
v -1 0.3 1
v -3 0.3 1
v -1 0.3 1
v -3 0 0.9
v -0.728358 0.1 0.728358
v -0.9 0 3
v -0.728358 0.1 0.728358
v -0.9 0 3
v -0.472633 0 0.472633
v -3 0 0.9
v -3 0 0.9
v -0.472633 0 0.472633
v -0.728358 0.1 0.728358

vn 0 0 1
vn 0 0 1
vn 1 0 0
vn 0 0 -1
vn 0 0 1
vn 0 0 1
vn 1 0 0
vn 0 0 -1
vn 0 -0.2611922 0.9652869
vn 0 -0.2611922 0.9652869
vn 0.9652869 -0.2611922 0
vn 0 -0.2611922 -0.9652869
vn 0.7071068 -0.7071068 0
vn 0.7071068 -0.7071068 0
vn 0.7071068 0.7071068 0
vn 0.7071068 0.7071068 0
vn 0 -0.7071068 -0.7071068
vn 0 0.7071068 -0.7071068
vn -0.7071068 -0.7071068 0
vn -0.7071068 0.7071068 0
vn 0.7071068 -0.7071068 0
vn 0.7071068 -0.7071068 0
vn 0 -0.7071068 -0.7071068
vn -0.7071068 -0.7071068 0
vn 0 0.7071068 0.7071068
vn 0 -1 0
vn 0 -1 0
vn 0 -1 0
vn 0 -1 0
vn 0 0.3129616 -0.9497658
vn 0 0.3129616 -0.9497658
vn 0 0.3129616 -0.9497658
vn 0.6000003 0.7999998 0
vn 0 0.8 0.6000001
vn 1 0 0
vn 1 0 0
vn 1 0 0
vn 1 0 0
vn 0 0.7071068 -0.7071068
vn 0 0 -1
vn 0 0 1
vn -1 0 0
vn -1 0 0
vn -1 0 0
vn 0 0 1
vn 0 0 1
vn 0 0 1
vn 0.6428319 0.7615951 0.08209764
vn 0 1 0
vn 0.4247254 0.902469 0.07181925
vn 0 1 0
vn 0 1 0
vn 0 1 0
vn 0 1 0
vn 1 0 0
vn 1 0 0
vn 0 0 -1
vn 0 0 -1
vn -1 0 0
vn -1 0 0
vn -1 0 0
vn -1 0 0
vn 0 -0.2611922 0.9652869
vn 0 -0.2611922 0.9652869
vn 0.9652869 -0.2611922 0
vn 0.9652869 -0.2611922 0
vn 0.9652869 -0.2611922 0
vn 0 -0.2611922 -0.9652869
vn 0 -0.2611922 -0.9652869
vn 0 -0.2611922 -0.9652869
vn -0.9652869 -0.2611922 0
vn -0.9652869 -0.2611922 0
vn -0.9652869 -0.2611922 0
vn -0.9652869 -0.2611922 0
vn 0.7071068 0.7071068 0
vn 0.7071068 0.7071068 0
vn 0 -0.7071068 -0.7071068
vn 0 -0.7071068 -0.7071068
vn 0 0.7071068 -0.7071068
vn 0 0.7071068 -0.7071068
vn 0 0.7071068 -0.7071068
vn -0.7071068 -0.7071068 0
vn -0.7071068 -0.7071068 0
vn -0.7071068 0.7071068 0
vn -0.7071068 0.7071068 0
vn -0.7071068 0.7071068 0
vn 0 0.7071068 0.7071068
vn 0 0.7071068 0.7071068
vn 0 0.7071068 0.7071068
vn 0 -0.7071068 0.7071068
vn 0 -0.7071068 0.7071068
vn 0 -0.7071068 0.7071068
vn 0 -0.7071068 0.7071068
vn 0 -1 0
vn 0 -1 0
vn 0 -1 0
vn 0 -1 0
vn 0 0.7999998 -0.6000002
vn 0 0.7999998 -0.6000002
vn 0 0.7999998 -0.6000002
vn 0 0.7999998 -0.6000002
vn 0.6000003 0.7999998 0
vn 0.6000003 0.7999998 0
vn 0.6000003 0.7999998 0
vn 0.9497658 0.3129616 0
vn 0.9497658 0.3129616 0
vn 0.9497658 0.3129616 0
vn 0 0.7999998 0.6000001
vn 0 0.8 0.6000001
vn 0 0.8 0.6000001
vn 0 0.3129616 0.9497658
vn 0 0.3129616 0.9497658
vn 0 0.3129616 0.9497658
vn -0.6000001 0.8 0
vn -0.6000001 0.8 0
vn -0.6000001 0.8 0
vn -0.6000001 0.7999998 0
vn -0.9497658 0.3129616 0
vn -0.9497658 0.3129616 0
vn -0.9497658 0.3129616 0
vn 0.7071068 0.7071068 0
vn 0.7071068 0.7071068 0
vn 0.7071068 0.7071068 0
vn 0.7071068 0.7071068 0
vn 0 0.7071068 -0.7071068
vn 0 0.7071068 -0.7071068
vn 0 0.7071068 -0.7071068
vn 0 0 -1
vn 0 0 -1
vn 0 0 -1
vn 0 0 1
vn 0 0 1
vn 0 0 1
vn 0 0 1
vn -1 0 0
vn -1 0 0
vn -1 0 0
vn -1 0 0
vn -1 0 0
vn -1 0 0
vn 0 0 1
vn 0.9486833 0.3162279 0
vn 0.9486833 0.3162279 0
vn 0.9486833 0.3162279 0
vn 0.6428319 0.7615951 0.08209766
vn 0.642832 0.7615951 0.08209765
vn 0 0.3162279 -0.9486833
vn 0 0.3162279 -0.9486833
vn 0 0.3162279 -0.9486833
vn -0.08209766 0.761595 -0.642832
vn -0.08209767 0.761595 -0.642832
vn -0.08209766 0.761595 -0.642832
vn 0.4247254 0.902469 0.07181925
vn 0.4247254 0.902469 0.07181924
vn 0 1 0
vn 0 1 0
vn 0 1 0
vn -0.07181924 0.9024691 -0.4247253
vn -0.07181923 0.902469 -0.4247253
vn -0.07181924 0.9024691 -0.4247253

vt 0.956898 0.544398
vt 0.948669 0.544398
vt 0.956898 0.552627
vt 0.948669 0.552627
vt 0.956898 0.544398
vt 0.948669 0.544398
vt 0.956898 0.552627
vt 0.948669 0.552627
vt 0.95827 0.543026
vt 0.947297 0.543026
vt 0.95827 0.553999
vt 0.947297 0.553999
vt 0.155027 0.945513
vt 0.155027 0.956967
vt 0.155027 0.956967
vt 0.155027 0.945513
vt 0.155027 0.956967
vt 0.155027 0.956967
vt 0.155027 0.945513
vt 0.155027 0.945513
vt 0.155027 0.956967
vt 0.155027 0.945513
vt 0.143573 0.956967
vt 0.143573 0.945513
vt 0.143573 0.945513
vt 0.156148 0.959712
vt 0.156148 0.942399
vt 0.138835 0.959712
vt 0.138835 0.942399
vt 0.153137 0.956701
vt 0.141846 0.956701
vt 0.147491 0.951056
vt 0.153137 0.94541
vt 0.141846 0.94541
vt 0.056482 0.946125
vt 0.056482 0.946125
vt 0.056482 0.955964
vt 0.056482 0.955964
vt 0.046643 0.955964
vt 0.046643 0.955964
vt 0.046643 0.946125
vt 0.945265 0.648132
vt 0.945265 0.648514
vt 0.945265 0.648897
vt 0.947945 0.646217
vt 0.947562 0.646217
vt 0.947179 0.646217
vt 0.948164 0.649116
vt 0.948491 0.646217
vt 0.948491 0.649443
vt 0.945265 0.649443
vt 0.952923 0.646217
vt 0.952923 0.653875
vt 0.945265 0.653875
vt 0.956898 0.544398
vt 0.956898 0.544398
vt 0.956898 0.552627
vt 0.956898 0.552627
vt 0.948669 0.552627
vt 0.948669 0.552627
vt 0.948669 0.544398
vt 0.948669 0.544398
vt 0.948669 0.544398
vt 0.956898 0.544398
vt 0.956898 0.544398
vt 0.95827 0.543026
vt 0.956898 0.552627
vt 0.956898 0.552627
vt 0.95827 0.553999
vt 0.948669 0.552627
vt 0.948669 0.552627
vt 0.947297 0.553999
vt 0.947297 0.543026
vt 0.948669 0.544398
vt 0.155027 0.956967
vt 0.155027 0.945513
vt 0.155027 0.956967
vt 0.155027 0.956967
vt 0.143573 0.956967
vt 0.155027 0.956967
vt 0.155027 0.956967
vt 0.155027 0.956967
vt 0.143573 0.956967
vt 0.143573 0.945513
vt 0.143573 0.956967
vt 0.155027 0.956967
vt 0.155027 0.945513
vt 0.155027 0.945513
vt 0.155027 0.945513
vt 0.155027 0.945513
vt 0.143573 0.945513
vt 0.155027 0.945513
vt 0.155027 0.945513
vt 0.155019 0.943528
vt 0.155019 0.958583
vt 0.139964 0.958583
vt 0.139964 0.943528
vt 0.156148 0.959712
vt 0.153137 0.956701
vt 0.141846 0.956701
vt 0.138835 0.959712
vt 0.156148 0.942399
vt 0.153137 0.956701
vt 0.156148 0.959712
vt 0.153137 0.94541
vt 0.147491 0.951056
vt 0.153137 0.956701
vt 0.138835 0.942399
vt 0.153137 0.94541
vt 0.156148 0.942399
vt 0.141846 0.94541
vt 0.147491 0.951056
vt 0.153137 0.94541
vt 0.138835 0.959712
vt 0.141846 0.956701
vt 0.141846 0.94541
vt 0.138835 0.942399
vt 0.141846 0.956701
vt 0.147491 0.951056
vt 0.141846 0.94541
vt 0.056482 0.946125
vt 0.054022 0.946125
vt 0.054022 0.953504
vt 0.056482 0.955964
vt 0.056482 0.955964
vt 0.054022 0.953504
vt 0.046643 0.953504
vt 0.056482 0.955964
vt 0.046643 0.955964
vt 0.056482 0.955964
vt 0.056482 0.946125
vt 0.046643 0.946125
vt 0.056482 0.946125
vt 0.054022 0.946125
vt 0.046643 0.946125
vt 0.046643 0.955964
vt 0.046643 0.955964
vt 0.046643 0.946125
vt 0.046643 0.953504
vt 0.945265 0.64877
vt 0.947817 0.646217
vt 0.947817 0.64877
vt 0.947945 0.646217
vt 0.947817 0.646217
vt 0.947945 0.646217
vt 0.947817 0.64877
vt 0.945265 0.648897
vt 0.947817 0.64877
vt 0.945265 0.64877
vt 0.947817 0.64877
vt 0.945265 0.648897
vt 0.948164 0.649116
vt 0.947945 0.646217
vt 0.948164 0.649116
vt 0.947945 0.646217
vt 0.948491 0.649443
vt 0.945265 0.648897
vt 0.945265 0.648897
vt 0.948491 0.649443
vt 0.948164 0.649116

usemtl Palette
usemap Palette
f 6/6/6 2/2/2 5/5/5
f 5/5/5 2/2/2 1/1/1
f 56/56/56 55/55/55 7/7/7
f 7/7/7 55/55/55 3/3/3
f 58/58/58 57/57/57 8/8/8
f 8/8/8 57/57/57 4/4/4
f 60/60/60 59/59/59 61/61/61
f 61/61/61 59/59/59 62/62/62
f 10/10/10 63/63/63 9/9/9
f 9/9/9 63/63/63 64/64/64
f 66/66/66 65/65/65 11/11/11
f 11/11/11 65/65/65 67/67/67
f 69/69/69 68/68/68 12/12/12
f 12/12/12 68/68/68 70/70/70
f 72/72/72 71/71/71 73/73/73
f 73/73/73 71/71/71 74/74/74
f 22/22/22 13/13/13 21/21/21
f 21/21/21 13/13/13 14/14/14
f 75/75/75 15/15/15 76/76/76
f 76/76/76 15/15/15 16/16/16
f 78/78/78 77/77/77 23/23/23
f 23/23/23 77/77/77 17/17/17
f 79/79/79 18/18/18 80/80/80
f 80/80/80 18/18/18 81/81/81
f 83/83/83 82/82/82 24/24/24
f 24/24/24 82/82/82 19/19/19
f 84/84/84 20/20/20 85/85/85
f 85/85/85 20/20/20 86/86/86
f 88/88/88 87/87/87 25/25/25
f 25/25/25 87/87/87 89/89/89
f 91/91/91 90/90/90 92/92/92
f 92/92/92 90/90/90 93/93/93
f 27/27/27 94/94/94 26/26/26
f 26/26/26 94/94/94 95/95/95
f 26/26/26 95/95/95 28/28/28
f 28/28/28 95/95/95 96/96/96
f 27/27/27 97/97/97 94/94/94
f 29/29/29 97/97/97 27/27/27
f 28/28/28 96/96/96 29/29/29
f 29/29/29 96/96/96 97/97/97
f 32/32/32 30/30/30 31/31/31
f 99/99/99 98/98/98 100/100/100
f 100/100/100 98/98/98 101/101/101
f 33/33/33 102/102/102 103/103/103
f 103/103/103 102/102/102 104/104/104
f 106/106/106 105/105/105 107/107/107
f 34/34/34 108/108/108 109/109/109
f 109/109/109 108/108/108 110/110/110
f 112/112/112 111/111/111 113/113/113
f 115/115/115 114/114/114 116/116/116
f 116/116/116 114/114/114 117/117/117
f 119/119/119 118/118/118 120/120/120
f 38/38/38 35/35/35 37/37/37
f 37/37/37 35/35/35 36/36/36
f 122/122/122 121/121/121 123/123/123
f 123/123/123 121/121/121 124/124/124
f 126/126/126 125/125/125 127/127/127
f 127/127/127 125/125/125 39/39/39
f 129/129/129 128/128/128 40/40/40
f 40/40/40 128/128/128 130/130/130
f 41/41/41 131/131/131 132/132/132
f 132/132/132 131/131/131 133/133/133
f 134/134/134 132/132/132 133/133/133
f 136/136/136 135/135/135 137/137/137
f 137/137/137 135/135/135 138/138/138
f 139/139/139 137/137/137 138/138/138
f 140/140/140 43/43/43 42/42/42
f 140/140/140 44/44/44 43/43/43
f 46/46/46 141/141/141 47/47/47
f 141/141/141 46/46/46 45/45/45
f 143/143/143 142/142/142 144/144/144
f 146/146/146 145/145/145 48/48/48
f 148/148/148 147/147/147 149/149/149
f 151/151/151 150/150/150 152/152/152
f 153/153/153 50/50/50 154/154/154
f 156/156/156 155/155/155 49/49/49
f 49/49/49 52/52/52 156/156/156
f 156/156/156 52/52/52 53/53/53
f 156/156/156 53/53/53 51/51/51
f 157/157/157 156/156/156 51/51/51
f 51/51/51 53/53/53 54/54/54
f 159/159/159 158/158/158 160/160/160
