mtllib ./Palette.mtl
g Palette
v -1.5 1.75 3
v -3 1.75 3
v -1.5 1.75 1.5
v -3 1.75 1.5
v -1.5 5.5 3
v -3 5.5 3
v -1.5 5.5 1.5
v -3 5.5 1.5
v -1.25 6.423924 3.25
v -3.25 6.423924 3.25
v -1.25 6.423924 1.25
v -3.25 6.423924 1.25
v -1.5 5.25 3
v -1.5 5.25 1.5
v -1.5 5.75 1.5
v -1.5 5.75 3
v -3 5.25 1.5
v -3 5.75 1.5
v -1.25 5.5 1.25
v -1.25 5.5 3
v -3 5.5 1.25
v -1.1 6.423924 1.1
v -1.1 6.423924 3.4
v -3.4 6.423924 1.1
v -3.4 6.423924 3.4
v -1.5 6.723924 1.5
v -3 6.723924 1.5
v -2.25 9 2.25
v -1.5 6.723924 3
v -3 6.723924 3
v -1 1.25 3
v -1 0 3
v -1 0 1
v -1 1.25 1
v -3 1.25 1
v -3 0 1
v -3 0 3
v -3 0 1.5
v -1.5 0 3
v -1.5 1.25 2
v -1.5 6 3
v -1.5 5.5 2
v 3 0 3
v 3 1.25 2
v 3 6 3
v 3 5.5 2
v -1 1.25 2
v 3 1 1.5
v -1 1 1.5
v 3 0.3 1.5
v -1 0.3 1.5
v -2 1.25 1
v -2 1.25 -3
v -1.5 1 -3
v -1.5 1 1
v -1.5 0.3 -3
v -1.5 0.3 1
v -2 1.25 1.5
v -3 6 1.5
v -2 5.5 1.5
v -3 0 -3
v -3 6 -3
v -2 5.5 -3
v 3 0.1 1.2
v -0.85 0.1 1.2
v 3 0 0.9
v -0.48 0 0.48
v 3 0 -3
v -1.2 0.1 -3
v -1.2 0.1 0.85
v -0.9 0 -3
v -0.85 0.1 0.85
v -1 0.3 1
v -1.5 1.75 3
v -1.5 5.5 3
v -1.5 1.75 1.5
v -1.5 5.5 1.5
v -3 1.75 1.5
v -3 5.5 1.5
v -3 5.5 3
v -3 1.75 3
v -3 5.5 3
v -1.5 5.5 3
v -1.5 5.5 3
v -1.25 6.423924 3.25
v -1.5 5.5 1.5
v -1.5 5.5 1.5
v -1.25 6.423924 1.25
v -3 5.5 1.5
v -3 5.5 1.5
v -3.25 6.423924 1.25
v -3.25 6.423924 3.25
v -3 5.5 3
v -1.25 5.5 1.25
v -1.25 5.5 3
v -1.5 5.25 1.5
v -1.25 5.5 1.25
v -3 5.5 1.25
v -1.25 5.5 1.25
v -1.5 5.75 1.5
v -1.25 6.423924 3.25
v -1.25 6.423924 1.25
v -3.25 6.423924 1.25
v -3.25 6.423924 3.25
v -1.1 6.423924 1.1
v -1.5 6.723924 1.5
v -3 6.723924 1.5
v -3.4 6.423924 1.1
v -1.1 6.423924 3.4
v -1.5 6.723924 1.5
v -1.1 6.423924 1.1
v -1.5 6.723924 3
v -2.25 9 2.25
v -1.5 6.723924 1.5
v -3.4 6.423924 3.4
v -1.5 6.723924 3
v -1.1 6.423924 3.4
v -3 6.723924 3
v -2.25 9 2.25
v -1.5 6.723924 3
v -3.4 6.423924 1.1
v -3 6.723924 1.5
v -3 6.723924 3
v -3.4 6.423924 3.4
v -3 6.723924 1.5
v -2.25 9 2.25
v -3 6.723924 3
v -1 1.25 3
v -1.5 1.75 3
v -1.5 1.75 1.5
v -1 1.25 1
v -1 1.25 1
v -1.5 1.75 1.5
v -3 1.75 1.5
v -1 1.25 1
v -3 1.25 1
v -1 0 1
v -3 1.75 3
v -3 1.75 1.5
v -3 1.75 3
v -1.5 1.75 3
v -3 0 3
v -1.5 5.5 2
v 3 5.5 2
v -1.5 0 3
v -1.5 6 3
v 3 6 3
v 3 1.25 2
v -1 1 1.5
v 3 1 1.5
v -1.5 1 1
v -1.5 1 -3
v -2 1.25 -3
v -2 5.5 -3
v -2 5.5 1.5
v -3 0 1.5
v -3 6 -3
v -3 6 1.5
v 3 0.3 1.5
v -1 0.3 1.5
v -0.85 0.1 1.2
v -0.85 0.1 1.2
v 3 0 0.9
v 3 0.1 1.2
v -0.48 0 0.48
v 3 0 0.9
v -1.5 0.3 -3
v -1.5 0.3 1
v -1.2 0.1 0.85
v -1.2 0.1 -3
v -1.2 0.1 0.85
v -0.9 0 -3
v -0.48 0 0.48
v -0.9 0 -3
v -1 0.3 1.5
v -0.85 0.1 1.2
v -0.85 0.1 0.85
v -1.5 0.3 1
v -1.2 0.1 0.85
v -1 0.3 1
v -0.48 0 0.48
v -0.85 0.1 0.85
v -1.2 0.1 0.85
v -0.48 0 0.48
v -0.85 0.1 1.2
v -0.85 0.1 0.85

vn 0 0 1
vn 0 0 1
vn 1 0 0
vn 0 0 -1
vn 0 0 1
vn 0 0 1
vn 1 0 0
vn 0 0 -1
vn 0 -0.2611922 0.9652869
vn 0 -0.2611922 0.9652869
vn 0.9652869 -0.2611922 0
vn 0 -0.2611922 -0.9652869
vn 0.7071068 -0.7071068 0
vn 0.7071068 -0.7071068 0
vn 0.7071068 0.7071068 0
vn 0.7071068 0.7071068 0
vn 0 -0.7071068 -0.7071068
vn 0 0.7071068 -0.7071068
vn 0.7071068 -0.7071068 0
vn 0.7071068 -0.7071068 0
vn 0 -0.7071068 -0.7071068
vn 0 -1 0
vn 0 -1 0
vn 0 -1 0
vn 0 -1 0
vn 0 0.3129616 -0.9497658
vn 0 0.3129616 -0.9497658
vn 0 0.3129616 -0.9497658
vn 0.6000003 0.7999998 0
vn 0 0.8 0.6000001
vn 1 0 0
vn 1 0 0
vn 1 0 0
vn 1 0 0
vn 0 0.7071068 -0.7071068
vn 0 0 -1
vn -1 0 0
vn -1 0 0
vn 0 0 1
vn 0 0 -1
vn 0 0.8944272 -0.4472136
vn 0 0 -1
vn 0 0 1
vn 0 0 -1
vn 0 0.8944272 -0.4472136
vn 0 0 -1
vn 0 0.8944272 -0.4472136
vn 0 0.8944272 -0.4472136
vn 0 0.8944272 -0.4472136
vn 0 0 -1
vn 0 0 -1
vn 0.4472136 0.8944272 0
vn 0.4472136 0.8944272 0
vn 0.4472136 0.8944272 0
vn 0.4472136 0.8944272 0
vn 1 0 0
vn 1 0 0
vn 1 0 0
vn 0.4472136 0.8944272 0
vn 1 0 0
vn -1 0 0
vn 0.4472136 0.8944272 0
vn 1 0 0
vn 0 0.8320502 -0.5547003
vn 0 0.8320502 -0.5547003
vn 0.01564836 0.9914353 -0.1296578
vn 0.01564836 0.9914353 -0.1296578
vn 0 1 0
vn 0.5547003 0.8320502 0
vn 0.5547003 0.8320502 0
vn 0.3162277 0.9486833 0
vn 0.8000001 0.5999999 0
vn 0.8000001 0.5999999 0
vn 1 0 0
vn 1 0 0
vn 0 0 -1
vn 0 0 -1
vn -1 0 0
vn -1 0 0
vn -1 0 0
vn -1 0 0
vn 0 -0.2611922 0.9652869
vn 0 -0.2611922 0.9652869
vn 0.9652869 -0.2611922 0
vn 0.9652869 -0.2611922 0
vn 0.9652869 -0.2611922 0
vn 0 -0.2611922 -0.9652869
vn 0 -0.2611922 -0.9652869
vn 0 -0.2611922 -0.9652869
vn -0.9652869 -0.2611922 0
vn -0.9652869 -0.2611922 0
vn -0.9652869 -0.2611922 0
vn -0.9652869 -0.2611922 0
vn 0.7071068 0.7071068 0
vn 0.7071068 0.7071068 0
vn 0 -0.7071068 -0.7071068
vn 0 -0.7071068 -0.7071068
vn 0 0.7071068 -0.7071068
vn 0 0.7071068 -0.7071068
vn 0 0.7071068 -0.7071068
vn 0 -1 0
vn 0 -1 0
vn 0 -1 0
vn 0 -1 0
vn 0 0.7999998 -0.6000002
vn 0 0.7999998 -0.6000002
vn 0 0.7999998 -0.6000002
vn 0 0.7999998 -0.6000002
vn 0.6000003 0.7999998 0
vn 0.6000003 0.7999998 0
vn 0.6000003 0.7999998 0
vn 0.9497658 0.3129616 0
vn 0.9497658 0.3129616 0
vn 0.9497658 0.3129616 0
vn 0 0.7999998 0.6000001
vn 0 0.8 0.6000001
vn 0 0.8 0.6000001
vn 0 0.3129616 0.9497658
vn 0 0.3129616 0.9497658
vn 0 0.3129616 0.9497658
vn -0.6000001 0.8 0
vn -0.6000001 0.8 0
vn -0.6000001 0.8 0
vn -0.6000001 0.7999998 0
vn -0.9497658 0.3129616 0
vn -0.9497658 0.3129616 0
vn -0.9497658 0.3129616 0
vn 0.7071068 0.7071068 0
vn 0.7071068 0.7071068 0
vn 0.7071068 0.7071068 0
vn 0.7071068 0.7071068 0
vn 0 0.7071068 -0.7071068
vn 0 0.7071068 -0.7071068
vn 0 0.7071068 -0.7071068
vn 0 0 -1
vn 0 0 -1
vn 0 0 -1
vn -1 0 0
vn -1 0 0
vn 0 0 1
vn 0 0 1
vn 0 0 1
vn 0 0.8944272 -0.4472136
vn 0 0.8944272 -0.4472136
vn 0 0 1
vn 0 0 1
vn 0 0 1
vn 0 0.8944272 -0.4472136
vn 0 0 -1
vn 0 0 -1
vn 1 0 0
vn 1 0 0
vn 1 0 0
vn 0.4472136 0.8944272 0
vn 0.4472136 0.8944272 0
vn -1 0 0
vn -1 0 0
vn -1 0 0
vn 0 0.8320502 -0.5547003
vn 0 0.8320502 -0.5547003
vn 0.01564836 0.9914353 -0.1296578
vn 0 0.9486833 -0.3162276
vn 0 0.9486833 -0.3162277
vn 0 0.9486833 -0.3162277
vn 0 1 0
vn 0 1 0
vn 0.5547003 0.8320502 0
vn 0.5547003 0.8320502 0
vn 0.3162276 0.9486833 0
vn 0.3162277 0.9486833 0
vn 0.1296578 0.9914353 -0.01564836
vn 0.1296578 0.9914353 -0.01564836
vn 0.1296578 0.9914353 -0.01564836
vn 0 1 0
vn 0.8000001 0.5999998 0
vn 0.8000001 0.5999998 0
vn 0 0.5999999 -0.8000001
vn 0 0.5999998 -0.8000001
vn 0 0.5999998 -0.8000001
vn 0 0.5999999 -0.8000001
vn 0 0.9653634 -0.260909
vn 0 0.9653634 -0.260909
vn 0 0.9653634 -0.260909
vn 0.260909 0.9653634 0
vn 0.260909 0.9653634 0
vn 0.260909 0.9653634 0

vt 0.956898 0.544398
vt 0.948669 0.544398
vt 0.956898 0.552627
vt 0.948669 0.552627
vt 0.956898 0.544398
vt 0.948669 0.544398
vt 0.956898 0.552627
vt 0.948669 0.552627
vt 0.95827 0.543026
vt 0.947297 0.543026
vt 0.95827 0.553999
vt 0.947297 0.553999
vt 0.155027 0.945513
vt 0.155027 0.956967
vt 0.155027 0.956967
vt 0.155027 0.945513
vt 0.155027 0.956967
vt 0.155027 0.956967
vt 0.155027 0.956967
vt 0.155027 0.945513
vt 0.143573 0.956967
vt 0.156148 0.959712
vt 0.156148 0.942399
vt 0.138835 0.959712
vt 0.138835 0.942399
vt 0.153137 0.956701
vt 0.141846 0.956701
vt 0.147491 0.951056
vt 0.153137 0.94541
vt 0.141846 0.94541
vt 0.056482 0.946125
vt 0.056482 0.946125
vt 0.056482 0.955964
vt 0.056482 0.955964
vt 0.046643 0.955964
vt 0.046643 0.955964
vt 0.046643 0.955964
vt 0.046643 0.955964
vt 0.046643 0.955964
vt 0.95005 0.571792
vt 0.9446 0.571792
vt 0.95005 0.571792
vt 0.9446 0.539095
vt 0.95005 0.539095
vt 0.9446 0.539095
vt 0.95005 0.539095
vt 0.049247 0.963965
vt 0.05211 0.929601
vt 0.05211 0.963965
vt 0.05211 0.929601
vt 0.05211 0.963965
vt 0.049247 0.963965
vt 0.049247 0.929601
vt 0.05211 0.929601
vt 0.05211 0.963965
vt 0.05211 0.929601
vt 0.05211 0.963965
vt 0.95005 0.571792
vt 0.9446 0.571792
vt 0.95005 0.571792
vt 0.9446 0.539095
vt 0.9446 0.539095
vt 0.95005 0.539095
vt 0.953576 0.647747
vt 0.94508 0.647747
vt 0.953576 0.648409
vt 0.945896 0.649336
vt 0.953576 0.657016
vt 0.944307 0.657016
vt 0.944307 0.648519
vt 0.944969 0.657016
vt 0.94508 0.648519
vt 0.944749 0.648188
vt 0.956898 0.544398
vt 0.956898 0.544398
vt 0.956898 0.552627
vt 0.956898 0.552627
vt 0.948669 0.552627
vt 0.948669 0.552627
vt 0.948669 0.544398
vt 0.948669 0.544398
vt 0.948669 0.544398
vt 0.956898 0.544398
vt 0.956898 0.544398
vt 0.95827 0.543026
vt 0.956898 0.552627
vt 0.956898 0.552627
vt 0.95827 0.553999
vt 0.948669 0.552627
vt 0.948669 0.552627
vt 0.947297 0.553999
vt 0.947297 0.543026
vt 0.948669 0.544398
vt 0.155027 0.956967
vt 0.155027 0.945513
vt 0.155027 0.956967
vt 0.155027 0.956967
vt 0.143573 0.956967
vt 0.155027 0.956967
vt 0.155027 0.956967
vt 0.155019 0.943528
vt 0.155019 0.958583
vt 0.139964 0.958583
vt 0.139964 0.943528
vt 0.156148 0.959712
vt 0.153137 0.956701
vt 0.141846 0.956701
vt 0.138835 0.959712
vt 0.156148 0.942399
vt 0.153137 0.956701
vt 0.156148 0.959712
vt 0.153137 0.94541
vt 0.147491 0.951056
vt 0.153137 0.956701
vt 0.138835 0.942399
vt 0.153137 0.94541
vt 0.156148 0.942399
vt 0.141846 0.94541
vt 0.147491 0.951056
vt 0.153137 0.94541
vt 0.138835 0.959712
vt 0.141846 0.956701
vt 0.141846 0.94541
vt 0.138835 0.942399
vt 0.141846 0.956701
vt 0.147491 0.951056
vt 0.141846 0.94541
vt 0.056482 0.946125
vt 0.054022 0.946125
vt 0.054022 0.953504
vt 0.056482 0.955964
vt 0.056482 0.955964
vt 0.054022 0.953504
vt 0.046643 0.953504
vt 0.056482 0.955964
vt 0.046643 0.955964
vt 0.056482 0.955964
vt 0.046643 0.955964
vt 0.046643 0.955964
vt 0.046643 0.955964
vt 0.046643 0.955964
vt 0.046643 0.955964
vt 0.95005 0.571792
vt 0.95005 0.539095
vt 0.9446 0.571792
vt 0.9446 0.571792
vt 0.9446 0.539095
vt 0.049247 0.929601
vt 0.05211 0.963965
vt 0.05211 0.929601
vt 0.05211 0.963965
vt 0.05211 0.929601
vt 0.95005 0.539095
vt 0.95005 0.539095
vt 0.95005 0.571792
vt 0.9446 0.571792
vt 0.9446 0.539095
vt 0.9446 0.571792
vt 0.953576 0.647084
vt 0.944749 0.647084
vt 0.94508 0.647747
vt 0.94508 0.647747
vt 0.953576 0.648409
vt 0.953576 0.647747
vt 0.945896 0.649336
vt 0.953576 0.648409
vt 0.943645 0.657016
vt 0.943645 0.648188
vt 0.944307 0.648519
vt 0.944307 0.657016
vt 0.944307 0.648519
vt 0.944969 0.657016
vt 0.945896 0.649336
vt 0.944969 0.657016
vt 0.944749 0.647084
vt 0.94508 0.647747
vt 0.94508 0.648519
vt 0.943645 0.648188
vt 0.944307 0.648519
vt 0.944749 0.648188
vt 0.945896 0.649336
vt 0.94508 0.648519
vt 0.944307 0.648519
vt 0.945896 0.649336
vt 0.94508 0.647747
vt 0.94508 0.648519

usemtl Palette
usemap Palette
f 6/6/6 2/2/2 5/5/5
f 5/5/5 2/2/2 1/1/1
f 75/75/75 74/74/74 7/7/7
f 7/7/7 74/74/74 3/3/3
f 77/77/77 76/76/76 8/8/8
f 8/8/8 76/76/76 4/4/4
f 79/79/79 78/78/78 80/80/80
f 80/80/80 78/78/78 81/81/81
f 10/10/10 82/82/82 9/9/9
f 9/9/9 82/82/82 83/83/83
f 85/85/85 84/84/84 11/11/11
f 11/11/11 84/84/84 86/86/86
f 88/88/88 87/87/87 12/12/12
f 12/12/12 87/87/87 89/89/89
f 91/91/91 90/90/90 92/92/92
f 92/92/92 90/90/90 93/93/93
f 20/20/20 13/13/13 19/19/19
f 19/19/19 13/13/13 14/14/14
f 94/94/94 15/15/15 95/95/95
f 95/95/95 15/15/15 16/16/16
f 97/97/97 96/96/96 21/21/21
f 21/21/21 96/96/96 17/17/17
f 98/98/98 18/18/18 99/99/99
f 99/99/99 18/18/18 100/100/100
f 23/23/23 101/101/101 22/22/22
f 22/22/22 101/101/101 102/102/102
f 22/22/22 102/102/102 24/24/24
f 24/24/24 102/102/102 103/103/103
f 23/23/23 104/104/104 101/101/101
f 25/25/25 104/104/104 23/23/23
f 24/24/24 103/103/103 25/25/25
f 25/25/25 103/103/103 104/104/104
f 28/28/28 26/26/26 27/27/27
f 106/106/106 105/105/105 107/107/107
f 107/107/107 105/105/105 108/108/108
f 29/29/29 109/109/109 110/110/110
f 110/110/110 109/109/109 111/111/111
f 113/113/113 112/112/112 114/114/114
f 30/30/30 115/115/115 116/116/116
f 116/116/116 115/115/115 117/117/117
f 119/119/119 118/118/118 120/120/120
f 122/122/122 121/121/121 123/123/123
f 123/123/123 121/121/121 124/124/124
f 126/126/126 125/125/125 127/127/127
f 34/34/34 31/31/31 33/33/33
f 33/33/33 31/31/31 32/32/32
f 129/129/129 128/128/128 130/130/130
f 130/130/130 128/128/128 131/131/131
f 133/133/133 132/132/132 134/134/134
f 134/134/134 132/132/132 35/35/35
f 136/136/136 135/135/135 36/36/36
f 36/36/36 135/135/135 137/137/137
f 38/38/38 37/37/37 138/138/138
f 139/139/139 38/38/38 138/138/138
f 141/141/141 140/140/140 39/39/39
f 142/142/142 39/39/39 140/140/140
f 42/42/42 46/46/46 40/40/40
f 40/40/40 46/46/46 44/44/44
f 41/41/41 45/45/45 143/143/143
f 143/143/143 45/45/45 144/144/144
f 145/145/145 43/43/43 146/146/146
f 146/146/146 43/43/43 147/147/147
f 49/49/49 47/47/47 48/48/48
f 48/48/48 47/47/47 148/148/148
f 51/51/51 149/149/149 50/50/50
f 50/50/50 149/149/149 150/150/150
f 52/52/52 55/55/55 53/53/53
f 53/53/53 55/55/55 54/54/54
f 151/151/151 57/57/57 152/152/152
f 152/152/152 57/57/57 56/56/56
f 63/63/63 60/60/60 153/153/153
f 153/153/153 60/60/60 58/58/58
f 62/62/62 59/59/59 154/154/154
f 154/154/154 59/59/59 155/155/155
f 61/61/61 156/156/156 157/157/157
f 157/157/157 156/156/156 158/158/158
f 65/65/65 159/159/159 64/64/64
f 159/159/159 65/65/65 160/160/160
f 161/161/161 66/66/66 67/67/67
f 163/163/163 162/162/162 164/164/164
f 68/68/68 165/165/165 166/166/166
f 165/165/165 68/68/68 174/174/174
f 70/70/70 167/167/167 168/168/168
f 167/167/167 70/70/70 69/69/69
f 169/169/169 71/71/71 170/170/170
f 172/172/172 171/171/171 173/173/173
f 175/175/175 72/72/72 73/73/73
f 72/72/72 175/175/175 176/176/176
f 178/178/178 177/177/177 179/179/179
f 180/180/180 177/177/177 178/178/178
f 182/182/182 181/181/181 183/183/183
f 185/185/185 184/184/184 186/186/186
