mtllib ./Palette.mtl
g Palette
v 0 0.5 3
v 0 0 3
v 0 0 -3
v 0 0.5 -3
v -1.090909 0.5 3
v -1.090909 0.5 -3
v -1.090909 1 3
v -1.090909 1 -3
v -2.181818 1 3
v -2.181818 1 -3
v -2.181818 1.5 3
v -2.181818 1.5 -3
v -3.272727 1.5 3
v -3.272727 1.5 -3
v -3.272727 2 3
v -3.272727 2 -3
v -4.363636 2 3
v -4.363636 2 -3
v -4.363636 2.5 3
v -4.363636 2.5 -3
v -5.454545 2.5 3
v -5.454545 2.5 -3
v -5.454545 3 3
v -5.454545 3 -3
v -6.545455 3 3
v -6.545455 3 -3
v -6.545455 3.5 3
v -6.545455 3.5 -3
v -7.636364 3.5 3
v -7.636364 3.5 -3
v -7.636364 4 3
v -7.636364 4 -3
v -8.727273 4 3
v -8.727273 4 -3
v -8.727273 4.5 3
v -8.727273 4.5 -3
v -9.818182 4.5 3
v -9.818182 4.5 -3
v -9.818182 5 3
v -9.818182 5 -3
v -10.90909 5 3
v -10.90909 5 -3
v -10.90909 5.5 3
v -10.90909 5.5 -3
v -12 5.5 3
v -12 5.5 -3
v -12 6 3
v -12 6 -3
v -12.3 6 3
v -12.3 6 -3
v 0.3 0 3
v 0.3 0 -3
v -15 6 3
v -15 6 -3
v 3 0 3
v 3 0 -3
v 0 0.5 -3
v 0 0.5 3
v -1.090909 0.5 -3
v -1.090909 0.5 3
v -1.090909 1 -3
v -1.090909 1 3
v -2.181818 1 -3
v -2.181818 1 3
v -2.181818 1.5 -3
v -2.181818 1.5 3
v -3.272727 1.5 -3
v -3.272727 1.5 3
v -3.272727 2 -3
v -3.272727 2 3
v -4.363636 2 -3
v -4.363636 2 3
v -4.363636 2.5 -3
v -4.363636 2.5 3
v -5.454545 2.5 -3
v -5.454545 2.5 3
v -5.454545 3 -3
v -5.454545 3 3
v -6.545455 3 -3
v -6.545455 3 3
v -6.545455 3.5 -3
v -6.545455 3.5 3
v -7.636364 3.5 -3
v -7.636364 3.5 3
v -7.636364 4 -3
v -7.636364 4 3
v -8.727273 4 -3
v -8.727273 4 3
v -8.727273 4.5 -3
v -8.727273 4.5 3
v -9.818182 4.5 -3
v -9.818182 4.5 3
v -9.818182 5 -3
v -9.818182 5 3
v -10.90909 5 -3
v -10.90909 5 3
v -10.90909 5.5 -3
v -10.90909 5.5 3
v -12 5.5 -3
v -12 5.5 3
v -12 6 -3
v -12 6 3
v 0 0 3
v 0 0 -3
v -12.3 6 -3
v -12.3 6 3
v 0.3 0 3
v 0.3 0 -3

vn 1 0 0
vn 1 0 0
vn 1 0 0
vn 1 0 0
vn 0 1 0
vn 0 1 0
vn 1 0 0
vn 1 0 0
vn 0 1 0
vn 0 1 0
vn 1 0 0
vn 1 0 0
vn 0 1 0
vn 0 1 0
vn 1 0 0
vn 1 0 0
vn 0 1 0
vn 0 1 0
vn 1 0 0
vn 1 0 0
vn 0 1 0
vn 0 1 0
vn 1 0 0
vn 1 0 0
vn 0 1 0
vn 0 1 0
vn 1 0 0
vn 1 0 0
vn 0 1 0
vn 0 1 0
vn 1 0 0
vn 1 0 0
vn 0 1 0
vn 0 1 0
vn 1 0 0
vn 1 0 0
vn 0 1 0
vn 0 1 0
vn 1 0 0
vn 1 0 0
vn 0 1 0
vn 0 1 0
vn 1 0 0
vn 1 0 0
vn 0 1 0
vn 0 1 0
vn 1 0 0
vn 1 0 0
vn 0 1 0
vn 0 1 0
vn 0 1 0
vn 0 1 0
vn 0 1 0
vn 0 1 0
vn 0 1 0
vn 0 1 0
vn 0 1 0
vn 0 1 0
vn 1 0 0
vn 1 0 0
vn 0 1 0
vn 0 1 0
vn 1 0 0
vn 1 0 0
vn 0 1 0
vn 0 1 0
vn 1 0 0
vn 1 0 0
vn 0 1 0
vn 0 1 0
vn 1 0 0
vn 1 0 0
vn 0 1 0
vn 0 1 0
vn 1 0 0
vn 1 0 0
vn 0 1 0
vn 0 1 0
vn 1 0 0
vn 1 0 0
vn 0 1 0
vn 0 1 0
vn 1 0 0
vn 1 0 0
vn 0 1 0
vn 0 1 0
vn 1 0 0
vn 1 0 0
vn 0 1 0
vn 0 1 0
vn 1 0 0
vn 1 0 0
vn 0 1 0
vn 0 1 0
vn 1 0 0
vn 1 0 0
vn 0 1 0
vn 0 1 0
vn 1 0 0
vn 1 0 0
vn 0 1 0
vn 0 1 0
vn 0 1 0
vn 0 1 0
vn 0 1 0
vn 0 1 0
vn 0 1 0
vn 0 1 0

vt 0.355449 0.932959
vt 0.355449 0.932959
vt 0.355449 0.966315
vt 0.355449 0.966315
vt 0.349384 0.932959
vt 0.349384 0.966315
vt 0.554401 0.932959
vt 0.554401 0.966315
vt 0.548336 0.932959
vt 0.548336 0.966315
vt 0.448031 0.932959
vt 0.448031 0.966315
vt 0.441966 0.932959
vt 0.441966 0.966315
vt 0.355449 0.932959
vt 0.355449 0.966315
vt 0.349384 0.932959
vt 0.349384 0.966315
vt 0.554401 0.932959
vt 0.554401 0.966315
vt 0.548336 0.932959
vt 0.548336 0.966315
vt 0.448031 0.932959
vt 0.448031 0.966315
vt 0.441966 0.932959
vt 0.441966 0.966315
vt 0.355449 0.932959
vt 0.355449 0.966315
vt 0.349384 0.932959
vt 0.349384 0.966315
vt 0.554401 0.932959
vt 0.554401 0.966315
vt 0.548336 0.932959
vt 0.548336 0.966315
vt 0.448031 0.932959
vt 0.448031 0.966315
vt 0.441966 0.932959
vt 0.441966 0.966315
vt 0.355449 0.932959
vt 0.355449 0.966315
vt 0.349384 0.932959
vt 0.349384 0.966315
vt 0.554401 0.932959
vt 0.554401 0.966315
vt 0.548336 0.932959
vt 0.548336 0.966315
vt 0.057046 0.944577
vt 0.057046 0.96734
vt 0.055908 0.944577
vt 0.055908 0.96734
vt 0.052893 0.940583
vt 0.052893 0.963044
vt 0.01 0.01
vt 0.01 0.89
vt 0.89 0.01
vt 0.89 0.89
vt 0.355449 0.966315
vt 0.355449 0.932959
vt 0.554401 0.966315
vt 0.554401 0.932959
vt 0.554401 0.966315
vt 0.554401 0.932959
vt 0.448031 0.966315
vt 0.448031 0.932959
vt 0.448031 0.966315
vt 0.448031 0.932959
vt 0.355449 0.966315
vt 0.355449 0.932959
vt 0.355449 0.966315
vt 0.355449 0.932959
vt 0.554401 0.966315
vt 0.554401 0.932959
vt 0.554401 0.966315
vt 0.554401 0.932959
vt 0.448031 0.966315
vt 0.448031 0.932959
vt 0.448031 0.966315
vt 0.448031 0.932959
vt 0.355449 0.966315
vt 0.355449 0.932959
vt 0.355449 0.966315
vt 0.355449 0.932959
vt 0.554401 0.966315
vt 0.554401 0.932959
vt 0.554401 0.966315
vt 0.554401 0.932959
vt 0.448031 0.966315
vt 0.448031 0.932959
vt 0.448031 0.966315
vt 0.448031 0.932959
vt 0.355449 0.966315
vt 0.355449 0.932959
vt 0.355449 0.966315
vt 0.355449 0.932959
vt 0.554401 0.966315
vt 0.554401 0.932959
vt 0.554401 0.966315
vt 0.554401 0.932959
vt 0.057046 0.96734
vt 0.057046 0.944577
vt 0.057046 0.96734
vt 0.057046 0.944577
vt 0.05177 0.940583
vt 0.05177 0.963044
vt 0.406 0.89
vt 0.406 0.01
vt 0.494 0.01
vt 0.494 0.89

usemtl Palette
usemap Palette
f 4/4/4 1/1/1 3/3/3
f 3/3/3 1/1/1 2/2/2
f 57/57/57 6/6/6 58/58/58
f 58/58/58 6/6/6 5/5/5
f 59/59/59 8/8/8 60/60/60
f 60/60/60 8/8/8 7/7/7
f 61/61/61 10/10/10 62/62/62
f 62/62/62 10/10/10 9/9/9
f 63/63/63 12/12/12 64/64/64
f 64/64/64 12/12/12 11/11/11
f 65/65/65 14/14/14 66/66/66
f 66/66/66 14/14/14 13/13/13
f 67/67/67 16/16/16 68/68/68
f 68/68/68 16/16/16 15/15/15
f 69/69/69 18/18/18 70/70/70
f 70/70/70 18/18/18 17/17/17
f 71/71/71 20/20/20 72/72/72
f 72/72/72 20/20/20 19/19/19
f 73/73/73 22/22/22 74/74/74
f 74/74/74 22/22/22 21/21/21
f 75/75/75 24/24/24 76/76/76
f 76/76/76 24/24/24 23/23/23
f 77/77/77 26/26/26 78/78/78
f 78/78/78 26/26/26 25/25/25
f 79/79/79 28/28/28 80/80/80
f 80/80/80 28/28/28 27/27/27
f 81/81/81 30/30/30 82/82/82
f 82/82/82 30/30/30 29/29/29
f 83/83/83 32/32/32 84/84/84
f 84/84/84 32/32/32 31/31/31
f 85/85/85 34/34/34 86/86/86
f 86/86/86 34/34/34 33/33/33
f 87/87/87 36/36/36 88/88/88
f 88/88/88 36/36/36 35/35/35
f 89/89/89 38/38/38 90/90/90
f 90/90/90 38/38/38 37/37/37
f 91/91/91 40/40/40 92/92/92
f 92/92/92 40/40/40 39/39/39
f 93/93/93 42/42/42 94/94/94
f 94/94/94 42/42/42 41/41/41
f 95/95/95 44/44/44 96/96/96
f 96/96/96 44/44/44 43/43/43
f 97/97/97 46/46/46 98/98/98
f 98/98/98 46/46/46 45/45/45
f 99/99/99 48/48/48 100/100/100
f 100/100/100 48/48/48 47/47/47
f 101/101/101 50/50/50 102/102/102
f 102/102/102 50/50/50 49/49/49
f 103/103/103 51/51/51 104/104/104
f 104/104/104 51/51/51 52/52/52
f 105/105/105 53/53/53 106/106/106
f 54/54/54 53/53/53 105/105/105
f 56/56/56 107/107/107 55/55/55
f 108/108/108 107/107/107 56/56/56
