mtllib ./Palette.mtl
g Palette
v 2.9 -0.5 -1
v 2.5 -0.5 -1
v 2.3 -0.5 -0.5
v 2.9 -0.5 -0.5
v 3 -0.54 -0.96
v 3 -0.54 -0.46
v 2.3 0.1 -0.5
v 2.9 0.1 -0.5
v 2.9 -1 -1
v 2.5 -1 -1
v 3 0.06 -0.46
v 3 -1 -0.96
v 2.1 0.1 0
v 2.9 0.1 0
v 2.1 0 0
v 2.9 0 0
v 3 0.06 -0.04
v 3 0 -0.04
v 3 -1 -1
v 3 0 0
v 1 -0.5 -2.9
v 1 -0.5 -2.5
v 0.5 -0.5 -2.3
v 0.5 -0.5 -2.9
v 0.96 -0.54 -3
v 0.46 -0.54 -3
v 0.5 0.1 -2.3
v 0.5 0.1 -2.9
v 1 -1 -2.9
v 1 -1 -2.5
v 0.46 0.06 -3
v 0.96 -1 -3
v 0 0.1 -2.1
v 0 0.1 -2.9
v 0 0 -2.1
v 0 0 -2.9
v 0.04 0.06 -3
v 0.04 0 -3
v 1 -1 -3
v 0 0 -3
v 2.7 -1 -2.7
v 1 -1 -2.7
v 2.7 -1 -1
v 3 -1 -2.7
v 2.7 -1 -3
v 3 -1 -3
v -3 0 3
v 3 0 3
v -3 0 -3
v 3 0 -0.25
v -3 0 -0.25
v 0.25 0 3
v 0.25 0 -3
v 0.25 0 -0.25
v 2.25 0 -0.25
v 0.25 0 -2.25
v 2.9 -0.5 -0.5
v 2.9 -0.5 -1
v 2.9 -0.5 -0.5
v 2.3 -0.5 -0.5
v 2.9 -0.5 -1
v 2.5 -0.5 -1
v 2.9 0.1 -0.5
v 2.9 -0.5 -0.5
v 3 -0.54 -0.46
v 3 -0.54 -0.96
v 2.9 -0.5 -1
v 2.9 -1 -1
v 2.3 0.1 -0.5
v 2.9 0.1 -0.5
v 2.9 0.1 0
v 2.1 0.1 0
v 2.9 0.1 0
v 2.9 0.1 -0.5
v 3 0.06 -0.46
v 2.9 0 0
v 2.9 0.1 0
v 3 0.06 -0.04
v 3 -1 -0.96
v 2.9 -1 -1
v 2.9 0 0
v 3 0 -0.04
v 1 -0.5 -2.9
v 0.5 -0.5 -2.9
v 0.5 -0.5 -2.9
v 0.5 -0.5 -2.3
v 1 -0.5 -2.9
v 1 -0.5 -2.5
v 0.5 0.1 -2.9
v 0.46 -0.54 -3
v 0.5 -0.5 -2.9
v 0.96 -0.54 -3
v 1 -1 -2.9
v 1 -0.5 -2.9
v 0.5 0.1 -2.3
v 0.5 0.1 -2.9
v 0 0.1 -2.9
v 0 0.1 -2.1
v 0.5 0.1 -2.9
v 0 0.1 -2.9
v 0.46 0.06 -3
v 0 0 -2.9
v 0.04 0.06 -3
v 0 0.1 -2.9
v 0.96 -1 -3
v 1 -1 -2.9
v 0.04 0 -3
v 0 0 -2.9
v 2.5 -0.5 -1
v 1 -0.5 -2.5
v 1 -1 -2.5
v 2.5 -1 -1
v 0.5 -0.5 -2.3
v 2.3 -0.5 -0.5
v 2.3 0.1 -0.5
v 0.5 0.1 -2.3
v 0 0.1 -2.1
v 2.1 0.1 0
v 2.1 0 0
v 0 0 -2.1
v 3 -1 -1
v 2.7 -1 -2.7
v 1 -1 -3
v 2.7 -1 -2.7
v 2.7 -1 -3
v 3 -1 -2.7
v 2.7 -1 -2.7
v 1 -1 -2.5
v 1 -1 -2.7
v 2.5 -1 -1
v 2.7 -1 -1

vn 0 1 0
vn 0 1 0
vn 0 1 0
vn 0 1 0
vn 0.3713911 0.9284765 0
vn 0.3713912 0.9284765 0
vn 0 0 -1
vn 0 0 -1
vn 0 0 -1
vn 0 0 -1
vn 0.3713909 0 -0.9284766
vn 0.3713911 0 -0.9284764
vn 0 1 0
vn 0 1 0
vn 0 0 1
vn 0 0 1
vn 0.371391 0.9284765 0
vn 0.371391 0 0.9284765
vn 0 1 0
vn 0 1 0
vn 0 1 0
vn 0 1 0
vn 0 1 0
vn 0 1 0
vn 0 0.9284765 -0.3713912
vn 0 0.9284765 -0.3713912
vn 1 0 0
vn 1 0 0
vn 1 0 0
vn 1 0 0
vn 0.9284766 0 -0.3713909
vn 0.9284764 0 -0.3713911
vn 0 1 0
vn 0 1 0
vn -1 0 0
vn -1 0 0
vn 0 0.9284765 -0.3713909
vn -0.9284765 0 -0.3713909
vn 0 1 0
vn 0 1 0
vn 0 1 0
vn 0 1 0
vn 0 1 0
vn 0 1 0
vn 0 1 0
vn 0 1 0
vn 0 1 0
vn 0 1 0
vn 0 1 0
vn 0 1 0
vn 0 1 0
vn 0 1 0
vn 0 1 0
vn 0 1 0
vn 0 1 0
vn 0 1 0
vn 0.3713912 0.9284765 0
vn 0.3713911 0.9284764 0
vn 0 0 -1
vn 0 0 -1
vn 0 0 -1
vn 0 0 -1
vn 0.3713909 0 -0.9284766
vn 0.3713909 0 -0.9284766
vn 0.3713909 0 -0.9284766
vn 0.3713911 0 -0.9284764
vn 0.3713912 0 -0.9284765
vn 0.3713911 0 -0.9284764
vn 0 1 0
vn 0 1 0
vn 0 0 1
vn 0 0 1
vn 0.371391 0.9284765 0
vn 0.371391 0.9284765 0
vn 0.371391 0.9284765 0
vn 0.371391 0 0.9284765
vn 0.371391 0 0.9284765
vn 0.3713909 0 0.9284765
vn 0 1 0
vn 0 1 0
vn 0 1 0
vn 0 1 0
vn 0 0.9284765 -0.3713911
vn 0 0.9284765 -0.3713911
vn 1 0 0
vn 1 0 0
vn 1 0 0
vn 1 0 0
vn 0.9284766 0 -0.3713909
vn 0.9284766 0 -0.3713909
vn 0.9284766 0 -0.3713909
vn 0.9284764 0 -0.3713911
vn 0.9284764 0 -0.3713911
vn 0.9284765 0 -0.3713912
vn 0 1 0
vn 0 1 0
vn -1 0 0
vn -1 0 0
vn 0 0.9284765 -0.3713909
vn 0 0.9284765 -0.3713909
vn 0 0.9284765 -0.3713909
vn -0.9284765 0 -0.3713909
vn -0.9284765 0 -0.3713909
vn -0.9284765 0 -0.3713909
vn 0 1 0
vn 0 1 0
vn 0 1 0
vn 0 1 0
vn 0.7071068 0 -0.7071068
vn 0.7071068 0 -0.7071068
vn 0.7071068 0 -0.7071068
vn 0.7071068 0 -0.7071068
vn 0.7071068 0 -0.7071068
vn 0.7071068 0 -0.7071068
vn 0.7071068 0 -0.7071068
vn 0.7071068 0 -0.7071068
vn -0.7071068 0 0.7071068
vn -0.7071068 0 0.7071068
vn -0.7071068 0 0.7071068
vn -0.7071068 0 0.7071068
vn 0 1 0
vn 0 1 0
vn 0 1 0
vn 0 1 0
vn 0 1 0
vn 0 1 0
vn 0 1 0
vn 0 1 0
vn 0 1 0
vn 0 1 0
vn 0 1 0

vt 0.860211 0.94297
vt 0.856955 0.94297
vt 0.855327 0.9389
vt 0.860211 0.9389
vt 0.861025 0.942644
vt 0.861025 0.938574
vt 0.855327 0.9389
vt 0.860211 0.9389
vt 0.860211 0.94297
vt 0.856955 0.94297
vt 0.861025 0.938574
vt 0.861025 0.942644
vt 0.853699 0.934829
vt 0.860211 0.934829
vt 0.853699 0.934829
vt 0.860211 0.934829
vt 0.861025 0.935155
vt 0.861025 0.935155
vt 0.842674 0.958265
vt 0.048003 0.95798
vt 0.844745 0.958436
vt 0.844745 0.95518
vt 0.840675 0.953552
vt 0.840675 0.958436
vt 0.844419 0.95925
vt 0.840349 0.95925
vt 0.840675 0.953552
vt 0.840675 0.958436
vt 0.844745 0.958436
vt 0.844745 0.95518
vt 0.840349 0.95925
vt 0.844419 0.95925
vt 0.836604 0.951924
vt 0.836604 0.958436
vt 0.836604 0.951924
vt 0.836604 0.958436
vt 0.83693 0.95925
vt 0.83693 0.95925
vt 0.842674 0.958265
vt 0.837948 0.95798
vt 0.245395 0.952835
vt 0.232272 0.947692
vt 0.245395 0.944145
vt 0.246928 0.952835
vt 0.259875 0.949225
vt 0.05561 0.961029
vt 0.01 0.01
vt 0.89 0.01
vt 0.01 0.89
vt 0.89 0.486667
vt 0.01 0.486667
vt 0.486667 0.01
vt 0.486667 0.89
vt 0.486667 0.486667
vt 0.78 0.486667
vt 0.486667 0.78
vt 0.860211 0.9389
vt 0.860211 0.94297
vt 0.860211 0.9389
vt 0.855327 0.9389
vt 0.860211 0.94297
vt 0.856955 0.94297
vt 0.860211 0.9389
vt 0.860211 0.9389
vt 0.861025 0.938574
vt 0.861025 0.942644
vt 0.860211 0.94297
vt 0.860211 0.94297
vt 0.855327 0.9389
vt 0.860211 0.9389
vt 0.860211 0.934829
vt 0.853699 0.934829
vt 0.860211 0.934829
vt 0.860211 0.9389
vt 0.861025 0.938574
vt 0.860211 0.934829
vt 0.860211 0.934829
vt 0.861025 0.935155
vt 0.842674 0.958103
vt 0.842268 0.958265
vt 0.047596 0.95798
vt 0.048003 0.958143
vt 0.844745 0.958436
vt 0.840675 0.958436
vt 0.840675 0.958436
vt 0.840675 0.953552
vt 0.844745 0.958436
vt 0.844745 0.95518
vt 0.840675 0.958436
vt 0.840349 0.95925
vt 0.840675 0.958436
vt 0.844419 0.95925
vt 0.844745 0.958436
vt 0.844745 0.958436
vt 0.840675 0.953552
vt 0.840675 0.958436
vt 0.836604 0.958436
vt 0.836604 0.951924
vt 0.840675 0.958436
vt 0.836604 0.958436
vt 0.840349 0.95925
vt 0.836604 0.958436
vt 0.83693 0.95925
vt 0.836604 0.958436
vt 0.842674 0.958103
vt 0.842268 0.958265
vt 0.837948 0.958143
vt 0.837541 0.95798
vt 0.856955 0.94297
vt 0.844745 0.95518
vt 0.844745 0.95518
vt 0.856955 0.94297
vt 0.840675 0.953552
vt 0.855327 0.9389
vt 0.855327 0.9389
vt 0.840675 0.953552
vt 0.836604 0.951924
vt 0.853699 0.934829
vt 0.853699 0.934829
vt 0.836604 0.951924
vt 0.246928 0.944145
vt 0.259875 0.947692
vt 0.232272 0.949225
vt 0.042409 0.947828
vt 0.042409 0.961029
vt 0.05561 0.947828
vt 0.56928 0.970177
vt 0.529307 0.965474
vt 0.529307 0.970177
vt 0.564577 0.930203
vt 0.56928 0.930203

usemtl Palette
usemap Palette
f 4/4/4 1/1/1 3/3/3
f 3/3/3 1/1/1 2/2/2
f 2/2/2 23/23/23 3/3/3
f 22/22/22 23/23/23 2/2/2
f 22/22/22 24/24/24 23/23/23
f 21/21/21 24/24/24 22/22/22
f 6/6/6 5/5/5 57/57/57
f 57/57/57 5/5/5 58/58/58
f 8/8/8 59/59/59 7/7/7
f 7/7/7 59/59/59 60/60/60
f 61/61/61 9/9/9 62/62/62
f 62/62/62 9/9/9 10/10/10
f 63/63/63 11/11/11 64/64/64
f 64/64/64 11/11/11 65/65/65
f 66/66/66 12/12/12 67/67/67
f 67/67/67 12/12/12 68/68/68
f 69/69/69 13/13/13 70/70/70
f 70/70/70 13/13/13 14/14/14
f 95/95/95 13/13/13 69/69/69
f 33/33/33 13/13/13 95/95/95
f 33/33/33 95/95/95 34/34/34
f 34/34/34 95/95/95 96/96/96
f 16/16/16 71/71/71 15/15/15
f 15/15/15 71/71/71 72/72/72
f 74/74/74 73/73/73 75/75/75
f 75/75/75 73/73/73 17/17/17
f 76/76/76 18/18/18 77/77/77
f 77/77/77 18/18/18 78/78/78
f 79/79/79 19/19/19 80/80/80
f 82/82/82 81/81/81 20/20/20
f 25/25/25 26/26/26 83/83/83
f 83/83/83 26/26/26 84/84/84
f 85/85/85 28/28/28 86/86/86
f 86/86/86 28/28/28 27/27/27
f 29/29/29 87/87/87 30/30/30
f 30/30/30 87/87/87 88/88/88
f 31/31/31 89/89/89 90/90/90
f 90/90/90 89/89/89 91/91/91
f 32/32/32 92/92/92 93/93/93
f 93/93/93 92/92/92 94/94/94
f 97/97/97 36/36/36 98/98/98
f 98/98/98 36/36/36 35/35/35
f 100/100/100 99/99/99 37/37/37
f 37/37/37 99/99/99 101/101/101
f 38/38/38 102/102/102 103/103/103
f 103/103/103 102/102/102 104/104/104
f 39/39/39 105/105/105 106/106/106
f 108/108/108 107/107/107 40/40/40
f 110/110/110 109/109/109 111/111/111
f 111/111/111 109/109/109 112/112/112
f 114/114/114 113/113/113 115/115/115
f 115/115/115 113/113/113 116/116/116
f 118/118/118 117/117/117 119/119/119
f 119/119/119 117/117/117 120/120/120
f 43/43/43 121/121/121 41/41/41
f 41/41/41 121/121/121 44/44/44
f 122/122/122 45/45/45 42/42/42
f 42/42/42 45/45/45 123/123/123
f 125/125/125 124/124/124 46/46/46
f 46/46/46 124/124/124 126/126/126
f 128/128/128 127/127/127 129/129/129
f 130/130/130 127/127/127 128/128/128
f 131/131/131 127/127/127 130/130/130
f 51/51/51 47/47/47 54/54/54
f 54/54/54 47/47/47 52/52/52
f 54/54/54 52/52/52 55/55/55
f 55/55/55 52/52/52 50/50/50
f 50/50/50 52/52/52 48/48/48
f 56/56/56 51/51/51 54/54/54
f 55/55/55 56/56/56 54/54/54
f 56/56/56 53/53/53 51/51/51
f 51/51/51 53/53/53 49/49/49
