mtllib ./Palette.mtl
g Palette
v 3 -1 -1
v 2.9 -1 -1
v 3 -1 -0.96
v 2.9 0 0
v 3 0 0
v 3 0 -0.04
v 3 -0.54 -0.46
v 3 0.06 -0.46
v 3 0.06 -0.04
v 3 -0.54 -0.96
v 2 -0.5 -0.5
v 2 0.1 -0.5
v 2.21 0.1 0
v 2.21 0 0
v 1.8 -0.5 -1
v 1.8 -1 -1
v 2.9 0.1 -0.5
v 2.9 -0.5 -0.5
v 2.9 0.1 0
v 2.9 -0.5 -1
v 2.7 -1 -2.7
v -2.7 -1 -2.7
v 2.7 -1 -1
v 3 -1 -2.7
v -3 -1 -2.7
v 2.7 -1 -3
v -2.7 -1 -3
v 3 -1 -3
v -3 -1 -3
v 0.1 -1 -2.7
v 0.1 -1 -0.1
v -0.1 -1 -2.7
v -0.1 -1 -0.1
v -1 -1 3
v -1 -1 2.9
v -0.96 -1 3
v 0 0 2.9
v 0 0 3
v -0.04 0 3
v -0.46 -0.54 3
v -0.46 0.06 3
v -0.04 0.06 3
v -0.96 -0.54 3
v -0.5 -0.5 2
v -0.5 0.1 2
v 0 0.1 2.21
v 0 0 2.21
v -1 -0.5 1.8
v -1 -1 1.8
v -0.5 0.1 2.9
v -0.5 -0.5 2.9
v 0 0.1 2.9
v -1 -0.5 2.9
v -2.7 -1 2.7
v -1 -1 2.7
v -2.7 -1 3
v -3 -1 2.7
v -3 -1 3
v -2.7 -1 0.1
v 0.723656 -1 0.1
v -2.7 -1 -0.1
v 0.911908 -1 -0.1
v 0.1 -1 0.1
v -0.1 -1 0.1
v -0.1 -1 0.917405
v 0.1 -1 0.719763
v 3 0 3
v -0.25 0 3
v 3 0 -0.25
v 2.25 0 -0.25
v -0.25 0 2.25
v 3 0 -0.04
v 2.9 0 0
v 3 -0.54 -0.46
v 2.9 -0.5 -0.5
v 3 -1 -0.96
v 3 -0.54 -0.96
v 2.9 -0.5 -1
v 2.9 -1 -1
v 2.9 0.1 -0.5
v 2.9 0.1 0
v 2.9 -0.5 -0.5
v 2.9 0.1 -0.5
v 2 0.1 -0.5
v 2.9 0.1 0
v 2.9 0 0
v 2.21 0.1 0
v 2.9 -0.5 -1
v 2.9 -0.5 -0.5
v 2 -0.5 -0.5
v 2.9 -1 -1
v 2.9 -0.5 -1
v 1.8 -0.5 -1
v 2.9 0.1 0
v 2.9 0.1 -0.5
v 3 0.06 -0.46
v 3 0.06 -0.04
v 3 -1 -1
v 2.7 -1 -2.7
v 2.7 -1 -2.7
v 2.7 -1 -3
v 3 -1 -2.7
v -2.7 -1 -3
v -2.7 -1 -2.7
v 0 0 2.9
v -0.04 0 3
v -0.46 -0.54 3
v -0.5 -0.5 2.9
v -0.96 -0.54 3
v -0.96 -1 3
v -1 -1 2.9
v -1 -0.5 2.9
v 0 0.1 2.9
v -0.5 0.1 2.9
v -0.5 0.1 2.9
v -0.5 -0.5 2.9
v -0.5 0.1 2
v 0 0 2.9
v 0 0.1 2.9
v 0 0.1 2.21
v -0.5 -0.5 2.9
v -1 -0.5 2.9
v -0.5 -0.5 2
v -1 -0.5 2.9
v -1 -1 2.9
v -1 -0.5 1.8
v -0.5 0.1 2.9
v 0 0.1 2.9
v -0.04 0.06 3
v -0.46 0.06 3
v -1 -1 3
v -2.7 -1 2.7
v -3 -1 -2.7
v -2.7 -1 -2.7
v -3 -1 2.7
v -2.7 -1 2.7
v -2.7 -1 3
v 0 0.1 2.21
v 2.21 0.1 0
v 2.21 0 0
v 0 0 2.21
v 1.8 -1 -1
v 1.8 -0.5 -1
v -1 -0.5 1.8
v -1 -1 1.8
v 0.723656 -1 0.1
v 0.1 -1 0.719763
v 0.1 -1 0.1
v -0.1 -1 -2.7
v -0.1 -1 -0.1
v -2.7 -1 -0.1
v -2.7 -1 -2.7
v 0.1 -1 -2.7
v 0.911908 -1 -0.1
v 0.1 -1 -0.1
v 1.8 -1 -1
v 2.7 -1 -2.7
v 2.7 -1 -1
v -2.7 -1 2.7
v -1 -1 1.8
v -1 -1 2.7
v -2.7 -1 0.1
v -0.1 -1 0.917405
v -0.1 -1 0.1
v 2 0.1 -0.5
v -0.5 0.1 2
v -0.5 -0.5 2
v 2 -0.5 -0.5

vn 0 1 0
vn 0 1 0
vn 0 1 0
vn 0 1 0
vn 0 1 0
vn 0 1 0
vn 0.3713909 0 -0.9284766
vn 0.3713909 0 -0.9284766
vn 0.3713909 0 0.9284765
vn 0.3713911 0.9284765 0
vn 0 0 -1
vn 0 1 0
vn 0 1 0
vn 0 0 1
vn 0 1 0
vn 0 0 -1
vn 0.3713909 0 -0.9284766
vn 0.3713909 0 -0.9284766
vn 0.371391 0 0.9284765
vn 0.3713911 0.9284764 0
vn 0 1 0
vn 0 1 0
vn 0 1 0
vn 0 1 0
vn 0 1 0
vn 0 1 0
vn 0 1 0
vn 0 1 0
vn 0 1 0
vn 0 1 0
vn 0 1 0
vn 0 1 0
vn 0 1 0
vn 0 1 0
vn 0 1 0
vn 0 1 0
vn 0 1 0
vn 0 1 0
vn 0 1 0
vn -0.9284766 0 0.3713909
vn -0.9284766 0 0.3713909
vn 0.9284765 0 0.3713909
vn 0 0.9284765 0.3713912
vn -1 0 0
vn 0 1 0
vn 0 1 0
vn 1 0 0
vn 0 1 0
vn -1 0 0
vn -0.9284766 0 0.3713909
vn -0.9284766 0 0.3713909
vn 0.9284765 0 0.371391
vn 0 0.9284765 0.3713911
vn 0 1 0
vn 0 1 0
vn 0 1 0
vn 0 1 0
vn 0 1 0
vn 0 1 0
vn 0 1 0
vn 0 1 0
vn 0 1 0
vn 0 1 0
vn 0 1 0
vn 0 1 0
vn 0 1 0
vn 0 1 0
vn 0 1 0
vn 0 1 0
vn 0 1 0
vn 0 1 0
vn 0.371391 0 0.9284765
vn 0.371391 0 0.9284765
vn 0.3713912 0.9284765 0
vn 0.3713912 0.9284765 0
vn 0.3713911 0 -0.9284764
vn 0.3713911 0 -0.9284764
vn 0.3713912 0 -0.9284765
vn 0.3713911 0 -0.9284764
vn 0 1 0
vn 0 1 0
vn 0 0 -1
vn 0 0 -1
vn 0 0 -1
vn 0 0 1
vn 0 0 1
vn 0 0 1
vn 0 1 0
vn 0 1 0
vn 0 1 0
vn 0 0 -1
vn 0 0 -1
vn 0 0 -1
vn 0.371391 0.9284765 0
vn 0.371391 0.9284765 0
vn 0.371391 0.9284765 0
vn 0.371391 0.9284765 0
vn 0 1 0
vn 0 1 0
vn 0 1 0
vn 0 1 0
vn 0 1 0
vn 0 1 0
vn 0 1 0
vn 0.9284765 0 0.371391
vn 0.9284765 0 0.371391
vn 0 0.9284765 0.3713912
vn 0 0.9284765 0.3713911
vn -0.9284765 0 0.3713911
vn -0.9284765 0 0.3713911
vn -0.9284765 0 0.3713911
vn -0.9284765 0 0.3713912
vn 0 1 0
vn 0 1 0
vn -1 0 0
vn -1 0 0
vn -1 0 0
vn 1 0 0
vn 1 0 0
vn 1 0 0
vn 0 1 0
vn 0 1 0
vn 0 1 0
vn -1 0 0
vn -1 0 0
vn -1 0 0
vn 0 0.9284765 0.3713909
vn 0 0.9284765 0.3713909
vn 0 0.9284765 0.3713909
vn 0 0.9284765 0.3713909
vn 0 1 0
vn 0 1 0
vn 0 1 0
vn 0 1 0
vn 0 1 0
vn 0 1 0
vn 0 1 0
vn 0.7071068 0 0.7071068
vn 0.7071068 0 0.7071068
vn 0.7071068 0 0.7071068
vn 0.7071068 0 0.7071068
vn -0.7071068 0 -0.7071068
vn -0.7071068 0 -0.7071068
vn -0.7071068 0 -0.7071068
vn -0.7071068 0 -0.7071068
vn 0 1 0
vn 0 1 0
vn 0 1 0
vn 0 1 0
vn 0 1 0
vn 0 1 0
vn 0 1 0
vn 0 1 0
vn 0 1 0
vn 0 1 0
vn 0 1 0
vn 0 1 0
vn 0 1 0
vn 0 1 0
vn 0 1 0
vn 0 1 0
vn 0 1 0
vn 0 1 0
vn 0 1 0
vn -0.7071068 0 -0.7071068
vn -0.7071068 0 -0.7071068
vn -0.7071068 0 -0.7071068
vn -0.7071068 0 -0.7071068

vt 0.251048 0.955112
vt 0.234547 0.955112
vt 0.251048 0.948512
vt 0.042904 0.943531
vt 0.059405 0.943531
vt 0.059405 0.950131
vt 0.859168 0.954118
vt 0.859168 0.954118
vt 0.859168 0.951731
vt 0.859168 0.956959
vt 0.853486 0.954345
vt 0.853486 0.954345
vt 0.854679 0.951504
vt 0.854679 0.951504
vt 0.85235 0.957186
vt 0.85235 0.957186
vt 0.8586 0.954345
vt 0.8586 0.954345
vt 0.8586 0.951504
vt 0.8586 0.957186
vt 0.245395 0.952835
vt 0.232272 0.947692
vt 0.245395 0.944145
vt 0.246928 0.952835
vt 0.043081 0.946875
vt 0.259875 0.949225
vt 0.232272 0.949225
vt 0.05561 0.961029
vt 0.043081 0.960076
vt 0.246925 0.962058
vt 0.246925 0.935718
vt 0.243826 0.962058
vt 0.243826 0.935718
vt 0.251048 0.955112
vt 0.234547 0.955112
vt 0.251048 0.948512
vt 0.042904 0.943531
vt 0.059405 0.943531
vt 0.059405 0.950131
vt 0.839508 0.934458
vt 0.839508 0.934458
vt 0.841895 0.934458
vt 0.836667 0.934458
vt 0.839281 0.94014
vt 0.839281 0.94014
vt 0.842122 0.938946
vt 0.842122 0.938946
vt 0.83644 0.941276
vt 0.83644 0.941276
vt 0.839281 0.935026
vt 0.839281 0.935026
vt 0.842122 0.935026
vt 0.83644 0.935026
vt 0.245395 0.952835
vt 0.245395 0.944145
vt 0.246928 0.952835
vt 0.259875 0.949225
vt 0.05561 0.961029
vt 0.246925 0.962058
vt 0.246925 0.935718
vt 0.243826 0.962058
vt 0.243826 0.935718
vt 0.246925 0.962058
vt 0.243826 0.962058
vt 0.243826 0.935718
vt 0.246925 0.935718
vt 0.89 0.01
vt 0.413333 0.01
vt 0.89 0.486667
vt 0.78 0.486667
vt 0.413333 0.12
vt 0.859168 0.951731
vt 0.8586 0.951504
vt 0.859168 0.954118
vt 0.8586 0.954345
vt 0.859168 0.956959
vt 0.859168 0.956959
vt 0.8586 0.957186
vt 0.8586 0.957186
vt 0.8586 0.954345
vt 0.8586 0.951504
vt 0.8586 0.954345
vt 0.8586 0.954345
vt 0.853486 0.954345
vt 0.8586 0.951504
vt 0.8586 0.951504
vt 0.854679 0.951504
vt 0.8586 0.957186
vt 0.8586 0.954345
vt 0.853486 0.954345
vt 0.8586 0.957186
vt 0.8586 0.957186
vt 0.85235 0.957186
vt 0.8586 0.951504
vt 0.8586 0.954345
vt 0.859168 0.954118
vt 0.859168 0.951731
vt 0.246928 0.944145
vt 0.259875 0.947692
vt 0.042409 0.947828
vt 0.042409 0.961029
vt 0.05561 0.947828
vt 0.056282 0.960076
vt 0.056282 0.946875
vt 0.842122 0.935026
vt 0.841895 0.934458
vt 0.839508 0.934458
vt 0.839281 0.935026
vt 0.836667 0.934458
vt 0.836667 0.934458
vt 0.83644 0.935026
vt 0.83644 0.935026
vt 0.842122 0.935026
vt 0.839281 0.935026
vt 0.839281 0.935026
vt 0.839281 0.935026
vt 0.839281 0.94014
vt 0.842122 0.935026
vt 0.842122 0.935026
vt 0.842122 0.938946
vt 0.839281 0.935026
vt 0.83644 0.935026
vt 0.839281 0.94014
vt 0.83644 0.935026
vt 0.83644 0.935026
vt 0.83644 0.941276
vt 0.839281 0.935026
vt 0.842122 0.935026
vt 0.841895 0.934458
vt 0.839508 0.934458
vt 0.246928 0.944145
vt 0.259875 0.947692
vt 0.232272 0.949225
vt 0.232272 0.947692
vt 0.042409 0.961029
vt 0.042409 0.947828
vt 0.05561 0.947828
vt 0.842122 0.938946
vt 0.854679 0.951504
vt 0.854679 0.951504
vt 0.842122 0.938946
vt 0.85235 0.957186
vt 0.85235 0.957186
vt 0.83644 0.941276
vt 0.83644 0.941276
vt 0.554222 0.945526
vt 0.551688 0.943008
vt 0.551688 0.945526
vt 0.550876 0.9569
vt 0.550876 0.946338
vt 0.540314 0.946338
vt 0.540314 0.9569
vt 0.551688 0.9569
vt 0.554987 0.946338
vt 0.551688 0.946338
vt 0.558594 0.949994
vt 0.56225 0.9569
vt 0.56225 0.949994
vt 0.540314 0.934964
vt 0.54722 0.93862
vt 0.54722 0.934964
vt 0.540314 0.945526
vt 0.550876 0.942205
vt 0.550876 0.945526
vt 0.853486 0.954345
vt 0.839281 0.94014
vt 0.839281 0.94014
vt 0.853486 0.954345

usemtl Palette
usemap Palette
f 3/3/3 1/1/1 2/2/2
f 6/6/6 4/4/4 5/5/5
f 17/17/17 8/8/8 18/18/18
f 18/18/18 8/8/8 7/7/7
f 73/73/73 72/72/72 19/19/19
f 19/19/19 72/72/72 9/9/9
f 74/74/74 10/10/10 75/75/75
f 75/75/75 10/10/10 20/20/20
f 77/77/77 76/76/76 78/78/78
f 78/78/78 76/76/76 79/79/79
f 12/12/12 13/13/13 80/80/80
f 80/80/80 13/13/13 81/81/81
f 45/45/45 13/13/13 12/12/12
f 46/46/46 13/13/13 45/45/45
f 46/46/46 45/45/45 113/113/113
f 113/113/113 45/45/45 114/114/114
f 83/83/83 82/82/82 84/84/84
f 84/84/84 82/82/82 11/11/11
f 86/86/86 85/85/85 14/14/14
f 14/14/14 85/85/85 87/87/87
f 89/89/89 88/88/88 90/90/90
f 90/90/90 88/88/88 15/15/15
f 48/48/48 90/90/90 15/15/15
f 123/123/123 90/90/90 48/48/48
f 48/48/48 121/121/121 123/123/123
f 122/122/122 121/121/121 48/48/48
f 92/92/92 91/91/91 93/93/93
f 93/93/93 91/91/91 16/16/16
f 95/95/95 94/94/94 96/96/96
f 96/96/96 94/94/94 97/97/97
f 23/23/23 98/98/98 21/21/21
f 21/21/21 98/98/98 24/24/24
f 99/99/99 26/26/26 22/22/22
f 22/22/22 26/26/26 27/27/27
f 101/101/101 100/100/100 28/28/28
f 28/28/28 100/100/100 102/102/102
f 104/104/104 103/103/103 25/25/25
f 25/25/25 103/103/103 29/29/29
f 31/31/31 30/30/30 33/33/33
f 33/33/33 30/30/30 32/32/32
f 34/34/34 36/36/36 35/35/35
f 37/37/37 39/39/39 38/38/38
f 41/41/41 50/50/50 40/40/40
f 40/40/40 50/50/50 51/51/51
f 106/106/106 105/105/105 42/42/42
f 42/42/42 105/105/105 52/52/52
f 43/43/43 107/107/107 53/53/53
f 53/53/53 107/107/107 108/108/108
f 110/110/110 109/109/109 111/111/111
f 111/111/111 109/109/109 112/112/112
f 116/116/116 115/115/115 44/44/44
f 44/44/44 115/115/115 117/117/117
f 119/119/119 118/118/118 120/120/120
f 120/120/120 118/118/118 47/47/47
f 125/125/125 124/124/124 49/49/49
f 49/49/49 124/124/124 126/126/126
f 128/128/128 127/127/127 129/129/129
f 129/129/129 127/127/127 130/130/130
f 131/131/131 55/55/55 56/56/56
f 56/56/56 55/55/55 54/54/54
f 57/57/57 132/132/132 133/133/133
f 133/133/133 132/132/132 134/134/134
f 136/136/136 135/135/135 137/137/137
f 137/137/137 135/135/135 58/58/58
f 59/59/59 60/60/60 61/61/61
f 61/61/61 60/60/60 62/62/62
f 139/139/139 138/138/138 140/140/140
f 140/140/140 138/138/138 141/141/141
f 143/143/143 142/142/142 144/144/144
f 144/144/144 142/142/142 145/145/145
f 66/66/66 63/63/63 65/65/65
f 65/65/65 63/63/63 64/64/64
f 147/147/147 146/146/146 148/148/148
f 150/150/150 149/149/149 151/151/151
f 151/151/151 149/149/149 152/152/152
f 154/154/154 153/153/153 155/155/155
f 156/156/156 153/153/153 154/154/154
f 153/153/153 156/156/156 157/157/157
f 158/158/158 157/157/157 156/156/156
f 160/160/160 159/159/159 161/161/161
f 159/159/159 160/160/160 162/162/162
f 163/163/163 162/162/162 160/160/160
f 164/164/164 162/162/162 163/163/163
f 166/166/166 165/165/165 167/167/167
f 167/167/167 165/165/165 168/168/168
f 71/71/71 68/68/68 67/67/67
f 70/70/70 71/71/71 67/67/67
f 70/70/70 67/67/67 69/69/69
