# Blender v2.79 (sub 0) OBJ File: 'medieval_contest.blend'
# www.blender.org
o Sword_asset_Cube.012
v -0.038796 0.911394 0.012387
v -0.030276 0.937691 0.012387
v -0.038796 0.911394 -0.012387
v -0.030276 0.937691 -0.012387
v 0.038796 0.911394 0.012387
v 0.030276 0.937691 0.012387
v 0.038796 0.911394 -0.012387
v 0.030276 0.937691 -0.012387
v -0.038796 0.896240 -0.020326
v -0.038796 0.896240 0.020326
v -0.026727 0.943446 0.022613
v -0.026727 0.943446 -0.022613
v 0.026727 0.943446 -0.022613
v 0.038796 0.896240 -0.020326
v 0.038796 0.896240 0.020326
v 0.026727 0.943446 0.022613
v -0.178197 0.890937 -0.004589
v -0.178197 0.890937 0.004589
v -0.178197 0.912403 0.004589
v -0.178197 0.912403 -0.004589
v 0.178197 0.912403 -0.004589
v 0.178197 0.890937 -0.004589
v 0.178197 0.890937 0.004589
v 0.178197 0.912403 0.004589
v -0.029204 0.859913 -0.011258
v -0.029204 0.859913 0.011258
v 0.029204 0.859913 -0.011258
v 0.029204 0.859913 0.011258
v -0.029204 0.881283 0.000000
v 0.029204 0.881283 0.000000
v -0.029204 0.162868 0.000000
v 0.029204 0.162868 0.000000
v 0.016008 0.893070 -0.038044
v 0.000000 0.942590 -0.022060
v 0.000000 0.907375 -0.039982
v 0.000000 0.942590 0.022060
v 0.000000 0.821362 -0.015408
v 0.000000 0.821362 0.015408
v 0.000000 0.881283 -0.013026
v 0.000000 0.881283 0.013026
v 0.000000 0.065326 0.000000
v 0.000000 0.199263 -0.013026
v 0.000000 0.205295 0.013026
v -0.019193 0.933617 0.019193
v -0.019193 1.000869 0.019193
v -0.019193 0.933617 -0.019193
v -0.019193 1.000869 -0.019193
v 0.019193 0.933617 0.019193
v 0.019193 1.000869 0.019193
v 0.019193 0.933617 -0.019193
v 0.019193 1.000869 -0.019193
v -0.017303 1.052789 0.017303
v -0.017303 1.052789 -0.017303
v 0.017303 1.052789 -0.017303
v 0.017303 1.052789 0.017303
v -0.022725 1.061163 0.022725
v -0.022725 1.061163 -0.022725
v 0.022725 1.061163 -0.022725
v 0.022725 1.061163 0.022725
v -0.014096 1.069537 0.014096
v -0.014096 1.069537 -0.014096
v 0.014096 1.069537 -0.014096
v 0.014096 1.069537 0.014096
v -0.014354 1.133181 0.014354
v -0.014354 1.133181 -0.014354
v 0.014354 1.133181 -0.014354
v 0.014354 1.133181 0.014354
v -0.022375 1.148255 0.022375
v -0.022375 1.148255 -0.022375
v 0.022375 1.148255 -0.022375
v 0.022375 1.148255 0.022375
v -0.005806 1.180077 0.005806
v -0.005806 1.180077 -0.005806
v 0.005806 1.180077 -0.005806
v 0.005806 1.180077 0.005806
v 0.000000 0.916281 -0.026051
v 0.024515 0.894374 -0.023084
v 0.000000 0.866385 -0.023412
v -0.024515 0.894374 -0.023084
v 0.000000 0.916281 0.026051
v -0.024515 0.894374 0.023084
v 0.000000 0.866385 0.023412
v 0.024515 0.894374 0.023084
v 0.000000 0.874794 -0.038259
v -0.016008 0.893070 -0.038044
v 0.000000 0.907375 0.039982
v -0.016008 0.893070 0.038044
v 0.000000 0.874794 0.038259
v 0.016008 0.893070 0.038044
vt 0.527726 0.843482
vt 0.527726 0.818831
vt 0.676910 0.826590
vt 0.676910 0.835723
vt 0.617051 0.893468
vt 0.603024 0.948053
vt 0.572066 0.947334
vt 0.572070 0.916745
vt 0.600264 0.891423
vt 0.676508 0.891653
vt 0.690491 0.915333
vt 0.541306 0.923092
vt 0.536628 0.902252
vt 0.373291 0.693391
vt 0.297605 0.693391
vt 0.296370 0.608006
vt 0.381090 0.618034
vt 0.651997 0.813211
vt 0.679371 0.838284
vt 0.650114 0.858017
vt 0.634952 0.844130
vt 0.617073 0.929398
vt 0.543387 0.930925
vt 0.543387 0.806181
vt 0.617073 0.807707
vt 0.666779 0.808352
vt 0.682667 0.823149
vt 0.682963 0.790180
vt 0.680062 0.779329
vt 0.699289 0.805152
vt 0.710362 0.806991
vt 0.542501 0.977166
vt 0.558684 0.958993
vt 0.573466 0.954134
vt 0.545401 0.988016
vt 0.542796 0.944197
vt 0.546092 0.929061
vt 0.526175 0.962193
vt 0.515101 0.960354
vt 0.532404 0.925095
vt 0.527726 0.904255
vt 0.690491 0.807752
vt 0.685812 0.828593
vt 0.681589 0.805750
vt 0.541709 0.867162
vt 0.681588 0.856564
vt 0.690491 0.939985
vt 0.541306 0.932225
vt 0.963536 0.930524
vt 0.963536 0.960843
vt 0.791269 0.951300
vt 0.791269 0.940067
vt 0.541709 0.795151
vt 0.791269 0.930495
vt 0.791269 0.900176
vt 0.963536 0.909719
vt 0.963535 0.920952
vt 0.676508 0.963665
vt 0.536628 0.953066
vt 0.623107 0.893176
vt 0.590512 0.923216
vt 0.575350 0.909328
vt 0.602356 0.874169
vt 0.572079 0.859293
vt 0.572087 0.806633
vt 0.607977 0.849730
vt 0.707049 0.893462
vt 0.690262 0.891419
vt 0.662072 0.859293
vt 0.662072 0.806633
vt 0.697969 0.849724
vt 0.633883 0.891419
vt 0.662072 0.916746
vt 0.662072 0.947334
vt 0.631114 0.948049
vt 0.617096 0.893462
vt 0.543885 0.891414
vt 0.541107 0.948044
vt 0.527097 0.893455
vt 0.690759 0.930925
vt 0.690759 0.806181
vt 0.536183 0.849719
vt 0.626175 0.849724
vt 0.693031 0.948049
vt 0.528378 0.697069
vt 0.557043 0.664983
vt 0.588467 0.658822
vt 0.619704 0.689637
vt 0.526937 0.598123
vt 0.559444 0.630192
vt 0.625797 0.598123
vt 0.594163 0.627281
vt 0.381124 0.685003
vt 0.381124 0.609242
vt 0.466425 0.608006
vt 0.456408 0.692809
vt 0.625836 0.599565
vt 0.657891 0.628259
vt 0.664046 0.659713
vt 0.633261 0.690981
vt 0.724686 0.598123
vt 0.692649 0.630662
vt 0.724686 0.697079
vt 0.695556 0.665415
vt 0.151766 0.095406
vt 0.165193 0.139920
vt 0.129723 0.142491
vt 0.135351 0.101346
vt 0.092018 0.138514
vt 0.106886 0.065647
vt 0.049245 0.134472
vt 0.062707 0.057161
vt 0.162896 0.061067
vt 0.207899 0.126627
vt 0.131640 0.198095
vt 0.090481 0.198094
vt 0.894862 0.802855
vt 0.820676 0.808600
vt 0.807397 0.788092
vt 0.904832 0.780546
vt 0.048889 0.197192
vt 0.172125 0.194548
vt 0.213596 0.189240
vt 0.667132 0.921860
vt 0.604560 0.943026
vt 0.610845 0.922437
vt 0.649658 0.909308
vt 0.785143 0.874039
vt 0.820676 0.939478
vt 0.807397 0.959986
vt 0.760728 0.874039
vt 0.894862 0.945224
vt 0.904832 0.967532
vt 0.148971 0.191931
vt 0.149533 0.238212
vt 0.045160 0.239904
vt 0.044589 0.192777
vt 0.564496 0.890465
vt 0.585994 0.889834
vt 0.667132 0.855747
vt 0.649658 0.868299
vt 0.604560 0.834582
vt 0.610845 0.855170
vt 0.896310 0.804902
vt 0.846692 0.817760
vt 0.825189 0.791812
vt 0.902533 0.771769
vt 0.148971 0.099363
vt 0.148784 0.145647
vt 0.044398 0.145647
vt 0.044588 0.098517
vt 0.149533 0.053082
vt 0.045160 0.051391
vt 0.654768 0.829481
vt 0.729459 0.843942
vt 0.663351 0.895659
vt 0.641425 0.884379
vt 0.824900 0.864196
vt 0.846692 0.910632
vt 0.825189 0.936580
vt 0.791219 0.864196
vt 0.896310 0.923490
vt 0.902533 0.956623
vt 0.596028 0.895596
vt 0.618122 0.886375
vt 0.627334 0.908491
vt 0.605240 0.917711
vt 0.575644 0.834614
vt 0.612692 0.828460
vt 0.516379 0.848320
vt 0.574933 0.911189
vt 0.216405 0.719064
vt 0.209975 0.712819
vt 0.219240 0.706920
vt 0.204363 0.722267
vt 0.033163 0.555852
vt 0.050927 0.558349
vt 0.215734 0.724882
vt 0.208337 0.732607
vt 0.036905 0.568002
vt 0.053135 0.568963
vt 0.223126 0.717154
vt 0.051480 0.552773
vt 0.047897 0.540652
vt 0.020099 0.537284
vt 0.016380 0.524797
vn 0.1685 0.9857 0.0000
vn 0.2041 -0.0825 0.9755
vn 0.1021 0.0421 0.9939
vn -0.0000 0.0423 0.9991
vn 0.2147 -0.0957 0.9720
vn -0.0558 0.0099 0.9984
vn 0.0000 -0.0528 -0.9986
vn -0.9959 -0.0672 0.0612
vn -0.9959 -0.0672 -0.0612
vn -0.9028 -0.4301 0.0000
vn 0.0000 1.0000 0.0000
vn 0.0320 0.9995 0.0000
vn -0.9745 0.1406 0.1746
vn -0.9745 0.1406 -0.1746
vn -0.9018 0.4077 0.1432
vn -0.9123 0.3594 0.1961
vn -0.9018 0.4077 -0.1432
vn -0.9123 0.3594 -0.1961
vn 0.9018 0.4077 -0.1432
vn 0.9745 0.1406 -0.1746
vn 0.9959 -0.0672 -0.0612
vn 0.9123 0.3594 -0.1961
vn 0.9745 0.1406 0.1746
vn 0.9959 -0.0672 0.0612
vn 0.9018 0.4077 0.1432
vn 0.9123 0.3594 0.1961
vn -1.0000 0.0000 0.0000
vn 1.0000 0.0000 0.0000
vn 0.0558 0.0099 -0.9984
vn -0.1685 0.9857 0.0000
vn 0.1452 -0.9894 0.0000
vn 0.0558 0.0099 0.9984
vn -0.1452 -0.9894 0.0000
vn -0.0558 0.0099 -0.9984
vn 0.7971 -0.6038 0.0000
vn 0.9028 -0.4301 0.0000
vn 0.3154 -0.2240 0.9222
vn -0.2041 -0.0825 -0.9755
vn -0.2147 -0.0957 -0.9720
vn -0.3154 -0.2240 -0.9222
vn 0.2147 -0.0957 -0.9720
vn 0.0000 0.0423 -0.9991
vn 0.1021 0.0421 -0.9939
vn 0.2041 -0.0825 -0.9755
vn -0.2147 -0.0957 0.9720
vn -0.1021 0.0421 0.9939
vn -0.2041 -0.0825 0.9755
vn -0.7971 -0.6038 0.0000
vn -0.0320 0.9995 0.0000
vn -0.3154 -0.2240 0.9222
vn 0.3154 -0.2240 -0.9222
vn -0.1021 0.0421 -0.9939
vn 0.6332 0.6521 -0.4169
vn 0.7071 -0.6153 -0.3485
vn -0.7071 -0.6153 -0.3485
vn -0.6332 0.6521 -0.4169
vn 0.0000 -0.0528 0.9986
vn -0.6332 0.6521 0.4169
vn -0.7071 -0.6153 0.3485
vn 0.7071 -0.6153 0.3485
vn 0.6332 0.6521 0.4169
vn -0.9998 0.0180 0.0000
vn 0.0000 0.0000 -1.0000
vn 0.0000 0.0180 -0.9998
vn 0.9998 0.0180 0.0000
vn 0.0000 0.0000 1.0000
vn 0.0000 0.0180 0.9998
vn 0.0000 -1.0000 0.0000
vn 0.0000 0.0364 -0.9993
vn 0.8394 -0.5435 0.0000
vn 0.9993 0.0364 0.0000
vn -0.9993 0.0364 0.0000
vn 0.0000 0.0364 0.9993
vn -0.6964 0.7176 0.0000
vn -0.8394 -0.5435 0.0000
vn 0.0000 -0.5435 0.8394
vn 0.0000 -0.5435 -0.8394
vn 0.0000 -0.0040 1.0000
vn 0.0000 0.7176 0.6964
vn 0.0000 0.7176 -0.6964
vn 0.6964 0.7176 0.0000
vn 0.8828 -0.4698 0.0000
vn 0.0000 -0.0040 -1.0000
vn 1.0000 -0.0040 0.0000
vn -1.0000 -0.0040 0.0000
vn 0.0000 0.4618 0.8870
vn -0.8828 -0.4698 0.0000
vn 0.0000 -0.4698 0.8828
vn 0.0000 -0.4698 -0.8828
vn 0.0000 0.4618 -0.8870
vn 0.8870 0.4618 0.0000
vn -0.8870 0.4618 0.0000
vn -0.4074 0.0000 0.9133
vn -0.3214 -0.0687 0.9444
vn -0.3860 -0.0175 0.9223
vn 0.4074 0.0000 -0.9133
vn 0.3333 -0.0691 -0.9403
vn 0.3860 -0.0204 -0.9223
vn -0.4074 0.0000 -0.9133
vn -0.3860 -0.0204 -0.9223
vn -0.3333 -0.0691 -0.9403
vn 0.4074 0.0000 0.9133
vn 0.3860 -0.0175 0.9223
vn 0.3214 -0.0687 0.9444
vn 0.3076 -0.0921 -0.9470
vn -0.3076 -0.0921 -0.9470
vn 0.2957 -0.0885 0.9512
vn -0.2957 -0.0885 0.9512
s 1
f 8/1/1 6/2/1 24/3/1 21/4/1
f 15/5/2 16/6/3 36/7/4 80/8/4 83/9/5
f 1/10/6 2/11/6 19/12/6 18/13/6
f 35/14/7 33/15/7 84/16/7 85/17/7
f 10/18/8 9/19/9 25/20/10 26/21/10
f 34/22/11 12/23/12 11/24/12 36/25/11
f 1/26/13 3/27/14 9/19/9 10/18/8
f 2/28/15 1/26/13 10/18/8 11/29/16
f 4/30/17 2/28/15 11/29/16 12/31/18
f 3/27/14 4/30/17 12/31/18 9/19/9
f 8/32/19 7/33/20 14/34/21 13/35/22
f 7/33/20 5/36/23 15/37/24 14/34/21
f 6/38/25 8/32/19 13/35/22 16/39/26
f 5/36/23 6/38/25 16/39/26 15/37/24
f 18/13/27 19/12/27 20/40/27 17/41/27
f 22/42/28 21/43/28 24/3/28 23/44/28
f 7/45/29 8/1/29 21/4/29 22/46/29
f 2/11/30 4/47/30 20/48/30 19/12/30
f 3/49/31 1/50/31 18/51/31 17/52/31
f 6/2/32 5/53/32 23/44/32 24/3/32
f 5/54/33 7/55/33 22/56/33 23/57/33
f 4/47/34 3/58/34 17/59/34 20/48/34
f 37/60/35 27/61/36 28/62/36 38/63/35
f 14/34/21 15/37/24 28/62/36 27/61/36
f 15/5/2 83/9/5 82/64/37 38/65/37 28/66/37
f 9/67/38 79/68/39 78/69/40 37/70/40 25/71/40
f 77/72/41 76/73/42 34/74/42 13/75/43 14/76/44
f 81/77/45 80/8/4 36/7/4 11/78/46 10/79/47
f 25/20/10 37/60/48 38/63/48 26/21/10
f 13/80/49 34/22/11 36/25/11 16/81/49
f 82/64/50 81/77/45 10/79/47 26/82/50 38/65/50
f 78/69/51 77/72/41 14/76/44 27/83/51 37/70/51
f 9/67/38 12/84/52 34/74/42 76/73/42 79/68/39
f 77/85/53 33/86/53 35/87/53 76/88/53
f 78/89/54 84/90/54 33/86/54 77/85/54
f 79/91/55 85/92/55 84/90/55 78/89/55
f 76/88/56 35/87/56 85/92/56 79/91/56
f 86/93/57 87/94/57 88/95/57 89/96/57
f 81/97/58 87/98/58 86/99/58 80/100/58
f 82/101/59 88/102/59 87/98/59 81/97/59
f 83/103/60 89/104/60 88/102/60 82/101/60
f 80/100/61 86/99/61 89/104/61 83/103/61
s 3
f 44/105/27 45/106/62 47/107/62 46/108/27
f 46/108/63 47/107/64 51/109/64 50/110/63
f 50/110/28 51/109/65 49/111/65 48/112/28
f 48/113/66 49/114/67 45/106/67 44/105/66
f 46/108/68 50/110/68 48/113/68 44/105/68
f 51/109/64 47/107/64 53/115/69 54/116/69
f 55/117/70 54/118/70 58/119/70 59/120/70
f 49/111/65 51/109/65 54/116/71 55/121/71
f 47/107/62 45/106/62 52/122/72 53/115/72
f 45/106/67 49/114/67 55/123/73 52/122/73
f 57/124/74 56/125/74 60/126/74 61/127/74
f 53/128/75 52/129/75 56/130/75 57/131/75
f 52/129/76 55/132/76 59/133/76 56/130/76
f 54/118/77 53/128/77 57/131/77 58/119/77
f 60/134/78 63/135/78 67/136/78 64/137/78
f 56/125/79 59/138/79 63/139/79 60/126/79
f 58/140/80 57/124/80 61/127/80 62/141/80
f 59/142/81 58/140/81 62/141/81 63/143/81
f 67/144/82 66/145/82 70/146/82 71/147/82
f 62/148/83 61/149/83 65/150/83 66/151/83
f 63/152/84 62/148/84 66/151/84 67/153/84
f 61/149/85 60/134/85 64/137/85 65/150/85
f 68/154/86 71/155/86 75/156/86 72/157/86
f 65/158/87 64/159/87 68/160/87 69/161/87
f 64/159/88 67/162/88 71/163/88 68/160/88
f 66/145/89 65/158/89 69/161/89 70/146/89
f 74/164/11 73/165/11 72/166/11 75/167/11
f 70/168/90 69/169/90 73/165/90 74/164/90
f 71/170/91 70/168/91 74/164/91 75/171/91
f 69/169/92 68/154/92 72/157/92 73/165/92
s 2
f 39/172/11 40/173/11 30/174/11
f 40/173/93 29/175/93 31/176/94 43/177/95
f 39/178/96 30/179/96 32/180/97 42/181/98
f 29/182/99 39/178/99 42/181/100 31/183/101
f 30/174/102 40/173/102 43/177/103 32/184/104
f 29/175/11 40/173/11 39/172/11
f 42/181/98 32/180/97 41/185/105
f 31/183/101 42/181/100 41/185/106
f 32/184/104 43/177/103 41/186/107
f 43/177/95 31/176/94 41/186/108
