mtllib ./Palette.mtl
g Palette
v 3 0 3
v -3 6 -3
v -3 6 3
v 3 6 -3
v 0 3 0
v 0 3 3
v 3 3 0
v 0.2 3.405 -0.105
v -2.29 5.895 -2.595
v 2.69 3.405 -0.105
v 2.69 5.895 -2.595
v -0.105 3.405 0.2
v -2.595 5.895 -2.29
v -2.595 5.895 2.69
v -0.105 3.405 2.69
v 0.336632 2.908264 0.336632
v 0.336632 2.908264 2.69
v 2.69 0.418264 2.69
v 2.69 2.908264 0.336632
v 2.69 0.418264 2.69
v 0.336632 2.908264 0.336632
v -2.29 5.895 -2.595
v 0.2 3.405 -0.105
v 0 3 0
v 0.2 3.405 -0.105
v 2.69 3.405 -0.105
v 3 3 0
v 2.69 3.405 -0.105
v 2.69 5.895 -2.595
v 3 6 -3
v 2.69 5.895 -2.595
v -2.29 5.895 -2.595
v -3 6 -3
v 0 3 0
v -0.105 3.405 0.2
v -2.595 5.895 -2.29
v -3 6 -3
v -3 6 -3
v -2.595 5.895 -2.29
v -2.595 5.895 2.69
v -3 6 3
v -2.595 5.895 2.69
v -0.105 3.405 2.69
v 0 3 3
v -0.105 3.405 2.69
v -0.105 3.405 0.2
v 0 3 0
v 0 3 0
v 0.336632 2.908264 0.336632
v 0.336632 2.908264 2.69
v 0 3 3
v 0 3 3
v 0.336632 2.908264 2.69
v 2.69 0.418264 2.69
v 3 3 0
v 2.69 2.908264 0.336632
v 0.336632 2.908264 0.336632
v 0 3 0
v 3 0 3
v 2.69 0.418264 2.69
v 2.69 2.908264 0.336632
v 3 3 0

vn 0.6651102 0.6485573 0.3701376
vn -0.4048699 0.4116175 0.8164873
vn 0.2509622 0.9679969 0
vn 0.5647325 0.5835568 0.583557
vn -0.4048699 0.4116175 0.8164873
vn 0.5835568 0.583557 0.5647325
vn 0 0.2509621 0.9679969
vn 0 0.7071068 0.7071068
vn 0 0.7071068 0.7071068
vn 0 0.7071068 0.7071068
vn 0 0.7071068 0.7071068
vn 0.7071068 0.7071068 0
vn 0.7071068 0.7071068 0
vn 0.7071068 0.7071068 0
vn 0.7071068 0.7071068 0
vn 0.7267652 0.686886 0
vn 0.7267652 0.686886 0
vn 0.7267652 0.686886 0
vn 0 0.686886 0.7267652
vn 0 0.686886 0.7267652
vn 0 0.686886 0.7267652
vn -0.4048699 0.4116175 0.8164873
vn -0.4048699 0.4116175 0.8164873
vn 0 0.2509622 0.9679969
vn 0 0.2509622 0.9679969
vn 0 0.2509621 0.9679969
vn 0.5647325 0.5835568 0.583557
vn 0.5647325 0.5835569 0.583557
vn 0.5647325 0.5835568 0.5835569
vn 0 0.9679969 0.2509622
vn 0 0.9679969 0.2509622
vn 0 0.9679969 0.2509622
vn 0 0.9679969 0.2509622
vn 0.8164871 0.4116177 -0.4048699
vn 0.8164871 0.4116177 -0.4048699
vn 0.8164871 0.4116178 -0.4048699
vn 0.8164871 0.4116177 -0.4048699
vn 0.2509622 0.9679969 0
vn 0.2509622 0.9679969 0
vn 0.2509622 0.9679969 0
vn 0.5835568 0.583557 0.5647325
vn 0.5835569 0.583557 0.5647325
vn 0.5835569 0.583557 0.5647325
vn 0.9679969 0.2509621 0
vn 0.9679969 0.2509621 0
vn 0.9679969 0.2509622 0
vn 0.9679969 0.2509622 0
vn 0.2629236 0.9648166 0
vn 0.2629236 0.9648166 0
vn 0.2629236 0.9648166 0
vn 0.2629236 0.9648166 0
vn 0.6651102 0.6485574 0.3701376
vn 0.6651102 0.6485573 0.3701376
vn 0.6651102 0.6485573 0.3701376
vn 0 0.9648166 0.2629236
vn 0 0.9648166 0.2629236
vn 0 0.9648166 0.2629235
vn 0 0.9648166 0.2629236
vn 0.3701377 0.6485572 0.6651102
vn 0.3701377 0.6485573 0.6651102
vn 0.3701376 0.6485573 0.6651102
vn 0.3701377 0.6485573 0.6651102

vt 0.064476 0.935524
vt 0.040187 0.959813
vt 0.040187 0.935524
vt 0.064476 0.959813
vt 0.052332 0.947668
vt 0.052332 0.935524
vt 0.064476 0.947668
vt 0.053141 0.948093
vt 0.043061 0.958174
vt 0.063221 0.948093
vt 0.063221 0.958174
vt 0.051907 0.946859
vt 0.041827 0.956939
vt 0.041827 0.936779
vt 0.051907 0.936779
vt 0.053694 0.946306
vt 0.053694 0.936779
vt 0.063221 0.936779
vt 0.063221 0.946306
vt 0.063221 0.936779
vt 0.053694 0.946306
vt 0.043061 0.958174
vt 0.053141 0.948093
vt 0.052332 0.947668
vt 0.053141 0.948093
vt 0.063221 0.948093
vt 0.064476 0.947668
vt 0.063221 0.948093
vt 0.063221 0.958174
vt 0.064476 0.959813
vt 0.063221 0.958174
vt 0.043061 0.958174
vt 0.040187 0.959813
vt 0.052332 0.947668
vt 0.051907 0.946859
vt 0.041827 0.956939
vt 0.040187 0.959813
vt 0.040187 0.959813
vt 0.041827 0.956939
vt 0.041827 0.936779
vt 0.040187 0.935524
vt 0.041827 0.936779
vt 0.051907 0.936779
vt 0.052332 0.935524
vt 0.051907 0.936779
vt 0.051907 0.946859
vt 0.052332 0.947668
vt 0.052332 0.947668
vt 0.053694 0.946306
vt 0.053694 0.936779
vt 0.052332 0.935524
vt 0.052332 0.935524
vt 0.053694 0.936779
vt 0.063221 0.936779
vt 0.064476 0.947668
vt 0.063221 0.946306
vt 0.053694 0.946306
vt 0.052332 0.947668
vt 0.064476 0.935524
vt 0.063221 0.936779
vt 0.063221 0.946306
vt 0.064476 0.947668

usemtl Palette
usemap Palette
f 17/17/17 18/18/18 16/16/16
f 15/15/15 12/12/12 14/14/14
f 14/14/14 12/12/12 13/13/13
f 20/20/20 19/19/19 21/21/21
f 11/11/11 9/9/9 10/10/10
f 10/10/10 9/9/9 8/8/8
f 22/22/22 2/2/2 23/23/23
f 23/23/23 2/2/2 5/5/5
f 25/25/25 24/24/24 26/26/26
f 26/26/26 24/24/24 7/7/7
f 28/28/28 27/27/27 29/29/29
f 29/29/29 27/27/27 4/4/4
f 31/31/31 30/30/30 32/32/32
f 32/32/32 30/30/30 33/33/33
f 35/35/35 34/34/34 36/36/36
f 36/36/36 34/34/34 37/37/37
f 39/39/39 38/38/38 40/40/40
f 40/40/40 38/38/38 3/3/3
f 42/42/42 41/41/41 43/43/43
f 43/43/43 41/41/41 6/6/6
f 45/45/45 44/44/44 46/46/46
f 46/46/46 44/44/44 47/47/47
f 49/49/49 48/48/48 50/50/50
f 50/50/50 48/48/48 51/51/51
f 53/53/53 52/52/52 54/54/54
f 54/54/54 52/52/52 1/1/1
f 56/56/56 55/55/55 57/57/57
f 57/57/57 55/55/55 58/58/58
f 60/60/60 59/59/59 61/61/61
f 61/61/61 59/59/59 62/62/62
